SplineFontDB: 3.2
FontName: Athena-Light
FullName: Athena Light
FamilyName: Athena Light
Weight: Light
Copyright: Ellen Luff
Version: 1.000
ItalicAngle: 0
UnderlinePosition: -100
UnderlineWidth: 50
Ascent: 800
Descent: 200
InvalidEm: 0
sfntRevision: 0x00010000
LayerCount: 2
Layer: 0 1 "Back" 1
Layer: 1 1 "Fore" 0
XUID: [1021 88 1250314127 11457990]
StyleMap: 0x0040
FSType: 8
OS2Version: 3
OS2_WeightWidthSlopeOnly: 0
OS2_UseTypoMetrics: 0
CreationTime: 1534110816
ModificationTime: 1742326272
PfmFamily: 81
TTFWeight: 300
TTFWidth: 5
LineGap: 0
VLineGap: 0
Panose: 0 0 8 0 0 0 0 0 0 0
OS2TypoAscent: 700
OS2TypoAOffset: 0
OS2TypoDescent: -200
OS2TypoDOffset: 0
OS2TypoLinegap: 300
OS2WinAscent: 1000
OS2WinAOffset: 0
OS2WinDescent: 200
OS2WinDOffset: 0
HheadAscent: 1000
HheadAOffset: 0
HheadDescent: -200
HheadDOffset: 0
OS2SubXSize: 650
OS2SubYSize: 600
OS2SubXOff: 0
OS2SubYOff: 75
OS2SupXSize: 650
OS2SupYSize: 600
OS2SupXOff: 0
OS2SupYOff: 350
OS2StrikeYSize: 50
OS2StrikeYPos: 288
OS2CapHeight: 658
OS2XHeight: 480
OS2Vendor: 'UKWN'
OS2CodePages: 00000001.00000000
OS2UnicodeRanges: 00000003.00000000.00000000.00000000
Lookup: 258 0 0 "'kern' Horizontal Kerning lookup 0" { "'kern' Horizontal Kerning lookup 0 kerning class 0"  "'kern' Horizontal Kerning lookup 0 kerning class 1"  "'kern' Horizontal Kerning lookup 0 kerning class 2"  } ['kern' ('DFLT' <'dflt' > ) ]
Lookup: 258 8 0 "'kern' Horizontal Kerning lookup 1" { "'kern' Horizontal Kerning lookup 1 kerning class 0"  "'kern' Horizontal Kerning lookup 1 kerning class 1"  "'kern' Horizontal Kerning lookup 1 kerning class 2"  "'kern' Horizontal Kerning lookup 1 kerning class 3"  "'kern' Horizontal Kerning lookup 1 kerning class 4"  } ['kern' ('DFLT' <'dflt' > ) ]
DEI: 91125
KernClass2: 16+ 25 "'kern' Horizontal Kerning lookup 0 kerning class 0"
 7 eight.1
 6 five.1
 6 four.1
 7 seven.1
 5 six.1
 7 three.1
 5 two.1
 6 zero.1
 5 eight
 4 five
 4 four
 5 seven
 16 six questiondown
 5 three
 3 two
 15 parenright zero
 7 eight.1

StartChar: .notdef
Encoding: 65536 -1 0
Width: 450
GlyphClass: 1
Flags: W
LayerCount: 2
Fore
SplineSet
84 700 m 1,0,-1
 369 700 l 1,1,-1
 369 -200 l 1,2,-1
 84 -200 l 1,3,-1
 84 700 l 1,0,-1
300 -16 m 1,4,-1
 300 86 l 1,5,-1
 150 86 l 1,6,-1
 150 -16 l 1,7,-1
 300 -16 l 1,4,-1
180 57 m 1,8,-1
 270 57 l 1,9,-1
 270 14 l 1,10,-1
 180 14 l 1,11,-1
 180 57 l 1,8,-1
300 140 m 1,12,-1
 300 242 l 1,13,-1
 210 242 l 1,14,-1
 210 192 l 1,15,-1
 240 192 l 1,16,-1
 240 212 l 1,17,-1
 270 212 l 1,18,-1
 270 170 l 1,19,-1
 180 170 l 1,20,-1
 180 242 l 1,21,-1
 150 242 l 1,22,-1
 150 140 l 1,23,-1
 300 140 l 1,12,-1
300 262 m 1,24,-1
 300 352 l 1,25,-1
 270 352 l 1,26,-1
 270 292 l 1,27,-1
 150 292 l 1,28,-1
 150 262 l 1,29,-1
 300 262 l 1,24,-1
300 376 m 1,30,-1
 300 406 l 1,31,-1
 150 406 l 1,32,-1
 150 376 l 1,33,-1
 210 376 l 1,34,-1
 210 343 l 1,35,-1
 150 343 l 1,36,-1
 150 313 l 1,37,-1
 240 313 l 1,38,-1
 240 376 l 1,39,-1
 300 376 l 1,30,-1
180 493 m 1,40,-1
 210 493 l 1,41,-1
 210 461 l 1,42,-1
 180 461 l 1,43,-1
 180 493 l 1,40,-1
240 461 m 1,44,-1
 240 524 l 1,45,-1
 150 524 l 1,46,-1
 150 430 l 1,47,-1
 300 430 l 1,48,-1
 300 461 l 1,49,-1
 240 461 l 1,44,-1
300 610 m 1,50,-1
 300 640 l 1,51,-1
 151 640 l 1,52,-1
 151 610 l 1,53,-1
 210 610 l 1,54,-1
 210 577 l 1,55,-1
 150 577 l 1,56,-1
 150 547 l 1,57,-1
 300 547 l 1,58,-1
 300 577 l 1,59,-1
 240 577 l 1,60,-1
 240 610 l 1,61,-1
 300 610 l 1,50,-1
300 -66 m 1,62,-1
 300 -36 l 1,63,-1
 150 -36 l 1,64,-1
 150 -66 l 1,65,-1
 213 -66 l 1,66,-1
 150 -108 l 1,67,-1
 150 -138 l 1,68,-1
 300 -138 l 1,69,-1
 300 -108 l 1,70,-1
 208 -108 l 1,71,-1
 271 -66 l 1,72,-1
 300 -66 l 1,62,-1
EndSplineSet
Validated: 1
EndChar

StartChar: exclam
Encoding: 33 33 4
Width: 271
GlyphClass: 1
Flags: W
LayerCount: 2
Fore
SplineSet
159 658 m 1,0,-1
 159 531 l 1,1,-1
 144 189 l 1,2,-1
 124 189 l 1,3,-1
 109 531 l 1,4,-1
 109 658 l 1,5,-1
 159 658 l 1,0,-1
167.5 77 m 128,-1,7
 154 90 154 90 134 90 c 0,8,9
 116 90 116 90 103 77 c 128,-1,10
 90 64 90 64 90 45 c 256,11,12
 90 26 90 26 103 13 c 128,-1,13
 116 0 116 0 134 0 c 0,14,15
 153 0 153 0 167 13 c 128,-1,16
 181 26 181 26 181 45 c 256,17,6
 181 64 181 64 167.5 77 c 128,-1,7
EndSplineSet
Validated: 9
EndChar

StartChar: quotedbl
Encoding: 34 34 5
Width: 362
GlyphClass: 1
Flags: W
LayerCount: 2
Fore
SplineSet
137.5 645 m 128,-1,1
 151 632 151 632 151 613 c 0,2,3
 151 607 151 607 150 602 c 0,4,5
 145 576 145 576 129 552 c 128,-1,6
 113 528 113 528 89 500 c 1,7,-1
 69 500 l 1,8,9
 77 513 77 513 85 532.5 c 128,-1,10
 93 552 93 552 95 570 c 1,11,12
 80 573 80 573 70 585 c 128,-1,13
 60 597 60 597 60 613 c 0,14,15
 60 632 60 632 73 645 c 128,-1,16
 86 658 86 658 104 658 c 0,17,0
 124 658 124 658 137.5 645 c 128,-1,1
283.5 645 m 128,-1,19
 297 632 297 632 297 613 c 0,20,21
 297 607 297 607 296 602 c 0,22,23
 291 576 291 576 275 552 c 128,-1,24
 259 528 259 528 235 500 c 1,25,-1
 215 500 l 1,26,27
 223 513 223 513 231 532.5 c 128,-1,28
 239 552 239 552 241 570 c 1,29,30
 226 573 226 573 216 585 c 128,-1,31
 206 597 206 597 206 613 c 0,32,33
 206 632 206 632 219 645 c 128,-1,34
 232 658 232 658 250 658 c 0,35,18
 270 658 270 658 283.5 645 c 128,-1,19
EndSplineSet
Validated: 1
EndChar

StartChar: numbersign
Encoding: 35 35 6
Width: 825
GlyphClass: 1
Flags: W
LayerCount: 2
Fore
SplineSet
759 413 m 1,0,-1
 582 413 l 1,1,-1
 525 246 l 1,2,-1
 701 246 l 1,3,-1
 695 227 l 1,4,-1
 518 227 l 1,5,-1
 440 0 l 1,6,-1
 388 0 l 1,7,-1
 466 227 l 1,8,-1
 289 227 l 1,9,-1
 211 0 l 1,10,-1
 159 0 l 1,11,-1
 237 227 l 1,12,-1
 60 227 l 1,13,-1
 66 246 l 1,14,-1
 243 246 l 1,15,-1
 300 413 l 1,16,-1
 124 413 l 1,17,-1
 130 432 l 1,18,-1
 307 432 l 1,19,-1
 384 658 l 1,20,-1
 437 658 l 1,21,-1
 359 432 l 1,22,-1
 536 432 l 1,23,-1
 614 658 l 1,24,-1
 666 658 l 1,25,-1
 588 432 l 1,26,-1
 765 432 l 1,27,-1
 759 413 l 1,0,-1
472 246 m 1,28,-1
 529 413 l 1,29,-1
 353 413 l 1,30,-1
 296 246 l 1,31,-1
 472 246 l 1,28,-1
EndSplineSet
Validated: 1
EndChar

StartChar: dollar
Encoding: 36 36 7
Width: 577
GlyphClass: 1
Flags: W
LayerCount: 2
Fore
SplineSet
492.5 88.5 m 128,-1,1
 467 50 467 50 420 24.5 c 128,-1,2
 373 -1 373 -1 310 -5 c 1,3,-1
 310 -63 l 1,4,-1
 260 -63 l 1,5,-1
 260 -5 l 1,6,7
 198 0 198 0 142.5 28 c 128,-1,8
 87 56 87 56 61 105 c 1,9,-1
 73 121 l 1,10,11
 100 69 100 69 161 41.5 c 128,-1,12
 222 14 222 14 285 14 c 0,13,14
 339 14 339 14 380.5 32 c 128,-1,15
 422 50 422 50 445.5 81.5 c 128,-1,16
 469 113 469 113 469 152 c 0,17,18
 469 190 469 190 449 216 c 128,-1,19
 429 242 429 242 397 259.5 c 128,-1,20
 365 277 365 277 305 303 c 2,21,-1
 277 315 l 2,22,23
 195 351 195 351 151.5 375 c 128,-1,24
 108 399 108 399 84 428.5 c 128,-1,25
 60 458 60 458 60 499 c 0,26,27
 60 545 60 545 87 581 c 128,-1,28
 114 617 114 617 160 638 c 128,-1,29
 206 659 206 659 260 663 c 1,30,-1
 260 722 l 1,31,-1
 310 722 l 1,32,-1
 310 663 l 1,33,34
 371 657 371 657 422.5 626.5 c 128,-1,35
 474 596 474 596 497 549 c 1,36,-1
 484 533 l 1,37,38
 459 585 459 585 402 614.5 c 128,-1,39
 345 644 345 644 285 644 c 0,40,41
 235 644 235 644 194.5 627 c 128,-1,42
 154 610 154 610 131.5 580.5 c 128,-1,43
 109 551 109 551 109 515 c 0,44,45
 109 480 109 480 128 456 c 128,-1,46
 147 432 147 432 178.5 414.5 c 128,-1,47
 210 397 210 397 272 371 c 2,48,-1
 312 354 l 2,49,50
 385 322 385 322 426.5 298 c 128,-1,51
 468 274 468 274 493 243 c 128,-1,52
 518 212 518 212 518 170 c 0,53,0
 518 127 518 127 492.5 88.5 c 128,-1,1
EndSplineSet
Validated: 1
EndChar

StartChar: percent
Encoding: 37 37 8
Width: 645
GlyphClass: 1
Flags: W
LayerCount: 2
Fore
SplineSet
70 0 m 1,0,-1
 515 658 l 1,1,-1
 575 658 l 1,2,-1
 130 0 l 1,3,-1
 70 0 l 1,0,-1
237 491.5 m 128,-1,5
 266 520 266 520 266 560 c 0,6,7
 266 601 266 601 237.5 629.5 c 128,-1,8
 209 658 209 658 168 658 c 0,9,10
 128 658 128 658 99.5 629.5 c 128,-1,11
 71 601 71 601 71 560 c 0,12,13
 71 520 71 520 99.5 491.5 c 128,-1,14
 128 463 128 463 168 463 c 256,15,4
 208 463 208 463 237 491.5 c 128,-1,5
216 560 m 0,17,18
 216 483 216 483 168 483 c 0,19,20
 121 483 121 483 121 560 c 0,21,22
 121 638 121 638 168 638 c 0,23,16
 216 638 216 638 216 560 c 0,17,18
546.5 29.5 m 128,-1,25
 575 58 575 58 575 98 c 256,26,27
 575 138 575 138 546.5 166.5 c 128,-1,28
 518 195 518 195 478 195 c 0,29,30
 437 195 437 195 408.5 166.5 c 128,-1,31
 380 138 380 138 380 98 c 256,32,33
 380 58 380 58 408.5 29.5 c 128,-1,34
 437 1 437 1 478 1 c 0,35,24
 518 1 518 1 546.5 29.5 c 128,-1,25
525 98 m 256,37,38
 525 21 525 21 478 21 c 0,39,40
 430 21 430 21 430 98 c 256,41,42
 430 175 430 175 478 175 c 0,43,36
 525 175 525 175 525 98 c 256,37,38
EndSplineSet
Validated: 9
EndChar

StartChar: ampersand
Encoding: 38 38 9
Width: 787
GlyphClass: 1
Flags: W
LayerCount: 2
Fore
SplineSet
730 0 m 1,0,-1
 658 0 l 1,1,2
 620 37 620 37 515 133 c 1,3,4
 506 104 506 104 499 89 c 0,5,6
 491 68 491 68 476.5 45.5 c 128,-1,7
 462 23 462 23 442 7 c 0,8,9
 413 -17 413 -17 377 -29 c 128,-1,10
 341 -41 341 -41 302 -41 c 0,11,12
 257 -41 257 -41 215 -25 c 128,-1,13
 173 -9 173 -9 144 20 c 0,14,15
 117 47 117 47 103.5 81.5 c 128,-1,16
 90 116 90 116 90 154 c 0,17,18
 90 203 90 203 113 250 c 128,-1,19
 136 297 136 297 181 333 c 0,20,21
 212 358 212 358 252 372 c 1,22,-1
 256 374 l 1,23,-1
 255 375 l 2,24,25
 223 405 223 405 202 442 c 128,-1,26
 181 479 181 479 181 519 c 0,27,28
 181 528 181 528 182 533 c 0,29,30
 188 591 188 591 235.5 627.5 c 128,-1,31
 283 664 283 664 351 664 c 0,32,33
 390 664 390 664 423.5 646.5 c 128,-1,34
 457 629 457 629 477 599.5 c 128,-1,35
 497 570 497 570 497 536 c 0,36,37
 497 527 497 527 496 522 c 0,38,39
 486 459 486 459 425 421 c 0,40,41
 399 404 399 404 321 381 c 1,42,-1
 520 196 l 1,43,-1
 535 219 l 2,44,45
 556 248 556 248 590.5 271.5 c 128,-1,46
 625 295 625 295 665 307 c 1,47,-1
 665 285 l 1,48,49
 620 270 620 270 595 252 c 128,-1,50
 570 234 570 234 551 209 c 0,51,52
 543 199 543 199 535 182 c 1,53,-1
 730 0 l 1,0,-1
227 538 m 0,55,56
 227 469 227 469 310 392 c 1,57,-1
 363 410 l 2,58,59
 413 428 413 428 440.5 454.5 c 128,-1,60
 468 481 468 481 475 519 c 0,61,62
 476 524 476 524 476 535 c 0,63,64
 476 563 476 563 460.5 588.5 c 128,-1,65
 445 614 445 614 416.5 629.5 c 128,-1,66
 388 645 388 645 351 645 c 0,67,68
 305 645 305 645 274.5 626 c 128,-1,69
 244 607 244 607 233 575 c 0,70,54
 227 556 227 556 227 538 c 0,55,56
499 148 m 1,71,-1
 268 363 l 1,72,-1
 250 355 l 2,73,74
 214 339 214 339 183 310 c 0,75,76
 157 285 157 285 142 253 c 128,-1,77
 127 221 127 221 127 186 c 0,78,79
 127 119 127 119 183 59 c 0,80,81
 214 26 214 26 252.5 10 c 128,-1,82
 291 -6 291 -6 330 -6 c 0,83,84
 380 -6 380 -6 417 16 c 0,85,86
 462 43 462 43 485 106 c 2,87,-1
 499 148 l 1,71,-1
EndSplineSet
Validated: 1
EndChar

StartChar: quotesingle
Encoding: 39 39 10
Width: 161
GlyphClass: 1
Flags: W
LayerCount: 2
Fore
SplineSet
122.5 645 m 128,-1,1
 136 632 136 632 136 613 c 0,2,3
 136 607 136 607 135 602 c 0,4,5
 130 576 130 576 114 552 c 128,-1,6
 98 528 98 528 74 500 c 1,7,-1
 54 500 l 1,8,9
 62 513 62 513 70 532.5 c 128,-1,10
 78 552 78 552 80 570 c 1,11,12
 65 573 65 573 55 585 c 128,-1,13
 45 597 45 597 45 613 c 0,14,15
 45 632 45 632 58 645 c 128,-1,16
 71 658 71 658 89 658 c 0,17,0
 109 658 109 658 122.5 645 c 128,-1,1
EndSplineSet
Validated: 1
EndChar

StartChar: parenleft
Encoding: 40 40 11
Width: 286
GlyphClass: 1
Flags: W
LayerCount: 2
Fore
SplineSet
70 546.5 m 128,-1,1
 60 509 60 509 60 454 c 2,2,-1
 60 204 l 2,3,4
 60 149 60 149 70 111.5 c 128,-1,5
 80 74 80 74 105 47 c 0,6,7
 130 21 130 21 160 10.5 c 128,-1,8
 190 0 190 0 226 0 c 1,9,-1
 226 21 l 1,10,11
 177 22 177 22 143 63.5 c 128,-1,12
 109 105 109 105 109 204 c 2,13,-1
 109 454 l 2,14,15
 109 553 109 553 143 594.5 c 128,-1,16
 177 636 177 636 226 637 c 1,17,-1
 226 658 l 1,18,19
 190 658 190 658 160 647.5 c 128,-1,20
 130 637 130 637 105 611 c 0,21,0
 80 584 80 584 70 546.5 c 128,-1,1
EndSplineSet
Validated: 9
EndChar

StartChar: parenright
Encoding: 41 41 12
Width: 286
GlyphClass: 1
Flags: W
LayerCount: 2
Fore
SplineSet
126 647.5 m 128,-1,1
 96 658 96 658 60 658 c 1,2,-1
 60 637 l 1,3,4
 109 636 109 636 143 594.5 c 128,-1,5
 177 553 177 553 177 454 c 2,6,-1
 177 204 l 2,7,8
 177 105 177 105 143 63.5 c 128,-1,9
 109 22 109 22 60 21 c 1,10,-1
 60 0 l 1,11,12
 96 0 96 0 126 10.5 c 128,-1,13
 156 21 156 21 181 47 c 0,14,15
 206 74 206 74 216 111.5 c 128,-1,16
 226 149 226 149 226 204 c 2,17,-1
 226 454 l 2,18,19
 226 509 226 509 216 546.5 c 128,-1,20
 206 584 206 584 181 611 c 0,21,0
 156 637 156 637 126 647.5 c 128,-1,1
EndSplineSet
Validated: 9
EndChar

StartChar: asterisk
Encoding: 42 42 13
Width: 332
GlyphClass: 1
Flags: W
LayerCount: 2
Fore
SplineSet
268 578 m 1,0,-1
 184 566 l 1,1,-1
 245 507 l 1,2,-1
 205 478 l 1,3,-1
 168 554 l 1,4,-1
 131 478 l 1,5,-1
 91 507 l 1,6,-1
 152 566 l 1,7,-1
 68 578 l 1,8,-1
 83 624 l 1,9,-1
 158 585 l 1,10,-1
 143 668 l 1,11,-1
 192 668 l 1,12,-1
 178 585 l 1,13,-1
 253 624 l 1,14,-1
 268 578 l 1,0,-1
EndSplineSet
Validated: 1
EndChar

StartChar: plus
Encoding: 43 43 14
Width: 631
GlyphClass: 1
Flags: W
LayerCount: 2
Fore
SplineSet
550 340 m 1,0,-1
 550 320 l 1,1,-1
 75 320 l 1,2,-1
 75 340 l 1,3,-1
 550 340 l 1,0,-1
287 568 m 1,4,-1
 337 568 l 1,5,-1
 337 93 l 1,6,-1
 287 93 l 1,7,-1
 287 568 l 1,4,-1
EndSplineSet
Validated: 5
EndChar

StartChar: comma
Encoding: 44 44 15
Width: 231
GlyphClass: 1
Flags: W
LayerCount: 2
Fore
SplineSet
147.5 77 m 128,-1,1
 161 64 161 64 161 45 c 0,2,3
 161 39 161 39 160 34 c 0,4,5
 155 8 155 8 139 -16 c 128,-1,6
 123 -40 123 -40 99 -68 c 1,7,-1
 79 -68 l 1,8,9
 87 -55 87 -55 95 -35.5 c 128,-1,10
 103 -16 103 -16 105 2 c 1,11,12
 90 5 90 5 80 17 c 128,-1,13
 70 29 70 29 70 45 c 0,14,15
 70 64 70 64 83 77 c 128,-1,16
 96 90 96 90 114 90 c 0,17,0
 134 90 134 90 147.5 77 c 128,-1,1
EndSplineSet
Validated: 1
EndChar

StartChar: hyphen
Encoding: 45 45 16
Width: 508
GlyphClass: 1
Flags: W
LayerCount: 2
Fore
SplineSet
438 231 m 1,0,-1
 70 231 l 1,1,-1
 70 256 l 1,2,-1
 438 256 l 1,3,-1
 438 231 l 1,0,-1
EndSplineSet
Validated: 1
EndChar

StartChar: period
Encoding: 46 46 17
Width: 231
GlyphClass: 1
Flags: W
LayerCount: 2
Fore
SplineSet
147.5 77 m 128,-1,1
 134 90 134 90 114 90 c 0,2,3
 96 90 96 90 83 77 c 128,-1,4
 70 64 70 64 70 45 c 256,5,6
 70 26 70 26 83 13 c 128,-1,7
 96 0 96 0 114 0 c 0,8,9
 133 0 133 0 147 13 c 128,-1,10
 161 26 161 26 161 45 c 256,11,0
 161 64 161 64 147.5 77 c 128,-1,1
EndSplineSet
Validated: 9
EndChar

StartChar: slash
Encoding: 47 47 18
Width: 620
GlyphClass: 1
Flags: W
LayerCount: 2
Fore
SplineSet
60 0 m 1,0,-1
 505 658 l 1,1,-1
 565 658 l 1,2,-1
 120 0 l 1,3,-1
 60 0 l 1,0,-1
EndSplineSet
Validated: 1
EndChar

StartChar: zero
Encoding: 48 48 19
Width: 656
GlyphClass: 1
Flags: W
LayerCount: 2
Fore
SplineSet
574 240 m 2,0,1
 574 173 574 173 541 116.5 c 128,-1,2
 508 60 508 60 451.5 27 c 128,-1,3
 395 -6 395 -6 328 -6 c 256,4,5
 261 -6 261 -6 204.5 27 c 128,-1,6
 148 60 148 60 115 116.5 c 128,-1,7
 82 173 82 173 82 240 c 2,8,-1
 82 418 l 2,9,10
 82 485 82 485 115 541.5 c 128,-1,11
 148 598 148 598 204.5 631 c 128,-1,12
 261 664 261 664 328 664 c 256,13,14
 395 664 395 664 451.5 631 c 128,-1,15
 508 598 508 598 541 541.5 c 128,-1,16
 574 485 574 485 574 418 c 2,17,-1
 574 240 l 2,0,1
434 47.5 m 128,-1,19
 477 80 477 80 498 131.5 c 128,-1,20
 519 183 519 183 519 240 c 2,21,-1
 519 418 l 2,22,23
 519 475 519 475 498 526.5 c 128,-1,24
 477 578 477 578 434 610.5 c 128,-1,25
 391 643 391 643 328 643 c 0,26,27
 264 643 264 643 221 610.5 c 128,-1,28
 178 578 178 578 157.5 526.5 c 128,-1,29
 137 475 137 475 137 418 c 2,30,-1
 137 240 l 2,31,32
 137 183 137 183 157.5 131.5 c 128,-1,33
 178 80 178 80 221 47.5 c 128,-1,34
 264 15 264 15 328 15 c 0,35,18
 391 15 391 15 434 47.5 c 128,-1,19
EndSplineSet
Validated: 1
EndChar

StartChar: one
Encoding: 49 49 20
Width: 395
GlyphClass: 1
Flags: W
LayerCount: 2
Fore
SplineSet
292 658 m 1,0,-1
 312 658 l 1,1,-1
 312 0 l 1,2,-1
 262 0 l 1,3,-1
 262 610 l 1,4,-1
 44 444 l 1,5,-1
 44 469 l 1,6,-1
 292 658 l 1,0,-1
EndSplineSet
Validated: 1
EndChar

StartChar: two
Encoding: 50 50 21
Width: 635
GlyphClass: 1
Flags: W
LayerCount: 2
Fore
SplineSet
570 0 m 1,0,-1
 65 0 l 1,1,-1
 375 304 l 2,2,3
 416 344 416 344 437.5 368 c 128,-1,4
 459 392 459 392 473 422.5 c 128,-1,5
 487 453 487 453 487 491 c 0,6,7
 487 518 487 518 470.5 553.5 c 128,-1,8
 454 589 454 589 415.5 616 c 128,-1,9
 377 643 377 643 314 643 c 256,10,11
 251 643 251 643 202 613.5 c 128,-1,12
 153 584 153 584 125.5 533 c 128,-1,13
 98 482 98 482 98 418 c 1,14,-1
 77 418 l 1,15,16
 77 485 77 485 108 541.5 c 128,-1,17
 139 598 139 598 193 631 c 128,-1,18
 247 664 247 664 314 664 c 0,19,20
 371 664 371 664 412.5 647 c 128,-1,21
 454 630 454 630 482 603 c 0,22,23
 541 542 541 542 541 477 c 0,24,25
 541 428 541 428 516 387.5 c 128,-1,26
 491 347 491 347 454 311 c 2,27,-1
 156 21 l 1,28,-1
 570 21 l 1,29,-1
 570 0 l 1,0,-1
EndSplineSet
Validated: 1
EndChar

StartChar: three
Encoding: 51 51 22
Width: 626
GlyphClass: 1
Flags: W
LayerCount: 2
Fore
SplineSet
456.5 393 m 128,-1,1
 504 360 504 360 531.5 312.5 c 128,-1,2
 559 265 559 265 559 216 c 0,3,4
 559 162 559 162 526 110.5 c 128,-1,5
 493 59 493 59 436.5 26.5 c 128,-1,6
 380 -6 380 -6 314 -6 c 0,7,8
 247 -6 247 -6 190.5 27 c 128,-1,9
 134 60 134 60 101 116.5 c 128,-1,10
 68 173 68 173 68 240 c 1,11,-1
 89 240 l 1,12,13
 89 179 89 179 119.5 127.5 c 128,-1,14
 150 76 150 76 201.5 45.5 c 128,-1,15
 253 15 253 15 314 15 c 0,16,17
 373 15 373 15 416 45.5 c 128,-1,18
 459 76 459 76 481.5 123 c 128,-1,19
 504 170 504 170 504 216 c 0,20,21
 504 263 504 263 481.5 309 c 128,-1,22
 459 355 459 355 416 385 c 128,-1,23
 373 415 373 415 314 415 c 0,24,25
 284 415 284 415 268 413 c 1,26,-1
 450 637 l 1,27,-1
 87 637 l 1,28,-1
 87 658 l 1,29,-1
 531 658 l 1,30,-1
 351 435 l 1,31,0
 409 426 409 426 456.5 393 c 128,-1,1
EndSplineSet
Validated: 1
EndChar

StartChar: four
Encoding: 52 52 23
Width: 622
GlyphClass: 1
Flags: W
LayerCount: 2
Fore
SplineSet
582 205 m 1,0,-1
 582 185 l 1,1,-1
 500 185 l 1,2,-1
 500 0 l 1,3,-1
 450 0 l 1,4,-1
 450 185 l 1,5,-1
 44 185 l 1,6,-1
 450 658 l 1,7,-1
 500 658 l 1,8,-1
 500 205 l 1,9,-1
 582 205 l 1,0,-1
87 205 m 1,10,-1
 450 205 l 1,11,-1
 450 627 l 1,12,-1
 87 205 l 1,10,-1
EndSplineSet
Validated: 1
EndChar

StartChar: five
Encoding: 53 53 24
Width: 635
GlyphClass: 1
Flags: W
LayerCount: 2
Fore
SplineSet
437.5 405.5 m 128,-1,1
 494 373 494 373 527 321.5 c 128,-1,2
 560 270 560 270 560 216 c 256,3,4
 560 162 560 162 527 110.5 c 128,-1,5
 494 59 494 59 437.5 26.5 c 128,-1,6
 381 -6 381 -6 315 -6 c 0,7,8
 248 -6 248 -6 191.5 27 c 128,-1,9
 135 60 135 60 102 116.5 c 128,-1,10
 69 173 69 173 69 240 c 1,11,-1
 90 240 l 1,12,13
 90 179 90 179 120.5 127.5 c 128,-1,14
 151 76 151 76 202.5 45.5 c 128,-1,15
 254 15 254 15 315 15 c 0,16,17
 374 15 374 15 417 45.5 c 128,-1,18
 460 76 460 76 482.5 123 c 128,-1,19
 505 170 505 170 505 216 c 0,20,21
 505 263 505 263 482.5 309.5 c 128,-1,22
 460 356 460 356 417 386.5 c 128,-1,23
 374 417 374 417 315 417 c 0,24,25
 289 417 289 417 264.5 411.5 c 128,-1,26
 240 406 240 406 211 396 c 0,27,28
 179 384 179 384 156 374.5 c 128,-1,29
 133 365 133 365 127 362 c 1,30,-1
 244 658 l 1,31,-1
 526 658 l 1,32,-1
 526 637 l 1,33,-1
 288 637 l 1,34,-1
 200 413 l 1,35,36
 225 423 225 423 258 430.5 c 128,-1,37
 291 438 291 438 315 438 c 0,38,0
 381 438 381 438 437.5 405.5 c 128,-1,1
EndSplineSet
Validated: 1
EndChar

StartChar: six
Encoding: 54 54 25
Width: 641
GlyphClass: 1
Flags: W
LayerCount: 2
Fore
SplineSet
118 340 m 2,1,-1
 302 658 l 1,2,-1
 358 658 l 1,3,-1
 222 416 l 1,4,5
 271 438 271 438 321 438 c 0,6,7
 387 438 387 438 443.5 407.5 c 128,-1,8
 500 377 500 377 533 325.5 c 128,-1,9
 566 274 566 274 566 216 c 0,10,11
 566 157 566 157 533 106 c 128,-1,12
 500 55 500 55 444 24.5 c 128,-1,13
 388 -6 388 -6 321 -6 c 0,14,15
 255 -6 255 -6 199 24.5 c 128,-1,16
 143 55 143 55 111 106 c 128,-1,17
 79 157 79 157 79 216 c 0,18,0
 79 273 79 273 118 340 c 2,1,-1
241 398 m 128,-1,20
 206 379 206 379 189 354 c 0,21,22
 168 323 168 323 153 290 c 128,-1,23
 138 257 138 257 134 217 c 0,24,25
 133 210 133 210 133 203 c 0,26,27
 133 166 133 166 152 126 c 0,28,29
 174 78 174 78 218 46.5 c 128,-1,30
 262 15 262 15 321 15 c 0,31,32
 379 15 379 15 422.5 45.5 c 128,-1,33
 466 76 466 76 488.5 122.5 c 128,-1,34
 511 169 511 169 511 216 c 0,35,36
 511 262 511 262 488.5 309 c 128,-1,37
 466 356 466 356 422.5 386.5 c 128,-1,38
 379 417 379 417 321 417 c 0,39,19
 276 417 276 417 241 398 c 128,-1,20
EndSplineSet
Validated: 1
EndChar

StartChar: seven
Encoding: 55 55 26
Width: 602
GlyphClass: 1
Flags: W
LayerCount: 2
Fore
SplineSet
545 658 m 1,0,-1
 180 0 l 1,1,-1
 124 0 l 1,2,-1
 477 637 l 1,3,-1
 56 637 l 1,4,-1
 56 658 l 1,5,-1
 545 658 l 1,0,-1
EndSplineSet
Validated: 1
EndChar

StartChar: eight
Encoding: 56 56 27
Width: 660
GlyphClass: 1
Flags: W
LayerCount: 2
Fore
SplineSet
531.5 413 m 128,-1,1
 498 376 498 376 444 356.5 c 128,-1,2
 390 337 390 337 330 337 c 0,3,4
 274 337 274 337 219.5 356.5 c 128,-1,5
 165 376 165 376 130 413.5 c 128,-1,6
 95 451 95 451 95 500 c 0,7,8
 95 551 95 551 128.5 588 c 128,-1,9
 162 625 162 625 216 644.5 c 128,-1,10
 270 664 270 664 330 664 c 0,11,12
 395 664 395 664 448.5 644.5 c 128,-1,13
 502 625 502 625 533.5 588 c 128,-1,14
 565 551 565 551 565 500 c 0,15,0
 565 450 565 450 531.5 413 c 128,-1,1
417.5 374 m 128,-1,17
 459 390 459 390 484.5 422 c 128,-1,18
 510 454 510 454 510 500 c 0,19,20
 510 545 510 545 484.5 577.5 c 128,-1,21
 459 610 459 610 417.5 626.5 c 128,-1,22
 376 643 376 643 330 643 c 0,23,24
 289 643 289 643 247 626.5 c 128,-1,25
 205 610 205 610 177.5 577.5 c 128,-1,26
 150 545 150 545 150 500 c 256,27,28
 150 455 150 455 177.5 422.5 c 128,-1,29
 205 390 205 390 246.5 374 c 128,-1,30
 288 358 288 358 330 358 c 0,31,16
 376 358 376 358 417.5 374 c 128,-1,17
550 80.5 m 128,-1,33
 515 39 515 39 456.5 16.5 c 128,-1,34
 398 -6 398 -6 330 -6 c 0,35,36
 266 -6 266 -6 207.5 16.5 c 128,-1,37
 149 39 149 39 112 80.5 c 128,-1,38
 75 122 75 122 75 176 c 0,39,40
 75 232 75 232 110 273 c 128,-1,41
 145 314 145 314 203 336 c 128,-1,42
 261 358 261 358 330 358 c 0,43,44
 403 358 403 358 460.5 336 c 128,-1,45
 518 314 518 314 551.5 273 c 128,-1,46
 585 232 585 232 585 176 c 0,47,32
 585 122 585 122 550 80.5 c 128,-1,33
430 36 m 128,-1,49
 476 57 476 57 503 93.5 c 128,-1,50
 530 130 530 130 530 176 c 256,51,52
 530 222 530 222 503 258.5 c 128,-1,53
 476 295 476 295 430 316 c 128,-1,54
 384 337 384 337 330 337 c 0,55,56
 281 337 281 337 234.5 316 c 128,-1,57
 188 295 188 295 159 258 c 128,-1,58
 130 221 130 221 130 176 c 256,59,60
 130 131 130 131 159 94 c 128,-1,61
 188 57 188 57 234.5 36 c 128,-1,62
 281 15 281 15 330 15 c 0,63,48
 384 15 384 15 430 36 c 128,-1,49
EndSplineSet
Validated: 5
EndChar

StartChar: nine
Encoding: 57 57 28
Width: 641
GlyphClass: 1
Flags: W
LayerCount: 2
Fore
SplineSet
523 318 m 2,1,-1
 339 0 l 1,2,-1
 283 0 l 1,3,-1
 419 242 l 1,4,5
 370 220 370 220 320 220 c 0,6,7
 254 220 254 220 197.5 250.5 c 128,-1,8
 141 281 141 281 108 332.5 c 128,-1,9
 75 384 75 384 75 442 c 0,10,11
 75 501 75 501 108 552 c 128,-1,12
 141 603 141 603 197 633.5 c 128,-1,13
 253 664 253 664 320 664 c 0,14,15
 386 664 386 664 442 633.5 c 128,-1,16
 498 603 498 603 530 552 c 128,-1,17
 562 501 562 501 562 442 c 0,18,0
 562 385 562 385 523 318 c 2,1,-1
400 260 m 128,-1,20
 435 279 435 279 452 304 c 0,21,22
 473 335 473 335 488 368 c 128,-1,23
 503 401 503 401 507 441 c 0,24,25
 508 448 508 448 508 455 c 0,26,27
 508 492 508 492 489 532 c 0,28,29
 467 580 467 580 423 611.5 c 128,-1,30
 379 643 379 643 320 643 c 0,31,32
 262 643 262 643 218.5 612.5 c 128,-1,33
 175 582 175 582 152.5 535.5 c 128,-1,34
 130 489 130 489 130 442 c 0,35,36
 130 396 130 396 152.5 349 c 128,-1,37
 175 302 175 302 218.5 271.5 c 128,-1,38
 262 241 262 241 320 241 c 0,39,19
 365 241 365 241 400 260 c 128,-1,20
EndSplineSet
Validated: 1
EndChar

StartChar: colon
Encoding: 58 58 29
Width: 231
GlyphClass: 1
Flags: W
LayerCount: 2
Fore
SplineSet
147.5 77 m 128,-1,1
 134 90 134 90 114 90 c 0,2,3
 96 90 96 90 83 77 c 128,-1,4
 70 64 70 64 70 45 c 256,5,6
 70 26 70 26 83 13 c 128,-1,7
 96 0 96 0 114 0 c 0,8,9
 133 0 133 0 147 13 c 128,-1,10
 161 26 161 26 161 45 c 256,11,0
 161 64 161 64 147.5 77 c 128,-1,1
147.5 331 m 128,-1,13
 134 344 134 344 114 344 c 0,14,15
 96 344 96 344 83 331 c 128,-1,16
 70 318 70 318 70 299 c 256,17,18
 70 280 70 280 83 267 c 128,-1,19
 96 254 96 254 114 254 c 0,20,21
 133 254 133 254 147 267 c 128,-1,22
 161 280 161 280 161 299 c 256,23,12
 161 318 161 318 147.5 331 c 128,-1,13
EndSplineSet
Validated: 9
EndChar

StartChar: semicolon
Encoding: 59 59 30
Width: 231
GlyphClass: 1
Flags: W
LayerCount: 2
Fore
SplineSet
147.5 331 m 128,-1,1
 134 344 134 344 114 344 c 0,2,3
 96 344 96 344 83 331 c 128,-1,4
 70 318 70 318 70 299 c 256,5,6
 70 280 70 280 83 267 c 128,-1,7
 96 254 96 254 114 254 c 0,8,9
 133 254 133 254 147 267 c 128,-1,10
 161 280 161 280 161 299 c 256,11,0
 161 318 161 318 147.5 331 c 128,-1,1
147.5 77 m 128,-1,13
 161 64 161 64 161 45 c 0,14,15
 161 39 161 39 160 34 c 0,16,17
 155 8 155 8 139 -16 c 128,-1,18
 123 -40 123 -40 99 -68 c 1,19,-1
 79 -68 l 1,20,21
 87 -55 87 -55 95 -35.5 c 128,-1,22
 103 -16 103 -16 105 2 c 1,23,24
 90 5 90 5 80 17 c 128,-1,25
 70 29 70 29 70 45 c 0,26,27
 70 64 70 64 83 77 c 128,-1,28
 96 90 96 90 114 90 c 0,29,12
 134 90 134 90 147.5 77 c 128,-1,13
EndSplineSet
Validated: 9
EndChar

StartChar: less
Encoding: 60 60 31
Width: 579
GlyphClass: 1
Flags: W
LayerCount: 2
Fore
SplineSet
60 330 m 1,0,-1
 497 567 l 1,1,-1
 497 511 l 1,2,-1
 133 313 l 1,3,-1
 497 115 l 1,4,-1
 497 92 l 1,5,-1
 60 330 l 1,0,-1
EndSplineSet
Validated: 1
EndChar

StartChar: equal
Encoding: 61 61 32
Width: 503
GlyphClass: 1
Flags: W
LayerCount: 2
Fore
SplineSet
428 257 m 1,0,-1
 75 257 l 1,1,-1
 75 282 l 1,2,-1
 428 282 l 1,3,-1
 428 257 l 1,0,-1
428 384 m 1,4,-1
 75 384 l 1,5,-1
 75 409 l 1,6,-1
 428 409 l 1,7,-1
 428 384 l 1,4,-1
EndSplineSet
Validated: 1
EndChar

StartChar: greater
Encoding: 62 62 33
Width: 579
GlyphClass: 1
Flags: W
LayerCount: 2
Fore
SplineSet
519 330 m 1,0,-1
 82 92 l 1,1,-1
 82 115 l 1,2,-1
 446 313 l 1,3,-1
 82 511 l 1,4,-1
 82 567 l 1,5,-1
 519 330 l 1,0,-1
EndSplineSet
Validated: 1
EndChar

StartChar: question
Encoding: 63 63 34
Width: 487
GlyphClass: 1
Flags: W
LayerCount: 2
Fore
SplineSet
335.5 639 m 128,-1,1
 380 614 380 614 404.5 573 c 128,-1,2
 429 532 429 532 429 484 c 0,3,4
 429 440 429 440 412.5 409 c 128,-1,5
 396 378 396 378 373 359 c 128,-1,6
 350 340 350 340 315 318 c 0,7,8
 291 303 291 303 285 298 c 0,9,10
 249 273 249 273 237 252.5 c 128,-1,11
 225 232 225 232 224 199 c 2,12,-1
 224 189 l 1,13,-1
 204 189 l 1,14,-1
 204 199 l 2,15,16
 204 231 204 231 210 259.5 c 128,-1,17
 216 288 216 288 241 309 c 2,18,-1
 274 337 l 2,19,20
 305 363 305 363 335 391 c 0,21,22
 375 431 375 431 375 493 c 0,23,24
 375 535 375 535 353.5 568.5 c 128,-1,25
 332 602 332 602 296 621 c 128,-1,26
 260 640 260 640 216 640 c 0,27,28
 134 640 134 640 87 557 c 0,29,30
 74 535 74 535 66 497 c 1,31,-1
 50 497 l 1,32,33
 51 511 51 511 58 530.5 c 128,-1,34
 65 550 65 550 73 567 c 0,35,36
 91 601 91 601 129.5 632.5 c 128,-1,37
 168 664 168 664 234 664 c 0,38,0
 291 664 291 664 335.5 639 c 128,-1,1
247.5 77 m 128,-1,40
 261 64 261 64 261 45 c 256,41,42
 261 26 261 26 247 13 c 128,-1,43
 233 0 233 0 214 0 c 0,44,45
 196 0 196 0 183 13 c 128,-1,46
 170 26 170 26 170 45 c 256,47,48
 170 64 170 64 183 77 c 128,-1,49
 196 90 196 90 214 90 c 0,50,39
 234 90 234 90 247.5 77 c 128,-1,40
EndSplineSet
Validated: 1
EndChar

StartChar: at
Encoding: 64 64 35
Width: 756
GlyphClass: 1
Flags: W
LayerCount: 2
Fore
SplineSet
544.5 619 m 128,-1,1
 621 574 621 574 666 497 c 128,-1,2
 711 420 711 420 711 329 c 2,3,-1
 711 308 l 2,4,5
 711 271 711 271 692.5 239.5 c 128,-1,6
 674 208 674 208 642.5 189.5 c 128,-1,7
 611 171 611 171 574 171 c 0,8,9
 536 171 536 171 505.5 187.5 c 128,-1,10
 475 204 475 204 459 233 c 1,11,12
 418 194 418 194 364 194 c 0,13,14
 328 194 328 194 297 212.5 c 128,-1,15
 266 231 266 231 247.5 262 c 128,-1,16
 229 293 229 293 229 329 c 0,17,18
 229 366 229 366 247.5 397 c 128,-1,19
 266 428 266 428 297 446 c 128,-1,20
 328 464 328 464 364 464 c 0,21,22
 408 464 408 464 442 439 c 1,23,-1
 442 458 l 1,24,-1
 490 458 l 1,25,-1
 490 290 l 2,26,27
 490 248 490 248 510.5 219.5 c 128,-1,28
 531 191 531 191 574 191 c 0,29,30
 620 191 620 191 638 225.5 c 128,-1,31
 656 260 656 260 656 306 c 2,32,-1
 656 329 l 2,33,34
 656 407 656 407 620 480 c 128,-1,35
 584 553 584 553 520 598.5 c 128,-1,36
 456 644 456 644 378 644 c 256,37,38
 300 644 300 644 236 598.5 c 128,-1,39
 172 553 172 553 136 480 c 128,-1,40
 100 407 100 407 100 329 c 0,41,42
 100 250 100 250 136.5 177 c 128,-1,43
 173 104 173 104 236.5 59 c 128,-1,44
 300 14 300 14 378 14 c 0,45,46
 429 14 429 14 474.5 34 c 128,-1,47
 520 54 520 54 556 90 c 1,48,49
 568 86 568 86 586 86 c 0,50,51
 595 86 595 86 609 88 c 1,52,53
 564 44 564 44 504 19 c 128,-1,54
 444 -6 444 -6 378 -6 c 0,55,56
 288 -6 288 -6 211.5 39 c 128,-1,57
 135 84 135 84 90 161 c 128,-1,58
 45 238 45 238 45 329 c 256,59,60
 45 420 45 420 90 497 c 128,-1,61
 135 574 135 574 211.5 619 c 128,-1,62
 288 664 288 664 378 664 c 256,63,0
 468 664 468 664 544.5 619 c 128,-1,1
411.5 224 m 128,-1,65
 434 234 434 234 450 252 c 1,66,67
 442 273 442 273 442 296 c 2,68,-1
 442 414 l 1,69,70
 410 444 410 444 364 444 c 0,71,72
 322 444 322 444 300.5 412 c 128,-1,73
 279 380 279 380 279 329 c 0,74,75
 279 279 279 279 300.5 246.5 c 128,-1,76
 322 214 322 214 364 214 c 0,77,64
 389 214 389 214 411.5 224 c 128,-1,65
EndSplineSet
Validated: 1
EndChar

StartChar: A
Encoding: 65 65 36
Width: 685
GlyphClass: 1
Flags: W
LayerCount: 2
Fore
SplineSet
350 664 m 1,0,-1
 640 0 l 1,1,-1
 586 0 l 1,2,-1
 502 191 l 1,3,-1
 155 191 l 1,4,-1
 67 0 l 1,5,-1
 45 0 l 1,6,-1
 350 664 l 1,0,-1
164 211 m 1,7,-1
 494 211 l 1,8,-1
 333 579 l 1,9,-1
 164 211 l 1,7,-1
EndSplineSet
Validated: 1
EndChar

StartChar: B
Encoding: 66 66 37
Width: 637
GlyphClass: 1
Flags: W
LayerCount: 2
Fore
SplineSet
571 245 m 128,-1,1
 587 214 587 214 587 182 c 0,2,3
 587 152 587 152 571 118.5 c 128,-1,4
 555 85 555 85 524 58 c 0,5,6
 491 29 491 29 445.5 14.5 c 128,-1,7
 400 0 400 0 336 0 c 2,8,-1
 83 0 l 1,9,-1
 83 658 l 1,10,-1
 310 658 l 2,11,12
 357 658 357 658 398 646.5 c 128,-1,13
 439 635 439 635 464 616 c 0,14,15
 490 595 490 595 506.5 564.5 c 128,-1,16
 523 534 523 534 523 499 c 256,17,18
 523 464 523 464 506.5 433.5 c 128,-1,19
 490 403 490 403 464 382 c 0,20,21
 437 361 437 361 418 355 c 1,22,23
 443 351 443 351 474 336 c 128,-1,24
 505 321 505 321 526 302 c 0,25,0
 555 276 555 276 571 245 c 128,-1,1
133 360 m 1,26,-1
 300 360 l 2,27,28
 367 360 367 360 418 390.5 c 128,-1,29
 469 421 469 421 469 499 c 256,30,31
 469 577 469 577 418 607.5 c 128,-1,32
 367 638 367 638 300 638 c 2,33,-1
 133 638 l 1,34,-1
 133 360 l 1,26,-1
473.5 61 m 128,-1,36
 533 102 533 102 533 187 c 0,37,38
 533 228 533 228 508.5 263 c 128,-1,39
 484 298 484 298 438 319 c 128,-1,40
 392 340 392 340 331 340 c 2,41,-1
 133 340 l 1,42,-1
 133 20 l 1,43,-1
 325 20 l 2,44,35
 414 20 414 20 473.5 61 c 128,-1,36
EndSplineSet
Validated: 1
EndChar

StartChar: C
Encoding: 67 67 38
Width: 677
GlyphClass: 1
Flags: W
LayerCount: 2
Fore
SplineSet
632 111 m 1,0,1
 584 55 584 55 518.5 24.5 c 128,-1,2
 453 -6 453 -6 378 -6 c 0,3,4
 288 -6 288 -6 211.5 39 c 128,-1,5
 135 84 135 84 90 161 c 128,-1,6
 45 238 45 238 45 329 c 256,7,8
 45 420 45 420 90 497 c 128,-1,9
 135 574 135 574 211.5 619 c 128,-1,10
 288 664 288 664 378 664 c 0,11,12
 448 664 448 664 510.5 636.5 c 128,-1,13
 573 609 573 609 621 558 c 1,14,-1
 607 544 l 1,15,16
 510 644 510 644 378 644 c 0,17,18
 300 644 300 644 236 598.5 c 128,-1,19
 172 553 172 553 136 480 c 128,-1,20
 100 407 100 407 100 329 c 0,21,22
 100 250 100 250 136.5 177 c 128,-1,23
 173 104 173 104 236.5 59 c 128,-1,24
 300 14 300 14 378 14 c 0,25,26
 521 14 521 14 618 126 c 1,27,-1
 632 111 l 1,0,1
EndSplineSet
Validated: 1
EndChar

StartChar: D
Encoding: 68 68 39
Width: 661
GlyphClass: 1
Flags: W
LayerCount: 2
Fore
SplineSet
440.5 614.5 m 128,-1,1
 517 571 517 571 561.5 495.5 c 128,-1,2
 606 420 606 420 606 329 c 256,3,4
 606 238 606 238 561.5 162.5 c 128,-1,5
 517 87 517 87 440.5 43.5 c 128,-1,6
 364 0 364 0 273 0 c 2,7,-1
 83 0 l 1,8,-1
 83 658 l 1,9,-1
 273 658 l 2,10,0
 364 658 364 658 440.5 614.5 c 128,-1,1
414.5 64 m 128,-1,12
 478 108 478 108 514.5 179 c 128,-1,13
 551 250 551 250 551 329 c 0,14,15
 551 406 551 406 515 477.5 c 128,-1,16
 479 549 479 549 415.5 593.5 c 128,-1,17
 352 638 352 638 273 638 c 2,18,-1
 132 638 l 1,19,-1
 132 20 l 1,20,-1
 273 20 l 2,21,11
 351 20 351 20 414.5 64 c 128,-1,12
EndSplineSet
Validated: 1
EndChar

StartChar: E
Encoding: 69 69 40
Width: 558
GlyphClass: 1
Flags: W
LayerCount: 2
Fore
SplineSet
498 638 m 1,0,-1
 131 638 l 1,1,-1
 131 339 l 1,2,-1
 423 339 l 1,3,-1
 423 319 l 1,4,-1
 131 319 l 1,5,-1
 131 20 l 1,6,-1
 498 20 l 1,7,-1
 498 0 l 1,8,-1
 82 0 l 1,9,-1
 82 658 l 1,10,-1
 498 658 l 1,11,-1
 498 638 l 1,0,-1
EndSplineSet
Validated: 1
EndChar

StartChar: F
Encoding: 70 70 41
Width: 552
GlyphClass: 1
Flags: W
LayerCount: 2
Fore
SplineSet
497 638 m 1,0,-1
 131 638 l 1,1,-1
 131 339 l 1,2,-1
 422 339 l 1,3,-1
 422 319 l 1,4,-1
 131 319 l 1,5,-1
 131 0 l 1,6,-1
 81 0 l 1,7,-1
 81 658 l 1,8,-1
 497 658 l 1,9,-1
 497 638 l 1,0,-1
EndSplineSet
Validated: 1
EndChar

StartChar: G
Encoding: 71 71 42
Width: 709
GlyphClass: 1
Flags: W
LayerCount: 2
Fore
SplineSet
627 318 m 1,0,-1
 627 0 l 1,1,-1
 383 0 l 2,2,3
 292 0 292 0 215.5 43.5 c 128,-1,4
 139 87 139 87 94.5 162.5 c 128,-1,5
 50 238 50 238 50 329 c 256,6,7
 50 420 50 420 95 497 c 128,-1,8
 140 574 140 574 216.5 619 c 128,-1,9
 293 664 293 664 383 664 c 0,10,11
 453 664 453 664 515.5 636.5 c 128,-1,12
 578 609 578 609 626 558 c 1,13,-1
 612 544 l 1,14,15
 515 644 515 644 383 644 c 0,16,17
 305 644 305 644 241 598.5 c 128,-1,18
 177 553 177 553 141 480 c 128,-1,19
 105 407 105 407 105 329 c 0,20,21
 105 250 105 250 141.5 179 c 128,-1,22
 178 108 178 108 241.5 64 c 128,-1,23
 305 20 305 20 383 20 c 2,24,-1
 577 20 l 1,25,-1
 577 298 l 1,26,-1
 358 298 l 1,27,-1
 358 318 l 1,28,-1
 627 318 l 1,0,-1
EndSplineSet
Validated: 1
EndChar

StartChar: H
Encoding: 72 72 43
Width: 669
GlyphClass: 1
Flags: W
LayerCount: 2
Fore
SplineSet
537 658 m 1,0,-1
 587 658 l 1,1,-1
 587 0 l 1,2,-1
 537 0 l 1,3,-1
 537 318 l 1,4,-1
 132 318 l 1,5,-1
 132 0 l 1,6,-1
 82 0 l 1,7,-1
 82 658 l 1,8,-1
 132 658 l 1,9,-1
 132 338 l 1,10,-1
 537 338 l 1,11,-1
 537 658 l 1,0,-1
EndSplineSet
Validated: 1
EndChar

StartChar: I
Encoding: 73 73 44
Width: 230
GlyphClass: 1
Flags: W
LayerCount: 2
Fore
SplineSet
140 658 m 1,0,-1
 140 0 l 1,1,-1
 90 0 l 1,2,-1
 90 658 l 1,3,-1
 140 658 l 1,0,-1
EndSplineSet
Validated: 1
EndChar

StartChar: J
Encoding: 74 74 45
Width: 517
GlyphClass: 1
Flags: W
LayerCount: 2
Fore
SplineSet
440 658 m 1,0,-1
 440 274 l 2,1,2
 440 125 440 125 357 52 c 0,3,4
 316 16 316 16 277 5 c 128,-1,5
 238 -6 238 -6 198 -6 c 0,6,7
 145 -6 145 -6 99 15 c 128,-1,8
 53 36 53 36 25 77 c 1,9,-1
 43 88 l 1,10,11
 69 51 69 51 109 32.5 c 128,-1,12
 149 14 149 14 198 14 c 0,13,14
 245 14 245 14 289 37 c 128,-1,15
 333 60 333 60 361.5 111.5 c 128,-1,16
 390 163 390 163 390 245 c 2,17,-1
 390 658 l 1,18,-1
 440 658 l 1,0,-1
EndSplineSet
Validated: 1
EndChar

StartChar: K
Encoding: 75 75 46
Width: 635
GlyphClass: 1
Flags: W
LayerCount: 2
Fore
SplineSet
338 337 m 1,0,-1
 585 0 l 1,1,-1
 524 0 l 1,2,-1
 308 294 l 1,3,-1
 101 0 l 1,4,-1
 81 0 l 1,5,-1
 81 658 l 1,6,-1
 131 658 l 1,7,-1
 131 77 l 1,8,-1
 539 658 l 1,9,-1
 564 658 l 1,10,-1
 338 337 l 1,0,-1
EndSplineSet
Validated: 1
EndChar

StartChar: L
Encoding: 76 76 47
Width: 568
GlyphClass: 1
Flags: W
LayerCount: 2
Fore
SplineSet
132 20 m 1,0,-1
 498 20 l 1,1,-1
 498 0 l 1,2,-1
 82 0 l 1,3,-1
 82 658 l 1,4,-1
 132 658 l 1,5,-1
 132 20 l 1,0,-1
EndSplineSet
Validated: 1
EndChar

StartChar: M
Encoding: 77 77 48
Width: 733
GlyphClass: 1
Flags: W
LayerCount: 2
Fore
SplineSet
602 658 m 1,0,-1
 652 658 l 1,1,-1
 652 0 l 1,2,-1
 602 0 l 1,3,-1
 602 609 l 1,4,-1
 368 85 l 1,5,-1
 102 618 l 1,6,-1
 102 0 l 1,7,-1
 82 0 l 1,8,-1
 82 658 l 1,9,-1
 138 658 l 1,10,-1
 383 167 l 1,11,-1
 602 658 l 1,0,-1
EndSplineSet
Validated: 1
EndChar

StartChar: N
Encoding: 78 78 49
Width: 668
GlyphClass: 1
Flags: W
LayerCount: 2
Fore
SplineSet
587 658 m 1,0,-1
 587 0 l 1,1,-1
 567 0 l 1,2,-1
 103 579 l 1,3,-1
 103 0 l 1,4,-1
 83 0 l 1,5,-1
 83 658 l 1,6,-1
 103 658 l 1,7,-1
 567 79 l 1,8,-1
 567 658 l 1,9,-1
 587 658 l 1,0,-1
EndSplineSet
Validated: 1
EndChar

StartChar: O
Encoding: 79 79 50
Width: 766
GlyphClass: 1
Flags: W
LayerCount: 2
Fore
SplineSet
549.5 619 m 128,-1,1
 626 574 626 574 671 497 c 128,-1,2
 716 420 716 420 716 329 c 256,3,4
 716 238 716 238 671 161 c 128,-1,5
 626 84 626 84 549.5 39 c 128,-1,6
 473 -6 473 -6 383 -6 c 256,7,8
 293 -6 293 -6 216.5 39 c 128,-1,9
 140 84 140 84 95 161 c 128,-1,10
 50 238 50 238 50 329 c 256,11,12
 50 420 50 420 95 497 c 128,-1,13
 140 574 140 574 216.5 619 c 128,-1,14
 293 664 293 664 383 664 c 256,15,0
 473 664 473 664 549.5 619 c 128,-1,1
241 598.5 m 128,-1,17
 177 553 177 553 141 480 c 128,-1,18
 105 407 105 407 105 329 c 0,19,20
 105 250 105 250 141.5 177 c 128,-1,21
 178 104 178 104 241.5 59 c 128,-1,22
 305 14 305 14 383 14 c 256,23,24
 461 14 461 14 524.5 59 c 128,-1,25
 588 104 588 104 624.5 177 c 128,-1,26
 661 250 661 250 661 329 c 0,27,28
 661 407 661 407 625 480 c 128,-1,29
 589 553 589 553 525 598.5 c 128,-1,30
 461 644 461 644 383 644 c 256,31,16
 305 644 305 644 241 598.5 c 128,-1,17
EndSplineSet
Validated: 1
EndChar

StartChar: P
Encoding: 80 80 51
Width: 640
GlyphClass: 1
Flags: W
LayerCount: 2
Fore
SplineSet
489 631.5 m 128,-1,1
 538 605 538 605 561.5 563.5 c 128,-1,2
 585 522 585 522 585 479 c 256,3,4
 585 436 585 436 561.5 394.5 c 128,-1,5
 538 353 538 353 489.5 326 c 128,-1,6
 441 299 441 299 369 299 c 2,7,-1
 130 299 l 1,8,-1
 130 0 l 1,9,-1
 81 0 l 1,10,-1
 81 658 l 1,11,-1
 369 658 l 2,12,0
 440 658 440 658 489 631.5 c 128,-1,1
487 599 m 0,13,14
 441 638 441 638 362 638 c 2,15,-1
 130 638 l 1,16,-1
 130 319 l 1,17,-1
 362 319 l 2,18,19
 439 319 439 319 483 358.5 c 128,-1,20
 527 398 527 398 530 480 c 0,21,22
 530 485 530 485 530 490 c 0,23,24
 530 562 530 562 487 599 c 0,13,14
EndSplineSet
Validated: 1
EndChar

StartChar: Q
Encoding: 81 81 52
Width: 793
GlyphClass: 1
Flags: W
LayerCount: 2
Fore
SplineSet
655.5 139 m 128,-1,1
 595 56 595 56 497 20 c 1,2,-1
 716 20 l 1,3,-1
 716 0 l 1,4,-1
 383 0 l 2,5,6
 292 0 292 0 215.5 43.5 c 128,-1,7
 139 87 139 87 94.5 162.5 c 128,-1,8
 50 238 50 238 50 329 c 256,9,10
 50 420 50 420 95 497 c 128,-1,11
 140 574 140 574 216.5 619 c 128,-1,12
 293 664 293 664 383 664 c 256,13,14
 473 664 473 664 549.5 619 c 128,-1,15
 626 574 626 574 671 497 c 128,-1,16
 716 420 716 420 716 329 c 0,17,0
 716 222 716 222 655.5 139 c 128,-1,1
141.5 179 m 128,-1,19
 178 108 178 108 241.5 64 c 128,-1,20
 305 20 305 20 383 20 c 256,21,22
 461 20 461 20 524.5 64 c 128,-1,23
 588 108 588 108 624.5 179 c 128,-1,24
 661 250 661 250 661 329 c 0,25,26
 661 407 661 407 625 480 c 128,-1,27
 589 553 589 553 525 598.5 c 128,-1,28
 461 644 461 644 383 644 c 256,29,30
 305 644 305 644 241 598.5 c 128,-1,31
 177 553 177 553 141 480 c 128,-1,32
 105 407 105 407 105 329 c 0,33,18
 105 250 105 250 141.5 179 c 128,-1,19
EndSplineSet
Validated: 1
EndChar

StartChar: R
Encoding: 82 82 53
Width: 657
GlyphClass: 1
Flags: W
LayerCount: 2
Fore
SplineSet
573 69.5 m 128,-1,1
 583 18 583 18 587 0 c 1,2,-1
 537 0 l 1,3,4
 532 20 532 20 526 53 c 0,5,6
 499 175 499 175 500 175 c 1,7,8
 500 175 500 175 500 174 c 1,9,10
 488 235 488 235 439.5 267 c 128,-1,11
 391 299 391 299 323 299 c 2,12,-1
 130 299 l 1,13,-1
 130 0 l 1,14,-1
 81 0 l 1,15,-1
 81 658 l 1,16,-1
 369 658 l 2,17,18
 440 658 440 658 489 631.5 c 128,-1,19
 538 605 538 605 561.5 563.5 c 128,-1,20
 585 522 585 522 585 479 c 0,21,22
 585 422 585 422 546 372 c 128,-1,23
 507 322 507 322 432 306 c 1,24,25
 482 293 482 293 512 257 c 128,-1,26
 542 221 542 221 551 175 c 0,27,0
 563 121 563 121 573 69.5 c 128,-1,1
130 319 m 1,28,-1
 352 319 l 2,29,30
 430 319 430 319 478.5 359 c 128,-1,31
 527 399 527 399 530 480 c 0,32,33
 530 484 530 484 530 489 c 0,34,35
 530 561 530 561 482 598 c 0,36,37
 432 638 432 638 352 638 c 2,38,-1
 130 638 l 1,39,-1
 130 319 l 1,28,-1
EndSplineSet
Validated: 37
EndChar

StartChar: S
Encoding: 83 83 54
Width: 577
GlyphClass: 1
Flags: W
LayerCount: 2
Fore
SplineSet
408 18.5 m 128,-1,1
 461 43 461 43 489.5 83.5 c 128,-1,2
 518 124 518 124 518 170 c 0,3,4
 518 212 518 212 493 243 c 128,-1,5
 468 274 468 274 426.5 298 c 128,-1,6
 385 322 385 322 312 354 c 2,7,-1
 272 371 l 2,8,9
 210 397 210 397 178.5 414.5 c 128,-1,10
 147 432 147 432 128 456 c 128,-1,11
 109 480 109 480 109 515 c 0,12,13
 109 551 109 551 131.5 580.5 c 128,-1,14
 154 610 154 610 194.5 627 c 128,-1,15
 235 644 235 644 285 644 c 0,16,17
 345 644 345 644 402 614.5 c 128,-1,18
 459 585 459 585 484 533 c 1,19,-1
 497 549 l 1,20,21
 471 602 471 602 411 633 c 128,-1,22
 351 664 351 664 283 664 c 0,23,24
 224 664 224 664 173 643.5 c 128,-1,25
 122 623 122 623 91 585.5 c 128,-1,26
 60 548 60 548 60 499 c 0,27,28
 60 458 60 458 84 428.5 c 128,-1,29
 108 399 108 399 151.5 375 c 128,-1,30
 195 351 195 351 277 315 c 2,31,-1
 305 303 l 2,32,33
 365 277 365 277 397 259.5 c 128,-1,34
 429 242 429 242 449 216 c 128,-1,35
 469 190 469 190 469 152 c 0,36,37
 469 113 469 113 445.5 81.5 c 128,-1,38
 422 50 422 50 380.5 32 c 128,-1,39
 339 14 339 14 285 14 c 0,40,41
 222 14 222 14 161 41.5 c 128,-1,42
 100 69 100 69 73 121 c 1,43,-1
 61 105 l 1,44,45
 90 51 90 51 154 22.5 c 128,-1,46
 218 -6 218 -6 285 -6 c 0,47,0
 355 -6 355 -6 408 18.5 c 128,-1,1
EndSplineSet
Validated: 9
EndChar

StartChar: T
Encoding: 84 84 55
Width: 607
GlyphClass: 1
Flags: W
LayerCount: 2
Fore
SplineSet
557 658 m 1,0,-1
 557 638 l 1,1,-1
 328 638 l 1,2,-1
 328 0 l 1,3,-1
 278 0 l 1,4,-1
 278 638 l 1,5,-1
 50 638 l 1,6,-1
 50 658 l 1,7,-1
 557 658 l 1,0,-1
EndSplineSet
Validated: 1
EndChar

StartChar: U
Encoding: 85 85 56
Width: 663
GlyphClass: 1
Flags: W
LayerCount: 2
Fore
SplineSet
566 658 m 1,0,-1
 585 658 l 1,1,-1
 585 269 l 2,2,3
 585 197 585 197 560.5 135 c 128,-1,4
 536 73 536 73 479.5 33.5 c 128,-1,5
 423 -6 423 -6 333 -6 c 0,6,7
 291 -6 291 -6 248 5 c 128,-1,8
 205 16 205 16 164 52 c 0,9,10
 82 124 82 124 82 274 c 2,11,-1
 82 658 l 1,12,-1
 131 658 l 1,13,-1
 131 254 l 2,14,15
 131 132 131 132 191.5 73 c 128,-1,16
 252 14 252 14 348 14 c 0,17,18
 420 14 420 14 469 49 c 128,-1,19
 518 84 518 84 542 142 c 128,-1,20
 566 200 566 200 566 269 c 2,21,-1
 566 658 l 1,0,-1
EndSplineSet
Validated: 1
EndChar

StartChar: V
Encoding: 86 86 57
Width: 685
GlyphClass: 1
Flags: W
LayerCount: 2
Fore
SplineSet
640 658 m 1,0,-1
 335 -6 l 1,1,-1
 45 658 l 1,2,-1
 99 658 l 1,3,-1
 352 79 l 1,4,-1
 618 658 l 1,5,-1
 640 658 l 1,0,-1
EndSplineSet
Validated: 1
EndChar

StartChar: W
Encoding: 87 87 58
Width: 886
GlyphClass: 1
Flags: W
LayerCount: 2
Fore
SplineSet
841 658 m 1,0,-1
 616 -6 l 1,1,-1
 443 460 l 1,2,-1
 271 -6 l 1,3,-1
 45 658 l 1,4,-1
 98 658 l 1,5,-1
 288 99 l 1,6,-1
 459 561 l 1,7,-1
 630 99 l 1,8,-1
 820 658 l 1,9,-1
 841 658 l 1,0,-1
EndSplineSet
Validated: 1
EndChar

StartChar: X
Encoding: 88 88 59
Width: 636
GlyphClass: 1
Flags: W
LayerCount: 2
Fore
SplineSet
586 658 m 1,0,-1
 340 341 l 1,1,-1
 584 0 l 1,2,-1
 523 0 l 1,3,-1
 309 300 l 1,4,-1
 77 0 l 1,5,-1
 52 0 l 1,6,-1
 297 316 l 1,7,-1
 53 658 l 1,8,-1
 114 658 l 1,9,-1
 329 357 l 1,10,-1
 561 658 l 1,11,-1
 586 658 l 1,0,-1
EndSplineSet
Validated: 1
EndChar

StartChar: Y
Encoding: 89 89 60
Width: 676
GlyphClass: 1
Flags: W
LayerCount: 2
Fore
SplineSet
353 248 m 1,0,-1
 611 658 l 1,1,-1
 635 658 l 1,2,-1
 360 222 l 1,3,-1
 360 0 l 1,4,-1
 311 0 l 1,5,-1
 311 223 l 1,6,-1
 40 658 l 1,7,-1
 98 658 l 1,8,-1
 353 248 l 1,0,-1
EndSplineSet
Validated: 1
EndChar

StartChar: Z
Encoding: 90 90 61
Width: 642
GlyphClass: 1
Flags: W
LayerCount: 2
Fore
SplineSet
573 658 m 1,0,-1
 141 20 l 1,1,-1
 573 20 l 1,2,-1
 573 0 l 1,3,-1
 68 0 l 1,4,-1
 499 638 l 1,5,-1
 68 638 l 1,6,-1
 68 658 l 1,7,-1
 573 658 l 1,0,-1
EndSplineSet
Validated: 1
EndChar

StartChar: bracketleft
Encoding: 91 91 62
Width: 283
GlyphClass: 1
Flags: W
LayerCount: 2
Fore
SplineSet
110 20 m 1,0,-1
 223 20 l 1,1,-1
 223 0 l 1,2,-1
 60 0 l 1,3,-1
 60 658 l 1,4,-1
 223 658 l 1,5,-1
 223 638 l 1,6,-1
 110 638 l 1,7,-1
 110 20 l 1,0,-1
EndSplineSet
Validated: 1
EndChar

StartChar: backslash
Encoding: 92 92 63
Width: 623
GlyphClass: 1
Flags: W
LayerCount: 2
Fore
SplineSet
563 0 m 1,0,-1
 503 0 l 1,1,-1
 58 658 l 1,2,-1
 118 658 l 1,3,-1
 563 0 l 1,0,-1
EndSplineSet
Validated: 1
EndChar

StartChar: bracketright
Encoding: 93 93 64
Width: 283
GlyphClass: 1
Flags: W
LayerCount: 2
Fore
SplineSet
173 20 m 1,0,-1
 173 638 l 1,1,-1
 60 638 l 1,2,-1
 60 658 l 1,3,-1
 223 658 l 1,4,-1
 223 0 l 1,5,-1
 60 0 l 1,6,-1
 60 20 l 1,7,-1
 173 20 l 1,0,-1
EndSplineSet
Validated: 1
EndChar

StartChar: asciicircum
Encoding: 94 94 65
Width: 391
GlyphClass: 1
Flags: W
LayerCount: 2
Fore
SplineSet
214 620 m 1,0,-1
 132 509 l 1,1,-1
 70 509 l 1,2,-1
 196 678 l 1,3,-1
 321 509 l 1,4,-1
 297 509 l 1,5,-1
 214 620 l 1,0,-1
EndSplineSet
Validated: 1
EndChar

StartChar: underscore
Encoding: 95 95 66
Width: 595
GlyphClass: 1
Flags: W
LayerCount: 2
Fore
SplineSet
535 50 m 1,0,-1
 535 0 l 1,1,-1
 60 0 l 1,2,-1
 60 50 l 1,3,-1
 535 50 l 1,0,-1
EndSplineSet
Validated: 1
EndChar

StartChar: a
Encoding: 97 97 67
Width: 623
GlyphClass: 1
Flags: W
LayerCount: 2
Fore
SplineSet
542 0 m 1,0,-1
 492 0 l 1,1,-1
 492 92 l 1,2,3
 458 46 458 46 406.5 20 c 128,-1,4
 355 -6 355 -6 296 -6 c 0,5,6
 229 -6 229 -6 172.5 27 c 128,-1,7
 116 60 116 60 83 116.5 c 128,-1,8
 50 173 50 173 50 240 c 256,9,10
 50 307 50 307 83 363.5 c 128,-1,11
 116 420 116 420 172.5 453 c 128,-1,12
 229 486 229 486 296 486 c 0,13,14
 355 486 355 486 406.5 460 c 128,-1,15
 458 434 458 434 492 388 c 1,16,-1
 492 480 l 1,17,-1
 542 480 l 1,18,-1
 542 0 l 1,0,-1
412 46 m 128,-1,20
 463 77 463 77 492 129 c 1,21,-1
 492 350 l 1,22,23
 463 402 463 402 412 433.5 c 128,-1,24
 361 465 361 465 296 465 c 0,25,26
 233 465 233 465 189.5 432.5 c 128,-1,27
 146 400 146 400 125.5 348.5 c 128,-1,28
 105 297 105 297 105 240 c 256,29,30
 105 183 105 183 126 131.5 c 128,-1,31
 147 80 147 80 190 47.5 c 128,-1,32
 233 15 233 15 296 15 c 0,33,19
 361 15 361 15 412 46 c 128,-1,20
EndSplineSet
Validated: 1
EndChar

StartChar: b
Encoding: 98 98 68
Width: 623
GlyphClass: 1
Flags: W
LayerCount: 2
Fore
SplineSet
81 658 m 1,0,-1
 131 658 l 1,1,-1
 131 388 l 1,2,3
 165 434 165 434 216.5 460 c 128,-1,4
 268 486 268 486 327 486 c 0,5,6
 394 486 394 486 450.5 453 c 128,-1,7
 507 420 507 420 540 363.5 c 128,-1,8
 573 307 573 307 573 240 c 256,9,10
 573 173 573 173 540 116.5 c 128,-1,11
 507 60 507 60 450.5 27 c 128,-1,12
 394 -6 394 -6 327 -6 c 0,13,14
 268 -6 268 -6 216.5 20 c 128,-1,15
 165 46 165 46 131 92 c 1,16,-1
 131 0 l 1,17,-1
 81 0 l 1,18,-1
 81 658 l 1,0,-1
211 46 m 128,-1,20
 262 15 262 15 327 15 c 0,21,22
 390 15 390 15 433 47.5 c 128,-1,23
 476 80 476 80 497 131.5 c 128,-1,24
 518 183 518 183 518 240 c 256,25,26
 518 297 518 297 497.5 348.5 c 128,-1,27
 477 400 477 400 433.5 432.5 c 128,-1,28
 390 465 390 465 327 465 c 0,29,30
 262 465 262 465 211 433.5 c 128,-1,31
 160 402 160 402 131 350 c 1,32,-1
 131 129 l 1,33,19
 160 77 160 77 211 46 c 128,-1,20
EndSplineSet
Validated: 1
EndChar

StartChar: c
Encoding: 99 99 69
Width: 544
GlyphClass: 1
Flags: W
LayerCount: 2
Fore
SplineSet
400 39.5 m 128,-1,1
 447 64 447 64 477 106 c 1,2,-1
 493 93 l 1,3,4
 459 47 459 47 407.5 20.5 c 128,-1,5
 356 -6 356 -6 296 -6 c 0,6,7
 229 -6 229 -6 172.5 27 c 128,-1,8
 116 60 116 60 83 116.5 c 128,-1,9
 50 173 50 173 50 240 c 256,10,11
 50 307 50 307 83 363.5 c 128,-1,12
 116 420 116 420 172.5 453 c 128,-1,13
 229 486 229 486 296 486 c 0,14,15
 356 486 356 486 408 459.5 c 128,-1,16
 460 433 460 433 494 386 c 1,17,-1
 478 373 l 1,18,19
 447 416 447 416 400 440.5 c 128,-1,20
 353 465 353 465 296 465 c 0,21,22
 233 465 233 465 189.5 432.5 c 128,-1,23
 146 400 146 400 125.5 348.5 c 128,-1,24
 105 297 105 297 105 240 c 256,25,26
 105 183 105 183 126 131.5 c 128,-1,27
 147 80 147 80 190 47.5 c 128,-1,28
 233 15 233 15 296 15 c 0,29,0
 353 15 353 15 400 39.5 c 128,-1,1
EndSplineSet
Validated: 1
EndChar

StartChar: d
Encoding: 100 100 70
Width: 623
GlyphClass: 1
Flags: W
LayerCount: 2
Fore
SplineSet
542 0 m 1,0,-1
 492 0 l 1,1,-1
 492 92 l 1,2,3
 458 46 458 46 406.5 20 c 128,-1,4
 355 -6 355 -6 296 -6 c 0,5,6
 229 -6 229 -6 172.5 27 c 128,-1,7
 116 60 116 60 83 116.5 c 128,-1,8
 50 173 50 173 50 240 c 256,9,10
 50 307 50 307 83 363.5 c 128,-1,11
 116 420 116 420 172.5 453 c 128,-1,12
 229 486 229 486 296 486 c 0,13,14
 355 486 355 486 406.5 460 c 128,-1,15
 458 434 458 434 492 388 c 1,16,-1
 492 658 l 1,17,-1
 542 658 l 1,18,-1
 542 0 l 1,0,-1
412 46 m 128,-1,20
 463 77 463 77 492 129 c 1,21,-1
 492 350 l 1,22,23
 463 402 463 402 412 433.5 c 128,-1,24
 361 465 361 465 296 465 c 0,25,26
 233 465 233 465 189.5 432.5 c 128,-1,27
 146 400 146 400 125.5 348.5 c 128,-1,28
 105 297 105 297 105 240 c 256,29,30
 105 183 105 183 126 131.5 c 128,-1,31
 147 80 147 80 190 47.5 c 128,-1,32
 233 15 233 15 296 15 c 0,33,19
 361 15 361 15 412 46 c 128,-1,20
EndSplineSet
Validated: 1
EndChar

StartChar: e
Encoding: 101 101 71
Width: 577
GlyphClass: 1
Flags: W
LayerCount: 2
Fore
SplineSet
526 230 m 1,0,-1
 105 230 l 1,1,2
 105 175 105 175 126.5 126 c 128,-1,3
 148 77 148 77 191.5 46 c 128,-1,4
 235 15 235 15 296 15 c 0,5,6
 356 15 356 15 405 42.5 c 128,-1,7
 454 70 454 70 484 117 c 1,8,-1
 501 105 l 1,9,10
 467 54 467 54 413 24 c 128,-1,11
 359 -6 359 -6 296 -6 c 0,12,13
 229 -6 229 -6 172.5 27 c 128,-1,14
 116 60 116 60 83 116.5 c 128,-1,15
 50 173 50 173 50 240 c 256,16,17
 50 307 50 307 83 363.5 c 128,-1,18
 116 420 116 420 172.5 453 c 128,-1,19
 229 486 229 486 296 486 c 256,20,21
 363 486 363 486 415.5 453 c 128,-1,22
 468 420 468 420 497.5 364 c 128,-1,23
 527 308 527 308 527 240 c 1,24,-1
 526 230 l 1,0,-1
191 434.5 m 128,-1,26
 148 404 148 404 126.5 354.5 c 128,-1,27
 105 305 105 305 105 251 c 1,28,-1
 471 251 l 1,29,30
 469 341 469 341 427 403 c 128,-1,31
 385 465 385 465 295 465 c 0,32,25
 234 465 234 465 191 434.5 c 128,-1,26
EndSplineSet
Validated: 1
EndChar

StartChar: f
Encoding: 102 102 72
Width: 392
GlyphClass: 1
Flags: W
LayerCount: 2
Fore
SplineSet
317 636 m 0,1,2
 255 636 255 636 217.5 595.5 c 128,-1,3
 180 555 180 555 180 484 c 2,4,-1
 180 470 l 1,5,-1
 338 470 l 1,6,-1
 338 449 l 1,7,-1
 180 449 l 1,8,-1
 180 0 l 1,9,-1
 131 0 l 1,10,-1
 131 449 l 1,11,-1
 30 449 l 1,12,-1
 30 470 l 1,13,-1
 131 470 l 1,14,15
 134 552 134 552 175 599 c 0,16,17
 223 658 223 658 317 658 c 0,18,19
 343 658 343 658 372 650 c 1,20,-1
 365 630 l 1,21,0
 340 636 340 636 317 636 c 0,1,2
EndSplineSet
Validated: 1
EndChar

StartChar: g
Encoding: 103 103 73
Width: 623
GlyphClass: 1
Flags: W
LayerCount: 2
Fore
SplineSet
542 480 m 1,0,-1
 542 43 l 2,1,2
 542 -19 542 -19 517 -72.5 c 128,-1,3
 492 -126 492 -126 438 -159 c 128,-1,4
 384 -192 384 -192 301 -192 c 0,5,6
 226 -192 226 -192 170.5 -162 c 128,-1,7
 115 -132 115 -132 87 -77 c 1,8,-1
 106 -67 l 1,9,10
 131 -117 131 -117 182 -144 c 128,-1,11
 233 -171 233 -171 301 -171 c 0,12,13
 402 -171 402 -171 447 -112.5 c 128,-1,14
 492 -54 492 -54 492 33 c 2,15,-1
 492 91 l 1,16,17
 458 46 458 46 406.5 20 c 128,-1,18
 355 -6 355 -6 296 -6 c 0,19,20
 229 -6 229 -6 172.5 27 c 128,-1,21
 116 60 116 60 83 116.5 c 128,-1,22
 50 173 50 173 50 240 c 256,23,24
 50 307 50 307 83 363.5 c 128,-1,25
 116 420 116 420 172.5 453 c 128,-1,26
 229 486 229 486 296 486 c 0,27,28
 355 486 355 486 406.5 460 c 128,-1,29
 458 434 458 434 492 388 c 1,30,-1
 492 480 l 1,31,-1
 542 480 l 1,0,-1
412 46 m 128,-1,33
 463 77 463 77 492 129 c 1,34,-1
 492 350 l 1,35,36
 463 402 463 402 412 433.5 c 128,-1,37
 361 465 361 465 296 465 c 0,38,39
 233 465 233 465 189.5 432.5 c 128,-1,40
 146 400 146 400 125.5 348.5 c 128,-1,41
 105 297 105 297 105 240 c 256,42,43
 105 183 105 183 126 131.5 c 128,-1,44
 147 80 147 80 190 47.5 c 128,-1,45
 233 15 233 15 296 15 c 0,46,32
 361 15 361 15 412 46 c 128,-1,33
EndSplineSet
Validated: 1
EndChar

StartChar: h
Encoding: 104 104 74
Width: 599
GlyphClass: 1
Flags: W
LayerCount: 2
Fore
SplineSet
506.5 369 m 128,-1,1
 518 334 518 334 518 282 c 2,2,-1
 518 0 l 1,3,-1
 468 0 l 1,4,-1
 468 282 l 2,5,6
 468 387 468 387 422 426 c 128,-1,7
 376 465 376 465 317 465 c 0,8,9
 260 465 260 465 213.5 429.5 c 128,-1,10
 167 394 167 394 146 344 c 0,11,12
 137 322 137 322 133.5 297 c 128,-1,13
 130 272 130 272 130 231 c 2,14,-1
 130 0 l 1,15,-1
 81 0 l 1,16,-1
 81 658 l 1,17,-1
 130 658 l 1,18,-1
 130 364 l 1,19,20
 155 414 155 414 208 450 c 128,-1,21
 261 486 261 486 323 486 c 0,22,23
 364 486 364 486 402.5 473.5 c 128,-1,24
 441 461 441 461 468 433 c 0,25,0
 495 404 495 404 506.5 369 c 128,-1,1
EndSplineSet
Validated: 1
EndChar

StartChar: i
Encoding: 105 105 75
Width: 230
GlyphClass: 1
Flags: W
LayerCount: 2
Fore
SplineSet
90 480 m 1,0,-1
 140 480 l 1,1,-1
 140 0 l 1,2,-1
 90 0 l 1,3,-1
 90 480 l 1,0,-1
145 646 m 128,-1,5
 157 634 157 634 157 616 c 0,6,7
 157 599 157 599 144 587 c 128,-1,8
 131 575 131 575 114 575 c 256,9,10
 97 575 97 575 85 587 c 128,-1,11
 73 599 73 599 73 616 c 0,12,13
 73 634 73 634 85 646 c 128,-1,14
 97 658 97 658 114 658 c 0,15,4
 133 658 133 658 145 646 c 128,-1,5
EndSplineSet
Validated: 1
EndChar

StartChar: j
Encoding: 106 106 76
Width: 304
GlyphClass: 1
Flags: W
LayerCount: 2
Fore
SplineSet
221 480 m 1,0,-1
 221 12 l 2,1,2
 221 -78 221 -78 180 -133 c 0,3,4
 135 -192 135 -192 55 -192 c 0,5,6
 7 -192 7 -192 -24 -169 c 0,7,8
 -55 -145 -55 -145 -70 -110 c 1,9,-1
 -43 -110 l 1,10,-1
 -41 -115 l 1,11,12
 -14 -171 -14 -171 51 -171 c 0,13,14
 106 -171 106 -171 138.5 -127.5 c 128,-1,15
 171 -84 171 -84 171 12 c 2,16,-1
 171 480 l 1,17,-1
 221 480 l 1,0,-1
177 612 m 128,-1,19
 185 604 185 604 196 604 c 256,20,21
 207 604 207 604 215 612 c 128,-1,22
 223 620 223 620 223 631 c 256,23,24
 223 642 223 642 215 650 c 128,-1,25
 207 658 207 658 196 658 c 256,26,27
 185 658 185 658 177 650 c 128,-1,28
 169 642 169 642 169 631 c 256,29,18
 169 620 169 620 177 612 c 128,-1,19
227 646 m 128,-1,31
 215 658 215 658 196 658 c 0,32,33
 179 658 179 658 167 646 c 128,-1,34
 155 634 155 634 155 616 c 0,35,36
 155 599 155 599 167 587 c 128,-1,37
 179 575 179 575 196 575 c 256,38,39
 213 575 213 575 226 587 c 128,-1,40
 239 599 239 599 239 616 c 0,41,30
 239 634 239 634 227 646 c 128,-1,31
EndSplineSet
Validated: 5
EndChar

StartChar: k
Encoding: 107 107 77
Width: 509
GlyphClass: 1
Flags: W
LayerCount: 2
Fore
SplineSet
273 245 m 1,0,-1
 469 0 l 1,1,-1
 405 0 l 1,2,-1
 243 202 l 1,3,-1
 101 0 l 1,4,-1
 81 0 l 1,5,-1
 81 658 l 1,6,-1
 131 658 l 1,7,-1
 131 77 l 1,8,-1
 413 480 l 1,9,-1
 437 480 l 1,10,-1
 273 245 l 1,0,-1
EndSplineSet
Validated: 1
EndChar

StartChar: l
Encoding: 108 108 78
Width: 226
GlyphClass: 1
Flags: W
LayerCount: 2
Fore
SplineSet
88 658 m 1,0,-1
 138 658 l 1,1,-1
 138 0 l 1,2,-1
 88 0 l 1,3,-1
 88 658 l 1,0,-1
EndSplineSet
Validated: 1
EndChar

StartChar: m
Encoding: 109 109 79
Width: 836
GlyphClass: 1
Flags: W
LayerCount: 2
Fore
SplineSet
745 374.5 m 128,-1,1
 755 337 755 337 755 282 c 2,2,-1
 755 0 l 1,3,-1
 706 0 l 1,4,-1
 706 282 l 2,5,6
 706 382 706 382 671.5 423.5 c 128,-1,7
 637 465 637 465 588 465 c 0,8,9
 542 465 542 465 509.5 435.5 c 128,-1,10
 477 406 477 406 461 364 c 0,11,12
 443 316 443 316 443 241 c 2,13,-1
 443 0 l 1,14,-1
 394 0 l 1,15,-1
 394 282 l 2,16,17
 394 382 394 382 359.5 423.5 c 128,-1,18
 325 465 325 465 276 465 c 0,19,20
 230 465 230 465 197.5 435.5 c 128,-1,21
 165 406 165 406 149 364 c 0,22,23
 130 313 130 313 130 241 c 2,24,-1
 130 0 l 1,25,-1
 81 0 l 1,26,-1
 81 480 l 1,27,-1
 130 480 l 1,28,-1
 130 377 l 1,29,30
 150 426 150 426 189.5 456 c 128,-1,31
 229 486 229 486 277 486 c 0,32,33
 313 486 313 486 343 475.5 c 128,-1,34
 373 465 373 465 398 439 c 0,35,36
 427 409 427 409 436 361 c 1,37,38
 454 416 454 416 495 451 c 128,-1,39
 536 486 536 486 589 486 c 0,40,41
 625 486 625 486 655 475.5 c 128,-1,42
 685 465 685 465 710 439 c 0,43,0
 735 412 735 412 745 374.5 c 128,-1,1
EndSplineSet
Validated: 1
EndChar

StartChar: n
Encoding: 110 110 80
Width: 599
GlyphClass: 1
Flags: W
LayerCount: 2
Fore
SplineSet
507 369.5 m 128,-1,1
 518 335 518 335 518 282 c 2,2,-1
 518 0 l 1,3,-1
 468 0 l 1,4,-1
 468 282 l 2,5,6
 468 387 468 387 422 426 c 128,-1,7
 376 465 376 465 317 465 c 0,8,9
 261 465 261 465 214.5 429 c 128,-1,10
 168 393 168 393 147 344 c 0,11,12
 137 323 137 323 134 298.5 c 128,-1,13
 131 274 131 274 131 231 c 2,14,-1
 131 0 l 1,15,-1
 81 0 l 1,16,-1
 81 480 l 1,17,-1
 131 480 l 1,18,-1
 131 364 l 1,19,20
 155 414 155 414 208 450 c 128,-1,21
 261 486 261 486 323 486 c 0,22,23
 417 486 417 486 469 433 c 0,24,0
 496 404 496 404 507 369.5 c 128,-1,1
EndSplineSet
Validated: 1
EndChar

StartChar: o
Encoding: 111 111 81
Width: 592
GlyphClass: 1
Flags: W
LayerCount: 2
Fore
SplineSet
172.5 27 m 128,-1,1
 116 60 116 60 83 116.5 c 128,-1,2
 50 173 50 173 50 240 c 256,3,4
 50 307 50 307 83 363.5 c 128,-1,5
 116 420 116 420 172.5 453 c 128,-1,6
 229 486 229 486 296 486 c 256,7,8
 363 486 363 486 419.5 453 c 128,-1,9
 476 420 476 420 509 363.5 c 128,-1,10
 542 307 542 307 542 240 c 256,11,12
 542 173 542 173 509 116.5 c 128,-1,13
 476 60 476 60 419.5 27 c 128,-1,14
 363 -6 363 -6 296 -6 c 256,15,0
 229 -6 229 -6 172.5 27 c 128,-1,1
189 432.5 m 128,-1,17
 146 400 146 400 125.5 348.5 c 128,-1,18
 105 297 105 297 105 240 c 256,19,20
 105 183 105 183 126 131.5 c 128,-1,21
 147 80 147 80 190 47.5 c 128,-1,22
 233 15 233 15 296 15 c 256,23,24
 359 15 359 15 402.5 47.5 c 128,-1,25
 446 80 446 80 466.5 131.5 c 128,-1,26
 487 183 487 183 487 240 c 256,27,28
 487 297 487 297 466 348.5 c 128,-1,29
 445 400 445 400 402 432.5 c 128,-1,30
 359 465 359 465 296 465 c 0,31,16
 232 465 232 465 189 432.5 c 128,-1,17
EndSplineSet
Validated: 1
EndChar

StartChar: p
Encoding: 112 112 82
Width: 623
GlyphClass: 1
Flags: W
LayerCount: 2
Fore
SplineSet
81 480 m 1,0,-1
 131 480 l 1,1,-1
 131 388 l 1,2,3
 165 434 165 434 216.5 460 c 128,-1,4
 268 486 268 486 327 486 c 0,5,6
 394 486 394 486 450.5 453 c 128,-1,7
 507 420 507 420 540 363.5 c 128,-1,8
 573 307 573 307 573 240 c 256,9,10
 573 173 573 173 540 116.5 c 128,-1,11
 507 60 507 60 450.5 27 c 128,-1,12
 394 -6 394 -6 327 -6 c 0,13,14
 268 -6 268 -6 216.5 20 c 128,-1,15
 165 46 165 46 131 92 c 1,16,-1
 131 -192 l 1,17,-1
 81 -192 l 1,18,-1
 81 480 l 1,0,-1
211 434 m 128,-1,20
 160 403 160 403 131 351 c 1,21,-1
 131 130 l 1,22,23
 160 78 160 78 211 46.5 c 128,-1,24
 262 15 262 15 327 15 c 0,25,26
 390 15 390 15 433.5 47.5 c 128,-1,27
 477 80 477 80 497.5 131.5 c 128,-1,28
 518 183 518 183 518 240 c 256,29,30
 518 297 518 297 497 348.5 c 128,-1,31
 476 400 476 400 433 432.5 c 128,-1,32
 390 465 390 465 327 465 c 0,33,19
 262 465 262 465 211 434 c 128,-1,20
EndSplineSet
Validated: 1
EndChar

StartChar: q
Encoding: 113 113 83
Width: 623
GlyphClass: 1
Flags: W
LayerCount: 2
Fore
SplineSet
492 -192 m 1,0,-1
 492 92 l 1,1,2
 458 46 458 46 406.5 20 c 128,-1,3
 355 -6 355 -6 296 -6 c 0,4,5
 229 -6 229 -6 172.5 27 c 128,-1,6
 116 60 116 60 83 116.5 c 128,-1,7
 50 173 50 173 50 240 c 256,8,9
 50 307 50 307 83 363.5 c 128,-1,10
 116 420 116 420 172.5 453 c 128,-1,11
 229 486 229 486 296 486 c 0,12,13
 355 486 355 486 406.5 460 c 128,-1,14
 458 434 458 434 492 388 c 1,15,-1
 492 480 l 1,16,-1
 542 480 l 1,17,-1
 542 -192 l 1,18,-1
 492 -192 l 1,0,-1
190 432.5 m 128,-1,20
 147 400 147 400 126 348.5 c 128,-1,21
 105 297 105 297 105 240 c 256,22,23
 105 183 105 183 125.5 131.5 c 128,-1,24
 146 80 146 80 189.5 47.5 c 128,-1,25
 233 15 233 15 296 15 c 0,26,27
 361 15 361 15 412 46.5 c 128,-1,28
 463 78 463 78 492 130 c 1,29,-1
 492 351 l 1,30,31
 463 403 463 403 412 434 c 128,-1,32
 361 465 361 465 296 465 c 0,33,19
 233 465 233 465 190 432.5 c 128,-1,20
EndSplineSet
Validated: 1
EndChar

StartChar: r
Encoding: 114 114 84
Width: 412
GlyphClass: 1
Flags: W
LayerCount: 2
Fore
SplineSet
372 467 m 1,1,-1
 363 447 l 1,2,3
 333 465 333 465 292 465 c 0,4,5
 245 465 245 465 207 435 c 128,-1,6
 169 405 169 405 150 365 c 0,7,8
 130 325 130 325 130 241 c 2,9,-1
 130 0 l 1,10,-1
 81 0 l 1,11,-1
 81 480 l 1,12,-1
 130 480 l 1,13,-1
 130 374 l 1,14,15
 151 420 151 420 198.5 453 c 128,-1,16
 246 486 246 486 298 486 c 0,17,0
 341 486 341 486 372 467 c 1,1,-1
EndSplineSet
Validated: 1
EndChar

StartChar: s
Encoding: 115 115 85
Width: 458
GlyphClass: 1
Flags: W
LayerCount: 2
Fore
SplineSet
127.5 12.5 m 128,-1,1
 82 31 82 31 47 66 c 1,2,-1
 62 81 l 1,3,4
 94 49 94 49 135 32 c 128,-1,5
 176 15 176 15 221 15 c 0,6,7
 263 15 263 15 294.5 30.5 c 128,-1,8
 326 46 326 46 342 67.5 c 128,-1,9
 358 89 358 89 358 107 c 0,10,11
 358 132 358 132 343.5 149 c 128,-1,12
 329 166 329 166 304 179.5 c 128,-1,13
 279 193 279 193 221 219 c 0,14,15
 213 223 213 223 159 246 c 128,-1,16
 105 269 105 269 75.5 300 c 128,-1,17
 46 331 46 331 46 367 c 0,18,19
 46 401 46 401 71 428 c 128,-1,20
 96 455 96 455 137 470.5 c 128,-1,21
 178 486 178 486 222 486 c 0,22,23
 271 486 271 486 316 467 c 128,-1,24
 361 448 361 448 395 414 c 1,25,-1
 380 399 l 1,26,27
 349 431 349 431 308 448 c 128,-1,28
 267 465 267 465 222 465 c 0,29,30
 174 465 174 465 142 445 c 128,-1,31
 110 425 110 425 101 402 c 0,32,33
 97 391 97 391 97 380 c 0,34,35
 97 356 97 356 118 335.5 c 128,-1,36
 139 315 139 315 165.5 301 c 128,-1,37
 192 287 192 287 238 266 c 2,38,-1
 258 257 l 2,39,40
 312 233 312 233 342.5 217 c 128,-1,41
 373 201 373 201 393 178.5 c 128,-1,42
 413 156 413 156 413 127 c 0,43,44
 413 97 413 97 386.5 66 c 128,-1,45
 360 35 360 35 316 14.5 c 128,-1,46
 272 -6 272 -6 222 -6 c 0,47,0
 173 -6 173 -6 127.5 12.5 c 128,-1,1
EndSplineSet
Validated: 1
EndChar

StartChar: t
Encoding: 116 116 86
Width: 401
GlyphClass: 1
Flags: W
LayerCount: 2
Fore
SplineSet
295 19 m 0,1,2
 228 19 228 19 195 65 c 0,3,4
 181 84 181 84 175.5 114.5 c 128,-1,5
 170 145 170 145 170 190 c 2,6,-1
 170 449 l 1,7,-1
 328 449 l 1,8,-1
 328 470 l 1,9,-1
 170 470 l 1,10,-1
 170 658 l 1,11,-1
 121 658 l 1,12,-1
 121 470 l 1,13,-1
 20 470 l 1,14,-1
 20 449 l 1,15,-1
 121 449 l 1,16,-1
 121 188 l 2,17,18
 121 87 121 87 154 46 c 0,19,20
 176 18 176 18 210.5 6 c 128,-1,21
 245 -6 245 -6 273 -6 c 0,22,23
 293 -6 293 -6 320 -3 c 128,-1,24
 347 0 347 0 361 5 c 1,25,-1
 355 25 l 1,26,0
 322 19 322 19 295 19 c 0,1,2
EndSplineSet
Validated: 9
EndChar

StartChar: u
Encoding: 117 117 87
Width: 597
GlyphClass: 1
Flags: W
LayerCount: 2
Fore
SplineSet
89 110 m 128,-1,1
 78 145 78 145 78 198 c 2,2,-1
 78 480 l 1,3,-1
 128 480 l 1,4,-1
 128 198 l 2,5,6
 128 93 128 93 174 54 c 128,-1,7
 220 15 220 15 279 15 c 0,8,9
 335 15 335 15 382 51 c 128,-1,10
 429 87 429 87 450 136 c 0,11,12
 459 157 459 157 462 181.5 c 128,-1,13
 465 206 465 206 465 249 c 2,14,-1
 465 480 l 1,15,-1
 515 480 l 1,16,-1
 515 0 l 1,17,-1
 465 0 l 1,18,-1
 465 116 l 1,19,20
 441 66 441 66 388.5 30 c 128,-1,21
 336 -6 336 -6 273 -6 c 0,22,23
 232 -6 232 -6 193.5 6.5 c 128,-1,24
 155 19 155 19 127 47 c 0,25,0
 100 75 100 75 89 110 c 128,-1,1
EndSplineSet
Validated: 1
EndChar

StartChar: v
Encoding: 118 118 88
Width: 505
GlyphClass: 1
Flags: W
LayerCount: 2
Fore
SplineSet
480 480 m 1,0,-1
 253 -6 l 1,1,-1
 24 480 l 1,2,-1
 79 480 l 1,3,-1
 269 76 l 1,4,-1
 458 480 l 1,5,-1
 480 480 l 1,0,-1
EndSplineSet
Validated: 1
EndChar

StartChar: w
Encoding: 119 119 89
Width: 724
GlyphClass: 1
Flags: W
LayerCount: 2
Fore
SplineSet
516 86 m 1,0,-1
 677 480 l 1,1,-1
 699 480 l 1,2,-1
 500 -6 l 1,3,-1
 362 333 l 1,4,-1
 223 -6 l 1,5,-1
 24 480 l 1,6,-1
 78 480 l 1,7,-1
 239 86 l 1,8,-1
 378 425 l 1,9,-1
 516 86 l 1,0,-1
EndSplineSet
Validated: 1
EndChar

StartChar: x
Encoding: 120 120 90
Width: 453
GlyphClass: 1
Flags: W
LayerCount: 2
Fore
SplineSet
408 480 m 1,0,-1
 245 253 l 1,1,-1
 408 0 l 1,2,-1
 349 0 l 1,3,-1
 214 209 l 1,4,-1
 64 0 l 1,5,-1
 40 0 l 1,6,-1
 203 227 l 1,7,-1
 40 480 l 1,8,-1
 100 480 l 1,9,-1
 234 271 l 1,10,-1
 384 480 l 1,11,-1
 408 480 l 1,0,-1
EndSplineSet
Validated: 1
EndChar

StartChar: y
Encoding: 121 121 91
Width: 505
GlyphClass: 1
Flags: W
LayerCount: 2
Fore
SplineSet
255 -11 m 2,0,1
 206 -112 206 -112 142 -159 c 0,2,3
 104 -185 104 -185 63 -190 c 2,4,-1
 50 -191 l 1,5,-1
 50 -170 l 1,6,7
 92 -168 92 -168 129 -142 c 0,8,9
 190 -99 190 -99 236 -2 c 1,10,-1
 246 22 l 1,11,-1
 25 480 l 1,12,-1
 80 480 l 1,13,-1
 273 80 l 1,14,-1
 458 480 l 1,15,-1
 481 480 l 1,16,-1
 255 -11 l 2,0,1
EndSplineSet
Validated: 1
EndChar

StartChar: z
Encoding: 122 122 92
Width: 464
GlyphClass: 1
Flags: W
LayerCount: 2
Fore
SplineSet
416 480 m 1,0,-1
 120 20 l 1,1,-1
 416 20 l 1,2,-1
 416 0 l 1,3,-1
 48 0 l 1,4,-1
 344 460 l 1,5,-1
 48 460 l 1,6,-1
 48 480 l 1,7,-1
 416 480 l 1,0,-1
EndSplineSet
Validated: 1
EndChar

StartChar: braceleft
Encoding: 123 123 93
Width: 325
GlyphClass: 1
Flags: W
LayerCount: 2
Fore
SplineSet
142 357 m 128,-1,1
 136 345 136 345 130 338 c 128,-1,2
 124 331 124 331 122 329 c 1,3,4
 124 327 124 327 130 319.5 c 128,-1,5
 136 312 136 312 142 300.5 c 128,-1,6
 148 289 148 289 148 276 c 2,7,-1
 148 204 l 2,8,9
 148 105 148 105 182 63.5 c 128,-1,10
 216 22 216 22 265 21 c 1,11,-1
 265 0 l 1,12,13
 229 0 229 0 199 10.5 c 128,-1,14
 169 21 169 21 144 47 c 0,15,16
 119 74 119 74 109 111.5 c 128,-1,17
 99 149 99 149 99 204 c 2,18,-1
 99 266 l 2,19,20
 99 279 99 279 88 293 c 128,-1,21
 77 307 77 307 65.5 316.5 c 128,-1,22
 54 326 54 326 50 329 c 1,23,24
 54 332 54 332 65.5 341.5 c 128,-1,25
 77 351 77 351 88 365 c 128,-1,26
 99 379 99 379 99 392 c 2,27,-1
 99 454 l 2,28,29
 99 509 99 509 109 546.5 c 128,-1,30
 119 584 119 584 144 611 c 0,31,32
 169 637 169 637 199 647.5 c 128,-1,33
 229 658 229 658 265 658 c 1,34,-1
 265 637 l 1,35,36
 216 636 216 636 182 594.5 c 128,-1,37
 148 553 148 553 148 454 c 2,38,-1
 148 382 l 2,39,0
 148 369 148 369 142 357 c 128,-1,1
EndSplineSet
Validated: 1
EndChar

StartChar: bar
Encoding: 124 124 94
Width: 230
GlyphClass: 1
Flags: W
LayerCount: 2
Fore
SplineSet
90 658 m 1,0,-1
 140 658 l 1,1,-1
 140 0 l 1,2,-1
 90 0 l 1,3,-1
 90 658 l 1,0,-1
EndSplineSet
Validated: 1
EndChar

StartChar: braceright
Encoding: 125 125 95
Width: 325
GlyphClass: 1
Flags: W
LayerCount: 2
Fore
SplineSet
177 454 m 2,0,1
 177 553 177 553 143 594.5 c 128,-1,2
 109 636 109 636 60 637 c 1,3,-1
 60 658 l 1,4,5
 96 658 96 658 126 647.5 c 128,-1,6
 156 637 156 637 181 611 c 0,7,8
 206 584 206 584 216 546.5 c 128,-1,9
 226 509 226 509 226 454 c 2,10,-1
 226 392 l 2,11,12
 226 379 226 379 237 365 c 128,-1,13
 248 351 248 351 259.5 341.5 c 128,-1,14
 271 332 271 332 275 329 c 1,15,16
 271 326 271 326 259.5 316.5 c 128,-1,17
 248 307 248 307 237 293 c 128,-1,18
 226 279 226 279 226 266 c 2,19,-1
 226 204 l 2,20,21
 226 149 226 149 216 111.5 c 128,-1,22
 206 74 206 74 181 47 c 0,23,24
 156 21 156 21 126 10.5 c 128,-1,25
 96 0 96 0 60 0 c 1,26,-1
 60 21 l 1,27,28
 109 22 109 22 143 63.5 c 128,-1,29
 177 105 177 105 177 204 c 2,30,-1
 177 276 l 2,31,32
 177 289 177 289 183 300.5 c 128,-1,33
 189 312 189 312 195 319.5 c 128,-1,34
 201 327 201 327 203 329 c 1,35,36
 201 331 201 331 195 338 c 128,-1,37
 189 345 189 345 183 357 c 128,-1,38
 177 369 177 369 177 382 c 2,39,-1
 177 454 l 2,0,1
EndSplineSet
Validated: 1
EndChar

StartChar: exclamdown
Encoding: 161 161 96
Width: 271
GlyphClass: 1
Flags: W
LayerCount: 2
Fore
SplineSet
159 0 m 1,0,-1
 109 0 l 1,1,-1
 109 127 l 1,2,-1
 124 469 l 1,3,-1
 144 469 l 1,4,-1
 159 127 l 1,5,-1
 159 0 l 1,0,-1
167.5 645 m 128,-1,7
 154 658 154 658 134 658 c 0,8,9
 116 658 116 658 103 645 c 128,-1,10
 90 632 90 632 90 613 c 256,11,12
 90 594 90 594 103 581 c 128,-1,13
 116 568 116 568 134 568 c 0,14,15
 153 568 153 568 167 581 c 128,-1,16
 181 594 181 594 181 613 c 256,17,6
 181 632 181 632 167.5 645 c 128,-1,7
EndSplineSet
Validated: 9
EndChar

StartChar: cent
Encoding: 162 162 97
Width: 677
GlyphClass: 1
Flags: W
LayerCount: 2
Fore
SplineSet
529 29.5 m 128,-1,1
 470 -1 470 -1 403 -5 c 1,2,-1
 403 -63 l 1,3,-1
 353 -63 l 1,4,-1
 353 -5 l 1,5,6
 268 1 268 1 197.5 47.5 c 128,-1,7
 127 94 127 94 86 168 c 128,-1,8
 45 242 45 242 45 329 c 256,9,10
 45 416 45 416 86 490 c 128,-1,11
 127 564 127 564 197.5 610.5 c 128,-1,12
 268 657 268 657 353 663 c 1,13,-1
 353 722 l 1,14,-1
 403 722 l 1,15,-1
 403 663 l 1,16,17
 466 659 466 659 522 631.5 c 128,-1,18
 578 604 578 604 621 558 c 1,19,-1
 607 544 l 1,20,21
 510 644 510 644 378 644 c 0,22,23
 300 644 300 644 236 598.5 c 128,-1,24
 172 553 172 553 136 480 c 128,-1,25
 100 407 100 407 100 329 c 0,26,27
 100 250 100 250 136.5 177 c 128,-1,28
 173 104 173 104 236.5 59 c 128,-1,29
 300 14 300 14 378 14 c 0,30,31
 521 14 521 14 618 126 c 1,32,-1
 632 111 l 1,33,0
 588 60 588 60 529 29.5 c 128,-1,1
EndSplineSet
Validated: 1
EndChar

StartChar: sterling
Encoding: 163 163 98
Width: 541
GlyphClass: 1
Flags: W
LayerCount: 2
Fore
SplineSet
481 21 m 1,0,-1
 481 0 l 1,1,-1
 46 0 l 1,2,-1
 46 21 l 1,3,4
 121 21 121 21 153 59 c 0,5,6
 162 69 162 69 166.5 85 c 128,-1,7
 171 101 171 101 171 118 c 2,8,-1
 170 308 l 1,9,-1
 45 308 l 1,10,-1
 45 329 l 1,11,-1
 170 329 l 1,12,-1
 170 440 l 2,13,14
 170 499 170 499 181.5 544.5 c 128,-1,15
 193 590 193 590 237 624 c 128,-1,16
 281 658 281 658 369 658 c 2,17,-1
 464 658 l 1,18,-1
 464 637 l 1,19,-1
 389 637 l 2,20,21
 315 637 315 637 278.5 613.5 c 128,-1,22
 242 590 242 590 231 550 c 128,-1,23
 220 510 220 510 220 444 c 2,24,-1
 220 329 l 1,25,-1
 354 329 l 1,26,-1
 354 308 l 1,27,-1
 220 308 l 1,28,-1
 220 118 l 2,29,30
 220 86 220 86 202.5 61 c 128,-1,31
 185 36 185 36 152 21 c 1,32,-1
 481 21 l 1,0,-1
EndSplineSet
Validated: 1
EndChar

StartChar: currency
Encoding: 164 164 99
Width: 769
GlyphClass: 1
Flags: W
LayerCount: 2
Fore
SplineSet
693 203.5 m 128,-1,1
 669 144 669 144 625 98 c 1,2,-1
 719 -6 l 1,3,-1
 652 -6 l 1,4,-1
 588 65 l 1,5,6
 545 31 545 31 493 12.5 c 128,-1,7
 441 -6 441 -6 384 -6 c 256,8,9
 327 -6 327 -6 275 12 c 128,-1,10
 223 30 223 30 180 64 c 1,11,-1
 117 -6 l 1,12,-1
 50 -6 l 1,13,-1
 143 98 l 1,14,15
 99 144 99 144 75 203.5 c 128,-1,16
 51 263 51 263 51 329 c 256,17,18
 51 395 51 395 75 454.5 c 128,-1,19
 99 514 99 514 143 560 c 1,20,-1
 50 664 l 1,21,-1
 117 664 l 1,22,-1
 180 594 l 1,23,24
 223 628 223 628 275 646 c 128,-1,25
 327 664 327 664 384 664 c 256,26,27
 441 664 441 664 493 645.5 c 128,-1,28
 545 627 545 627 588 593 c 1,29,-1
 652 664 l 1,30,-1
 719 664 l 1,31,-1
 625 560 l 1,32,33
 669 514 669 514 693 454.5 c 128,-1,34
 717 395 717 395 717 329 c 256,35,0
 717 263 717 263 693 203.5 c 128,-1,1
525.5 59 m 128,-1,37
 589 104 589 104 625.5 177 c 128,-1,38
 662 250 662 250 662 329 c 0,39,40
 662 407 662 407 626 480 c 128,-1,41
 590 553 590 553 526 598.5 c 128,-1,42
 462 644 462 644 384 644 c 256,43,44
 306 644 306 644 242 598.5 c 128,-1,45
 178 553 178 553 142 480 c 128,-1,46
 106 407 106 407 106 329 c 0,47,48
 106 250 106 250 142.5 177 c 128,-1,49
 179 104 179 104 242.5 59 c 128,-1,50
 306 14 306 14 384 14 c 256,51,36
 462 14 462 14 525.5 59 c 128,-1,37
EndSplineSet
Validated: 1
EndChar

StartChar: yen
Encoding: 165 165 100
Width: 676
GlyphClass: 1
Flags: W
LayerCount: 2
Fore
SplineSet
353 248 m 1,0,-1
 611 658 l 1,1,-1
 635 658 l 1,2,-1
 360 222 l 1,3,-1
 360 0 l 1,4,-1
 311 0 l 1,5,-1
 311 223 l 1,6,-1
 40 658 l 1,7,-1
 98 658 l 1,8,-1
 353 248 l 1,0,-1
510 248 m 1,9,-1
 510 198 l 1,10,-1
 156 198 l 1,11,-1
 156 248 l 1,12,-1
 510 248 l 1,9,-1
510 148 m 1,13,-1
 510 98 l 1,14,-1
 156 98 l 1,15,-1
 156 148 l 1,16,-1
 510 148 l 1,13,-1
EndSplineSet
Validated: 5
EndChar

StartChar: brokenbar
Encoding: 166 166 101
Width: 210
GlyphClass: 1
Flags: W
LayerCount: 2
Fore
SplineSet
80 0 m 1,0,-1
 80 254 l 1,1,-1
 130 254 l 1,2,-1
 130 0 l 1,3,-1
 80 0 l 1,0,-1
130 658 m 1,4,-1
 130 403 l 1,5,-1
 80 403 l 1,6,-1
 80 658 l 1,7,-1
 130 658 l 1,4,-1
EndSplineSet
Validated: 1
EndChar

StartChar: section
Encoding: 167 167 102
Width: 487
GlyphClass: 1
Flags: W
LayerCount: 2
Fore
SplineSet
428 110 m 0,1,2
 428 76 428 76 402.5 49 c 128,-1,3
 377 22 377 22 336.5 6.5 c 128,-1,4
 296 -9 296 -9 252 -9 c 0,5,6
 203 -9 203 -9 158 10 c 128,-1,7
 113 29 113 29 79 63 c 1,8,-1
 94 78 l 1,9,10
 125 46 125 46 166 29 c 128,-1,11
 207 12 207 12 252 12 c 0,12,13
 300 12 300 12 332 32 c 128,-1,14
 364 52 364 52 373 75 c 0,15,16
 377 86 377 86 377 97 c 0,17,18
 377 121 377 121 356 141.5 c 128,-1,19
 335 162 335 162 308.5 176 c 128,-1,20
 282 190 282 190 236 211 c 2,21,-1
 215 220 l 2,22,23
 161 244 161 244 130.5 260 c 128,-1,24
 100 276 100 276 80 298.5 c 128,-1,25
 60 321 60 321 60 350 c 0,26,27
 60 375 60 375 79.5 402 c 128,-1,28
 99 429 99 429 132 449 c 1,29,30
 60 493 60 493 60 549 c 0,31,32
 60 582 60 582 85 609 c 128,-1,33
 110 636 110 636 151 651.5 c 128,-1,34
 192 667 192 667 236 667 c 0,35,36
 285 667 285 667 330 648 c 128,-1,37
 375 629 375 629 409 595 c 1,38,-1
 394 580 l 1,39,40
 363 612 363 612 322 629 c 128,-1,41
 281 646 281 646 236 646 c 0,42,43
 188 646 188 646 156 626.5 c 128,-1,44
 124 607 124 607 114 583 c 0,45,46
 110 574 110 574 110 562 c 0,47,48
 110 527 110 527 147 502 c 128,-1,49
 184 477 184 477 252 447 c 2,50,-1
 272 438 l 2,51,52
 326 414 326 414 356.5 398 c 128,-1,53
 387 382 387 382 407 359.5 c 128,-1,54
 427 337 427 337 427 308 c 0,55,56
 427 283 427 283 407.5 256 c 128,-1,57
 388 229 388 229 356 209 c 1,58,0
 428 167 428 167 428 110 c 0,1,2
130.5 328 m 128,-1,60
 145 311 145 311 170 297.5 c 128,-1,61
 195 284 195 284 253 258 c 2,62,-1
 284 244 l 2,63,64
 299 238 299 238 329 224 c 1,65,66
 349 238 349 238 360.5 256 c 128,-1,67
 372 274 372 274 372 288 c 0,68,69
 372 313 372 313 357.5 330.5 c 128,-1,70
 343 348 343 348 319 360.5 c 128,-1,71
 295 373 295 373 235 400 c 0,72,73
 174 427 174 427 159 435 c 1,74,75
 138 421 138 421 127 403 c 128,-1,76
 116 385 116 385 116 370 c 0,77,59
 116 345 116 345 130.5 328 c 128,-1,60
EndSplineSet
Validated: 1
EndChar

StartChar: copyright
Encoding: 169 169 103
Width: 504
GlyphClass: 1
Flags: W
LayerCount: 2
Fore
SplineSet
307 635 m 128,-1,1
 333 623 333 623 352 602 c 1,2,-1
 337 589 l 1,3,4
 321 607 321 607 299 617 c 128,-1,5
 277 627 277 627 252 627 c 0,6,7
 210 627 210 627 188.5 594.5 c 128,-1,8
 167 562 167 562 167 511 c 0,9,10
 167 461 167 461 188.5 428.5 c 128,-1,11
 210 396 210 396 252 396 c 0,12,13
 279 396 279 396 302.5 407.5 c 128,-1,14
 326 419 326 419 342 440 c 1,15,-1
 358 428 l 1,16,17
 339 404 339 404 311.5 390 c 128,-1,18
 284 376 284 376 252 376 c 0,19,20
 215 376 215 376 184 394.5 c 128,-1,21
 153 413 153 413 135 444 c 128,-1,22
 117 475 117 475 117 511 c 0,23,24
 117 548 117 548 135 579 c 128,-1,25
 153 610 153 610 184 628.5 c 128,-1,26
 215 647 215 647 252 647 c 0,27,0
 281 647 281 647 307 635 c 128,-1,1
346 673 m 128,-1,29
 389 648 389 648 414 605 c 128,-1,30
 439 562 439 562 439 511 c 0,31,32
 439 461 439 461 414 418 c 128,-1,33
 389 375 389 375 346 350 c 128,-1,34
 303 325 303 325 252 325 c 256,35,36
 201 325 201 325 158 350 c 128,-1,37
 115 375 115 375 90 418 c 128,-1,38
 65 461 65 461 65 511 c 0,39,40
 65 562 65 562 90 605 c 128,-1,41
 115 648 115 648 158 673 c 128,-1,42
 201 698 201 698 252 698 c 256,43,28
 303 698 303 698 346 673 c 128,-1,29
335.5 367.5 m 128,-1,45
 374 390 374 390 396.5 428 c 128,-1,46
 419 466 419 466 419 511 c 256,47,48
 419 556 419 556 396.5 594.5 c 128,-1,49
 374 633 374 633 335.5 655.5 c 128,-1,50
 297 678 297 678 252 678 c 256,51,52
 207 678 207 678 168.5 655.5 c 128,-1,53
 130 633 130 633 107.5 594.5 c 128,-1,54
 85 556 85 556 85 511 c 256,55,56
 85 466 85 466 107.5 428 c 128,-1,57
 130 390 130 390 168.5 367.5 c 128,-1,58
 207 345 207 345 252 345 c 256,59,44
 297 345 297 345 335.5 367.5 c 128,-1,45
EndSplineSet
Validated: 1
EndChar

StartChar: guillemotleft
Encoding: 171 171 104
Width: 871
GlyphClass: 1
Flags: W
LayerCount: 2
Fore
SplineSet
60 330 m 1,0,-1
 497 567 l 1,1,-1
 497 511 l 1,2,-1
 133 313 l 1,3,-1
 497 115 l 1,4,-1
 497 92 l 1,5,-1
 60 330 l 1,0,-1
352 330 m 1,6,-1
 789 567 l 1,7,-1
 789 511 l 1,8,-1
 425 313 l 1,9,-1
 789 115 l 1,10,-1
 789 92 l 1,11,-1
 352 330 l 1,6,-1
EndSplineSet
Validated: 1
EndChar

StartChar: registered
Encoding: 174 174 105
Width: 504
GlyphClass: 1
Flags: W
LayerCount: 2
Fore
SplineSet
347 390 m 1,0,-1
 298 390 l 1,1,-1
 286 450 l 2,2,3
 280 475 280 475 268.5 485.5 c 128,-1,4
 257 496 257 496 229 496 c 2,5,-1
 207 496 l 1,6,-1
 207 390 l 1,7,-1
 159 390 l 1,8,-1
 159 635 l 1,9,-1
 266 635 l 2,10,11
 306 635 306 635 326.5 614.5 c 128,-1,12
 347 594 347 594 347 568 c 0,13,14
 347 547 347 547 332.5 528.5 c 128,-1,15
 318 510 318 510 290 504 c 1,16,17
 327 491 327 491 334 455 c 2,18,-1
 347 390 l 1,0,-1
288 531 m 128,-1,20
 298 547 298 547 298 566 c 256,21,22
 298 585 298 585 288.5 600.5 c 128,-1,23
 279 616 279 616 254 616 c 2,24,-1
 207 616 l 1,25,-1
 207 515 l 1,26,-1
 254 515 l 2,27,19
 278 515 278 515 288 531 c 128,-1,20
346 673 m 128,-1,29
 389 648 389 648 414 605 c 128,-1,30
 439 562 439 562 439 511 c 0,31,32
 439 461 439 461 414 418 c 128,-1,33
 389 375 389 375 346 350 c 128,-1,34
 303 325 303 325 252 325 c 256,35,36
 201 325 201 325 158 350 c 128,-1,37
 115 375 115 375 90 418 c 128,-1,38
 65 461 65 461 65 511 c 0,39,40
 65 562 65 562 90 605 c 128,-1,41
 115 648 115 648 158 673 c 128,-1,42
 201 698 201 698 252 698 c 256,43,28
 303 698 303 698 346 673 c 128,-1,29
335.5 367.5 m 128,-1,45
 374 390 374 390 396.5 428 c 128,-1,46
 419 466 419 466 419 511 c 256,47,48
 419 556 419 556 396.5 594.5 c 128,-1,49
 374 633 374 633 335.5 655.5 c 128,-1,50
 297 678 297 678 252 678 c 256,51,52
 207 678 207 678 168.5 655.5 c 128,-1,53
 130 633 130 633 107.5 594.5 c 128,-1,54
 85 556 85 556 85 511 c 256,55,56
 85 466 85 466 107.5 428 c 128,-1,57
 130 390 130 390 168.5 367.5 c 128,-1,58
 207 345 207 345 252 345 c 256,59,44
 297 345 297 345 335.5 367.5 c 128,-1,45
EndSplineSet
Validated: 1
EndChar

StartChar: degree
Encoding: 176 176 106
Width: 335
GlyphClass: 1
Flags: W
LayerCount: 2
Fore
SplineSet
236 527.5 m 128,-1,1
 265 556 265 556 265 596 c 0,2,3
 265 637 265 637 236.5 665.5 c 128,-1,4
 208 694 208 694 167 694 c 0,5,6
 127 694 127 694 98.5 665.5 c 128,-1,7
 70 637 70 637 70 596 c 0,8,9
 70 556 70 556 98.5 527.5 c 128,-1,10
 127 499 127 499 167 499 c 256,11,0
 207 499 207 499 236 527.5 c 128,-1,1
215 596 m 0,13,14
 215 519 215 519 167 519 c 0,15,16
 120 519 120 519 120 596 c 0,17,18
 120 674 120 674 167 674 c 0,19,12
 215 674 215 674 215 596 c 0,13,14
EndSplineSet
Validated: 9
EndChar

StartChar: paragraph
Encoding: 182 182 107
Width: 500
GlyphClass: 1
Flags: W
LayerCount: 2
Fore
SplineSet
318 658 m 1,0,-1
 318 0 l 1,1,-1
 269 0 l 1,2,-1
 269 299 l 1,3,4
 197 299 197 299 148.5 326 c 128,-1,5
 100 353 100 353 76.5 394.5 c 128,-1,6
 53 436 53 436 53 479 c 256,7,8
 53 522 53 522 76.5 563.5 c 128,-1,9
 100 605 100 605 149 631.5 c 128,-1,10
 198 658 198 658 269 658 c 2,11,-1
 318 658 l 1,0,-1
368 658 m 1,12,-1
 418 658 l 1,13,-1
 418 0 l 1,14,-1
 368 0 l 1,15,-1
 368 658 l 1,12,-1
EndSplineSet
Validated: 1
EndChar

StartChar: periodcentered
Encoding: 183 183 108
Width: 175
GlyphClass: 1
Flags: W
LayerCount: 2
Fore
SplineSet
107 348 m 128,-1,1
 99 356 99 356 87 356 c 0,2,3
 76 356 76 356 68 348 c 128,-1,4
 60 340 60 340 60 329 c 256,5,6
 60 318 60 318 68 310 c 128,-1,7
 76 302 76 302 87 302 c 256,8,9
 98 302 98 302 106.5 310 c 128,-1,10
 115 318 115 318 115 329 c 256,11,0
 115 340 115 340 107 348 c 128,-1,1
EndSplineSet
Validated: 9
EndChar

StartChar: guillemotright
Encoding: 187 187 109
Width: 871
GlyphClass: 1
Flags: W
LayerCount: 2
Fore
SplineSet
811 330 m 1,0,-1
 374 92 l 1,1,-1
 374 115 l 1,2,-1
 738 313 l 1,3,-1
 374 511 l 1,4,-1
 374 567 l 1,5,-1
 811 330 l 1,0,-1
519 330 m 1,6,-1
 82 92 l 1,7,-1
 82 115 l 1,8,-1
 446 313 l 1,9,-1
 82 511 l 1,10,-1
 82 567 l 1,11,-1
 519 330 l 1,6,-1
EndSplineSet
Validated: 1
EndChar

StartChar: questiondown
Encoding: 191 191 110
Width: 487
GlyphClass: 1
Flags: W
LayerCount: 2
Fore
SplineSet
151.5 19 m 128,-1,1
 107 44 107 44 82.5 85 c 128,-1,2
 58 126 58 126 58 174 c 0,3,4
 58 218 58 218 74.5 249 c 128,-1,5
 91 280 91 280 114 299 c 128,-1,6
 137 318 137 318 172 340 c 0,7,8
 196 355 196 355 202 360 c 0,9,10
 238 385 238 385 250 405.5 c 128,-1,11
 262 426 262 426 263 459 c 2,12,-1
 263 469 l 1,13,-1
 283 469 l 1,14,-1
 283 459 l 2,15,16
 283 427 283 427 277 398.5 c 128,-1,17
 271 370 271 370 246 349 c 2,18,-1
 213 321 l 2,19,20
 182 295 182 295 152 267 c 0,21,22
 112 227 112 227 112 165 c 0,23,24
 112 123 112 123 133.5 89.5 c 128,-1,25
 155 56 155 56 191 37 c 128,-1,26
 227 18 227 18 271 18 c 0,27,28
 353 18 353 18 400 101 c 0,29,30
 413 123 413 123 421 161 c 1,31,-1
 437 161 l 1,32,33
 436 147 436 147 429.5 127.5 c 128,-1,34
 423 108 423 108 414 91 c 0,35,36
 396 57 396 57 357.5 25.5 c 128,-1,37
 319 -6 319 -6 253 -6 c 0,38,0
 196 -6 196 -6 151.5 19 c 128,-1,1
306.5 645 m 128,-1,40
 293 658 293 658 273 658 c 0,41,42
 255 658 255 658 242 645 c 128,-1,43
 229 632 229 632 229 613 c 256,44,45
 229 594 229 594 242 581 c 128,-1,46
 255 568 255 568 273 568 c 0,47,48
 292 568 292 568 306 581 c 128,-1,49
 320 594 320 594 320 613 c 256,50,39
 320 632 320 632 306.5 645 c 128,-1,40
EndSplineSet
Validated: 9
EndChar

StartChar: Agrave
Encoding: 192 192 111
Width: 685
GlyphClass: 1
Flags: W
LayerCount: 2
Fore
SplineSet
266 834 m 1,0,-1
 362 704 l 1,1,-1
 338 704 l 1,2,-1
 204 834 l 1,3,-1
 266 834 l 1,0,-1
350 664 m 1,4,-1
 640 0 l 1,5,-1
 586 0 l 1,6,-1
 502 191 l 1,7,-1
 155 191 l 1,8,-1
 67 0 l 1,9,-1
 45 0 l 1,10,-1
 350 664 l 1,4,-1
164 211 m 1,11,-1
 494 211 l 1,12,-1
 333 579 l 1,13,-1
 164 211 l 1,11,-1
EndSplineSet
Validated: 1
EndChar

StartChar: Aacute
Encoding: 193 193 112
Width: 685
GlyphClass: 1
Flags: W
LayerCount: 2
Fore
SplineSet
350 664 m 1,0,-1
 640 0 l 1,1,-1
 586 0 l 1,2,-1
 502 191 l 1,3,-1
 155 191 l 1,4,-1
 67 0 l 1,5,-1
 45 0 l 1,6,-1
 350 664 l 1,0,-1
164 211 m 1,7,-1
 494 211 l 1,8,-1
 333 579 l 1,9,-1
 164 211 l 1,7,-1
434 834 m 1,10,-1
 496 834 l 1,11,-1
 362 704 l 1,12,-1
 338 704 l 1,13,-1
 434 834 l 1,10,-1
EndSplineSet
Validated: 1
EndChar

StartChar: Acircumflex
Encoding: 194 194 113
Width: 685
GlyphClass: 1
Flags: W
LayerCount: 2
Fore
SplineSet
350 664 m 1,0,-1
 640 0 l 1,1,-1
 586 0 l 1,2,-1
 502 191 l 1,3,-1
 155 191 l 1,4,-1
 67 0 l 1,5,-1
 45 0 l 1,6,-1
 350 664 l 1,0,-1
164 211 m 1,7,-1
 494 211 l 1,8,-1
 333 579 l 1,9,-1
 164 211 l 1,7,-1
332 815 m 1,10,-1
 249 704 l 1,11,-1
 224 704 l 1,12,-1
 350 873 l 1,13,-1
 476 704 l 1,14,-1
 414 704 l 1,15,-1
 332 815 l 1,10,-1
EndSplineSet
Validated: 1
EndChar

StartChar: Atilde
Encoding: 195 195 114
Width: 685
GlyphClass: 1
Flags: W
LayerCount: 2
Fore
SplineSet
446 719 m 128,-1,1
 427 704 427 704 402 704 c 0,2,3
 365 704 365 704 332 734 c 0,4,5
 316 748 316 748 303 754.5 c 128,-1,6
 290 761 290 761 276 759 c 0,7,8
 263 758 263 758 253.5 752 c 128,-1,9
 244 746 244 746 232 734 c 1,10,11
 232 734 232 734 217 748 c 1,12,13
 233 765 233 765 252 778 c 128,-1,14
 271 791 271 791 289 795 c 0,15,16
 301 797 301 797 306 797 c 0,17,18
 340 797 340 797 371 768 c 0,19,20
 400 741 400 741 421 741 c 0,21,22
 422 741 422 741 423 741 c 128,-1,23
 424 741 424 741 425 741 c 0,24,25
 436 741 436 741 446 747 c 128,-1,26
 456 753 456 753 469 767 c 1,27,28
 469 767 469 767 483 753 c 1,29,0
 465 734 465 734 446 719 c 128,-1,1
350 664 m 1,30,-1
 640 0 l 1,31,-1
 586 0 l 1,32,-1
 502 191 l 1,33,-1
 155 191 l 1,34,-1
 67 0 l 1,35,-1
 45 0 l 1,36,-1
 350 664 l 1,30,-1
164 211 m 1,37,-1
 494 211 l 1,38,-1
 333 579 l 1,39,-1
 164 211 l 1,37,-1
EndSplineSet
Validated: 1
EndChar

StartChar: Adieresis
Encoding: 196 196 115
Width: 685
GlyphClass: 1
Flags: W
LayerCount: 2
Fore
SplineSet
260 750 m 128,-1,1
 252 758 252 758 240 758 c 0,2,3
 229 758 229 758 221 750 c 128,-1,4
 213 742 213 742 213 731 c 256,5,6
 213 720 213 720 221 712 c 128,-1,7
 229 704 229 704 240 704 c 256,8,9
 251 704 251 704 259.5 712 c 128,-1,10
 268 720 268 720 268 731 c 256,11,0
 268 742 268 742 260 750 c 128,-1,1
479 750 m 128,-1,13
 471 758 471 758 459 758 c 0,14,15
 448 758 448 758 440 750 c 128,-1,16
 432 742 432 742 432 731 c 256,17,18
 432 720 432 720 440 712 c 128,-1,19
 448 704 448 704 459 704 c 256,20,21
 470 704 470 704 478.5 712 c 128,-1,22
 487 720 487 720 487 731 c 256,23,12
 487 742 487 742 479 750 c 128,-1,13
350 664 m 1,24,-1
 640 0 l 1,25,-1
 586 0 l 1,26,-1
 502 191 l 1,27,-1
 155 191 l 1,28,-1
 67 0 l 1,29,-1
 45 0 l 1,30,-1
 350 664 l 1,24,-1
164 211 m 1,31,-1
 494 211 l 1,32,-1
 333 579 l 1,33,-1
 164 211 l 1,31,-1
EndSplineSet
Validated: 9
EndChar

StartChar: Aring
Encoding: 197 197 116
Width: 685
GlyphClass: 1
Flags: W
LayerCount: 2
Fore
SplineSet
409.5 728.5 m 128,-1,1
 434 753 434 753 434 788 c 256,2,3
 434 823 434 823 409.5 847.5 c 128,-1,4
 385 872 385 872 350 872 c 0,5,6
 316 872 316 872 291 847.5 c 128,-1,7
 266 823 266 823 266 788 c 256,8,9
 266 753 266 753 290.5 728.5 c 128,-1,10
 315 704 315 704 350 704 c 256,11,0
 385 704 385 704 409.5 728.5 c 128,-1,1
384 832 m 128,-1,13
 394 812 394 812 394 788 c 256,14,15
 394 764 394 764 384 744 c 128,-1,16
 374 724 374 724 350 724 c 256,17,18
 326 724 326 724 316 744 c 128,-1,19
 306 764 306 764 306 788 c 256,20,21
 306 812 306 812 316 832 c 128,-1,22
 326 852 326 852 350 852 c 256,23,12
 374 852 374 852 384 832 c 128,-1,13
350 664 m 1,24,-1
 640 0 l 1,25,-1
 586 0 l 1,26,-1
 502 191 l 1,27,-1
 155 191 l 1,28,-1
 67 0 l 1,29,-1
 45 0 l 1,30,-1
 350 664 l 1,24,-1
164 211 m 1,31,-1
 494 211 l 1,32,-1
 333 579 l 1,33,-1
 164 211 l 1,31,-1
EndSplineSet
Validated: 9
EndChar

StartChar: AE
Encoding: 198 198 117
Width: 957
GlyphClass: 1
Flags: W
LayerCount: 2
Fore
SplineSet
877 638 m 1,0,-1
 511 638 l 1,1,-1
 511 339 l 1,2,-1
 802 339 l 1,3,-1
 802 319 l 1,4,-1
 511 319 l 1,5,-1
 511 20 l 1,6,-1
 877 20 l 1,7,-1
 877 0 l 1,8,-1
 461 0 l 1,9,-1
 461 191 l 1,10,-1
 178 191 l 1,11,-1
 68 0 l 1,12,-1
 45 0 l 1,13,-1
 422 658 l 1,14,-1
 877 658 l 1,15,-1
 877 638 l 1,0,-1
189 211 m 1,16,-1
 461 211 l 1,17,-1
 461 638 l 1,18,-1
 434 638 l 1,19,-1
 189 211 l 1,16,-1
EndSplineSet
Validated: 1
EndChar

StartChar: Ccedilla
Encoding: 199 199 118
Width: 677
GlyphClass: 1
Flags: W
LayerCount: 2
Fore
SplineSet
522.5 27.5 m 128,-1,1
 459 -3 459 -3 388 -5 c 1,2,-1
 388 -34 l 1,3,4
 418 -37 418 -37 440 -53 c 128,-1,5
 462 -69 462 -69 462 -98 c 0,6,7
 462 -130 462 -130 436 -146.5 c 128,-1,8
 410 -163 410 -163 378 -163 c 256,9,10
 346 -163 346 -163 320 -146.5 c 128,-1,11
 294 -130 294 -130 294 -98 c 1,12,-1
 334 -98 l 1,13,14
 334 -117 334 -117 345.5 -130 c 128,-1,15
 357 -143 357 -143 378 -143 c 256,16,17
 399 -143 399 -143 410.5 -130 c 128,-1,18
 422 -117 422 -117 422 -98 c 256,19,20
 422 -79 422 -79 411 -66.5 c 128,-1,21
 400 -54 400 -54 378 -54 c 2,22,-1
 368 -54 l 1,23,-1
 368 -5 l 1,24,25
 280 -3 280 -3 206 43 c 128,-1,26
 132 89 132 89 88.5 165 c 128,-1,27
 45 241 45 241 45 330 c 0,28,29
 45 421 45 421 90 498 c 128,-1,30
 135 575 135 575 211.5 620 c 128,-1,31
 288 665 288 665 378 665 c 0,32,33
 448 665 448 665 510.5 637.5 c 128,-1,34
 573 610 573 610 621 559 c 1,35,-1
 607 545 l 1,36,37
 510 645 510 645 378 645 c 0,38,39
 300 645 300 645 236 599.5 c 128,-1,40
 172 554 172 554 136 481 c 128,-1,41
 100 408 100 408 100 330 c 0,42,43
 100 251 100 251 136.5 178 c 128,-1,44
 173 105 173 105 236.5 60 c 128,-1,45
 300 15 300 15 378 15 c 0,46,47
 521 15 521 15 618 127 c 1,48,-1
 632 112 l 1,49,0
 586 58 586 58 522.5 27.5 c 128,-1,1
EndSplineSet
Validated: 1
EndChar

StartChar: Egrave
Encoding: 200 200 119
Width: 558
GlyphClass: 1
Flags: W
LayerCount: 2
Fore
SplineSet
206 833 m 1,0,-1
 302 703 l 1,1,-1
 278 703 l 1,2,-1
 144 833 l 1,3,-1
 206 833 l 1,0,-1
498 638 m 1,4,-1
 131 638 l 1,5,-1
 131 339 l 1,6,-1
 423 339 l 1,7,-1
 423 319 l 1,8,-1
 131 319 l 1,9,-1
 131 20 l 1,10,-1
 498 20 l 1,11,-1
 498 0 l 1,12,-1
 82 0 l 1,13,-1
 82 658 l 1,14,-1
 498 658 l 1,15,-1
 498 638 l 1,4,-1
EndSplineSet
Validated: 1
EndChar

StartChar: Eacute
Encoding: 201 201 120
Width: 558
GlyphClass: 1
Flags: W
LayerCount: 2
Fore
SplineSet
498 638 m 1,0,-1
 131 638 l 1,1,-1
 131 339 l 1,2,-1
 423 339 l 1,3,-1
 423 319 l 1,4,-1
 131 319 l 1,5,-1
 131 20 l 1,6,-1
 498 20 l 1,7,-1
 498 0 l 1,8,-1
 82 0 l 1,9,-1
 82 658 l 1,10,-1
 498 658 l 1,11,-1
 498 638 l 1,0,-1
374 833 m 1,12,-1
 436 833 l 1,13,-1
 302 703 l 1,14,-1
 278 703 l 1,15,-1
 374 833 l 1,12,-1
EndSplineSet
Validated: 1
EndChar

StartChar: Ecircumflex
Encoding: 202 202 121
Width: 558
GlyphClass: 1
Flags: W
LayerCount: 2
Fore
SplineSet
308 814 m 1,0,-1
 226 703 l 1,1,-1
 164 703 l 1,2,-1
 290 872 l 1,3,-1
 416 703 l 1,4,-1
 391 703 l 1,5,-1
 308 814 l 1,0,-1
498 638 m 1,6,-1
 131 638 l 1,7,-1
 131 339 l 1,8,-1
 423 339 l 1,9,-1
 423 319 l 1,10,-1
 131 319 l 1,11,-1
 131 20 l 1,12,-1
 498 20 l 1,13,-1
 498 0 l 1,14,-1
 82 0 l 1,15,-1
 82 658 l 1,16,-1
 498 658 l 1,17,-1
 498 638 l 1,6,-1
EndSplineSet
Validated: 1
EndChar

StartChar: Edieresis
Encoding: 203 203 122
Width: 558
GlyphClass: 1
Flags: W
LayerCount: 2
Fore
SplineSet
200 749 m 128,-1,1
 192 757 192 757 180 757 c 0,2,3
 169 757 169 757 161 749 c 128,-1,4
 153 741 153 741 153 730 c 256,5,6
 153 719 153 719 161 711 c 128,-1,7
 169 703 169 703 180 703 c 256,8,9
 191 703 191 703 199.5 711 c 128,-1,10
 208 719 208 719 208 730 c 256,11,0
 208 741 208 741 200 749 c 128,-1,1
419 749 m 128,-1,13
 411 757 411 757 399 757 c 0,14,15
 388 757 388 757 380 749 c 128,-1,16
 372 741 372 741 372 730 c 256,17,18
 372 719 372 719 380 711 c 128,-1,19
 388 703 388 703 399 703 c 256,20,21
 410 703 410 703 418.5 711 c 128,-1,22
 427 719 427 719 427 730 c 256,23,12
 427 741 427 741 419 749 c 128,-1,13
498 638 m 1,24,-1
 131 638 l 1,25,-1
 131 339 l 1,26,-1
 423 339 l 1,27,-1
 423 319 l 1,28,-1
 131 319 l 1,29,-1
 131 20 l 1,30,-1
 498 20 l 1,31,-1
 498 0 l 1,32,-1
 82 0 l 1,33,-1
 82 658 l 1,34,-1
 498 658 l 1,35,-1
 498 638 l 1,24,-1
EndSplineSet
Validated: 9
EndChar

StartChar: Igrave
Encoding: 204 204 123
Width: 230
GlyphClass: 1
Flags: W
LayerCount: 2
Fore
SplineSet
140 658 m 1,0,-1
 140 0 l 1,1,-1
 90 0 l 1,2,-1
 90 658 l 1,3,-1
 140 658 l 1,0,-1
31 859 m 1,4,-1
 127 729 l 1,5,-1
 103 729 l 1,6,-1
 -31 859 l 1,7,-1
 31 859 l 1,4,-1
EndSplineSet
Validated: 1
EndChar

StartChar: Iacute
Encoding: 205 205 124
Width: 230
GlyphClass: 1
Flags: W
LayerCount: 2
Fore
SplineSet
90 658 m 1,0,-1
 140 658 l 1,1,-1
 140 0 l 1,2,-1
 90 0 l 1,3,-1
 90 658 l 1,0,-1
199 859 m 1,4,-1
 261 859 l 1,5,-1
 127 729 l 1,6,-1
 103 729 l 1,7,-1
 199 859 l 1,4,-1
EndSplineSet
Validated: 1
EndChar

StartChar: Icircumflex
Encoding: 206 206 125
Width: 226
GlyphClass: 1
Flags: W
LayerCount: 2
Fore
SplineSet
138 658 m 1,0,-1
 138 0 l 1,1,-1
 88 0 l 1,2,-1
 88 658 l 1,3,-1
 138 658 l 1,0,-1
131 840 m 1,4,-1
 214 729 l 1,5,-1
 239 729 l 1,6,-1
 113 898 l 1,7,-1
 -13 729 l 1,8,-1
 49 729 l 1,9,-1
 131 840 l 1,4,-1
EndSplineSet
Validated: 9
EndChar

StartChar: Idieresis
Encoding: 207 207 126
Width: 230
GlyphClass: 1
Flags: W
LayerCount: 2
Fore
SplineSet
140 658 m 1,0,-1
 140 0 l 1,1,-1
 90 0 l 1,2,-1
 90 658 l 1,3,-1
 140 658 l 1,0,-1
25 775 m 128,-1,5
 17 783 17 783 5 783 c 0,6,7
 -6 783 -6 783 -14 775 c 128,-1,8
 -22 767 -22 767 -22 756 c 256,9,10
 -22 745 -22 745 -14 737 c 128,-1,11
 -6 729 -6 729 5 729 c 256,12,13
 16 729 16 729 24.5 737 c 128,-1,14
 33 745 33 745 33 756 c 256,15,4
 33 767 33 767 25 775 c 128,-1,5
244 775 m 128,-1,17
 236 783 236 783 224 783 c 0,18,19
 213 783 213 783 205 775 c 128,-1,20
 197 767 197 767 197 756 c 256,21,22
 197 745 197 745 205 737 c 128,-1,23
 213 729 213 729 224 729 c 256,24,25
 235 729 235 729 243.5 737 c 128,-1,26
 252 745 252 745 252 756 c 256,27,16
 252 767 252 767 244 775 c 128,-1,17
EndSplineSet
Validated: 9
EndChar

StartChar: Eth
Encoding: 208 208 127
Width: 661
GlyphClass: 1
Flags: W
LayerCount: 2
Fore
SplineSet
440.5 614.5 m 128,-1,1
 517 571 517 571 561.5 495.5 c 128,-1,2
 606 420 606 420 606 329 c 256,3,4
 606 238 606 238 561.5 162.5 c 128,-1,5
 517 87 517 87 440.5 43.5 c 128,-1,6
 364 0 364 0 273 0 c 2,7,-1
 83 0 l 1,8,-1
 83 658 l 1,9,-1
 273 658 l 2,10,0
 364 658 364 658 440.5 614.5 c 128,-1,1
414.5 64 m 128,-1,12
 478 108 478 108 514.5 179 c 128,-1,13
 551 250 551 250 551 329 c 0,14,15
 551 406 551 406 515 477.5 c 128,-1,16
 479 549 479 549 415.5 593.5 c 128,-1,17
 352 638 352 638 273 638 c 2,18,-1
 132 638 l 1,19,-1
 132 20 l 1,20,-1
 273 20 l 2,21,11
 351 20 351 20 414.5 64 c 128,-1,12
23 339 m 1,22,-1
 288 339 l 1,23,-1
 288 319 l 1,24,-1
 23 319 l 1,25,-1
 23 339 l 1,22,-1
EndSplineSet
Validated: 5
EndChar

StartChar: Ntilde
Encoding: 209 209 128
Width: 666
GlyphClass: 1
Flags: W
LayerCount: 2
Fore
SplineSet
429 770 m 128,-1,1
 448 785 448 785 466 804 c 1,2,-1
 452 818 l 1,3,4
 439 804 439 804 429 798 c 128,-1,5
 419 792 419 792 408 792 c 0,6,7
 407 792 407 792 406 792 c 0,8,9
 383 792 383 792 354 819 c 0,10,11
 320 848 320 848 289 848 c 0,12,13
 284 848 284 848 272 846 c 0,14,15
 254 842 254 842 235 829 c 128,-1,16
 216 816 216 816 200 799 c 1,17,-1
 215 785 l 1,18,19
 227 797 227 797 236.5 803 c 128,-1,20
 246 809 246 809 259 810 c 0,21,22
 273 812 273 812 286 805.5 c 128,-1,23
 299 799 299 799 315 785 c 0,24,25
 347 755 347 755 385 755 c 0,26,0
 410 755 410 755 429 770 c 128,-1,1
585 658 m 1,27,-1
 585 0 l 1,28,-1
 565 0 l 1,29,-1
 101 579 l 1,30,-1
 101 0 l 1,31,-1
 81 0 l 1,32,-1
 81 658 l 1,33,-1
 101 658 l 1,34,-1
 565 79 l 1,35,-1
 565 658 l 1,36,-1
 585 658 l 1,27,-1
EndSplineSet
Validated: 9
EndChar

StartChar: Ograve
Encoding: 210 210 129
Width: 766
GlyphClass: 1
Flags: W
LayerCount: 2
Fore
SplineSet
549.5 619 m 128,-1,1
 626 574 626 574 671 497 c 128,-1,2
 716 420 716 420 716 329 c 256,3,4
 716 238 716 238 671 161 c 128,-1,5
 626 84 626 84 549.5 39 c 128,-1,6
 473 -6 473 -6 383 -6 c 256,7,8
 293 -6 293 -6 216.5 39 c 128,-1,9
 140 84 140 84 95 161 c 128,-1,10
 50 238 50 238 50 329 c 256,11,12
 50 420 50 420 95 497 c 128,-1,13
 140 574 140 574 216.5 619 c 128,-1,14
 293 664 293 664 383 664 c 256,15,0
 473 664 473 664 549.5 619 c 128,-1,1
241 598.5 m 128,-1,17
 177 553 177 553 141 480 c 128,-1,18
 105 407 105 407 105 329 c 0,19,20
 105 250 105 250 141.5 177 c 128,-1,21
 178 104 178 104 241.5 59 c 128,-1,22
 305 14 305 14 383 14 c 256,23,24
 461 14 461 14 524.5 59 c 128,-1,25
 588 104 588 104 624.5 177 c 128,-1,26
 661 250 661 250 661 329 c 0,27,28
 661 407 661 407 625 480 c 128,-1,29
 589 553 589 553 525 598.5 c 128,-1,30
 461 644 461 644 383 644 c 256,31,16
 305 644 305 644 241 598.5 c 128,-1,17
299 834 m 1,32,-1
 395 704 l 1,33,-1
 371 704 l 1,34,-1
 237 834 l 1,35,-1
 299 834 l 1,32,-1
EndSplineSet
Validated: 1
EndChar

StartChar: Oacute
Encoding: 211 211 130
Width: 766
GlyphClass: 1
Flags: W
LayerCount: 2
Fore
SplineSet
549.5 619 m 128,-1,1
 626 574 626 574 671 497 c 128,-1,2
 716 420 716 420 716 329 c 256,3,4
 716 238 716 238 671 161 c 128,-1,5
 626 84 626 84 549.5 39 c 128,-1,6
 473 -6 473 -6 383 -6 c 256,7,8
 293 -6 293 -6 216.5 39 c 128,-1,9
 140 84 140 84 95 161 c 128,-1,10
 50 238 50 238 50 329 c 256,11,12
 50 420 50 420 95 497 c 128,-1,13
 140 574 140 574 216.5 619 c 128,-1,14
 293 664 293 664 383 664 c 256,15,0
 473 664 473 664 549.5 619 c 128,-1,1
241 598.5 m 128,-1,17
 177 553 177 553 141 480 c 128,-1,18
 105 407 105 407 105 329 c 0,19,20
 105 250 105 250 141.5 177 c 128,-1,21
 178 104 178 104 241.5 59 c 128,-1,22
 305 14 305 14 383 14 c 256,23,24
 461 14 461 14 524.5 59 c 128,-1,25
 588 104 588 104 624.5 177 c 128,-1,26
 661 250 661 250 661 329 c 0,27,28
 661 407 661 407 625 480 c 128,-1,29
 589 553 589 553 525 598.5 c 128,-1,30
 461 644 461 644 383 644 c 256,31,16
 305 644 305 644 241 598.5 c 128,-1,17
467 834 m 1,32,-1
 529 834 l 1,33,-1
 395 704 l 1,34,-1
 371 704 l 1,35,-1
 467 834 l 1,32,-1
EndSplineSet
Validated: 1
EndChar

StartChar: Ocircumflex
Encoding: 212 212 131
Width: 766
GlyphClass: 1
Flags: W
LayerCount: 2
Fore
SplineSet
401 815 m 1,0,-1
 484 704 l 1,1,-1
 509 704 l 1,2,-1
 383 873 l 1,3,-1
 257 704 l 1,4,-1
 319 704 l 1,5,-1
 401 815 l 1,0,-1
549.5 619 m 128,-1,7
 626 574 626 574 671 497 c 128,-1,8
 716 420 716 420 716 329 c 256,9,10
 716 238 716 238 671 161 c 128,-1,11
 626 84 626 84 549.5 39 c 128,-1,12
 473 -6 473 -6 383 -6 c 256,13,14
 293 -6 293 -6 216.5 39 c 128,-1,15
 140 84 140 84 95 161 c 128,-1,16
 50 238 50 238 50 329 c 256,17,18
 50 420 50 420 95 497 c 128,-1,19
 140 574 140 574 216.5 619 c 128,-1,20
 293 664 293 664 383 664 c 256,21,6
 473 664 473 664 549.5 619 c 128,-1,7
241 598.5 m 128,-1,23
 177 553 177 553 141 480 c 128,-1,24
 105 407 105 407 105 329 c 0,25,26
 105 250 105 250 141.5 177 c 128,-1,27
 178 104 178 104 241.5 59 c 128,-1,28
 305 14 305 14 383 14 c 256,29,30
 461 14 461 14 524.5 59 c 128,-1,31
 588 104 588 104 624.5 177 c 128,-1,32
 661 250 661 250 661 329 c 0,33,34
 661 407 661 407 625 480 c 128,-1,35
 589 553 589 553 525 598.5 c 128,-1,36
 461 644 461 644 383 644 c 256,37,22
 305 644 305 644 241 598.5 c 128,-1,23
EndSplineSet
Validated: 9
EndChar

StartChar: Otilde
Encoding: 213 213 132
Width: 766
GlyphClass: 1
Flags: W
LayerCount: 2
Fore
SplineSet
479 719 m 128,-1,1
 498 734 498 734 516 753 c 1,2,-1
 502 767 l 1,3,4
 489 753 489 753 479 747 c 128,-1,5
 469 741 469 741 458 741 c 0,6,7
 457 741 457 741 456 741 c 0,8,9
 433 741 433 741 404 768 c 0,10,11
 370 797 370 797 339 797 c 0,12,13
 334 797 334 797 322 795 c 0,14,15
 304 791 304 791 285 778 c 128,-1,16
 266 765 266 765 250 748 c 1,17,-1
 265 734 l 1,18,19
 277 746 277 746 286.5 752 c 128,-1,20
 296 758 296 758 309 759 c 0,21,22
 323 761 323 761 336 754.5 c 128,-1,23
 349 748 349 748 365 734 c 0,24,25
 397 704 397 704 435 704 c 0,26,0
 460 704 460 704 479 719 c 128,-1,1
549.5 619 m 128,-1,28
 626 574 626 574 671 497 c 128,-1,29
 716 420 716 420 716 329 c 256,30,31
 716 238 716 238 671 161 c 128,-1,32
 626 84 626 84 549.5 39 c 128,-1,33
 473 -6 473 -6 383 -6 c 256,34,35
 293 -6 293 -6 216.5 39 c 128,-1,36
 140 84 140 84 95 161 c 128,-1,37
 50 238 50 238 50 329 c 256,38,39
 50 420 50 420 95 497 c 128,-1,40
 140 574 140 574 216.5 619 c 128,-1,41
 293 664 293 664 383 664 c 256,42,27
 473 664 473 664 549.5 619 c 128,-1,28
241 598.5 m 128,-1,44
 177 553 177 553 141 480 c 128,-1,45
 105 407 105 407 105 329 c 0,46,47
 105 250 105 250 141.5 177 c 128,-1,48
 178 104 178 104 241.5 59 c 128,-1,49
 305 14 305 14 383 14 c 256,50,51
 461 14 461 14 524.5 59 c 128,-1,52
 588 104 588 104 624.5 177 c 128,-1,53
 661 250 661 250 661 329 c 0,54,55
 661 407 661 407 625 480 c 128,-1,56
 589 553 589 553 525 598.5 c 128,-1,57
 461 644 461 644 383 644 c 256,58,43
 305 644 305 644 241 598.5 c 128,-1,44
EndSplineSet
Validated: 9
EndChar

StartChar: Odieresis
Encoding: 214 214 133
Width: 766
GlyphClass: 1
Flags: W
LayerCount: 2
Fore
SplineSet
293 750 m 128,-1,1
 285 758 285 758 273 758 c 0,2,3
 262 758 262 758 254 750 c 128,-1,4
 246 742 246 742 246 731 c 256,5,6
 246 720 246 720 254 712 c 128,-1,7
 262 704 262 704 273 704 c 256,8,9
 284 704 284 704 292.5 712 c 128,-1,10
 301 720 301 720 301 731 c 256,11,0
 301 742 301 742 293 750 c 128,-1,1
512 750 m 128,-1,13
 504 758 504 758 492 758 c 0,14,15
 481 758 481 758 473 750 c 128,-1,16
 465 742 465 742 465 731 c 256,17,18
 465 720 465 720 473 712 c 128,-1,19
 481 704 481 704 492 704 c 256,20,21
 503 704 503 704 511.5 712 c 128,-1,22
 520 720 520 720 520 731 c 256,23,12
 520 742 520 742 512 750 c 128,-1,13
549.5 619 m 128,-1,25
 626 574 626 574 671 497 c 128,-1,26
 716 420 716 420 716 329 c 256,27,28
 716 238 716 238 671 161 c 128,-1,29
 626 84 626 84 549.5 39 c 128,-1,30
 473 -6 473 -6 383 -6 c 256,31,32
 293 -6 293 -6 216.5 39 c 128,-1,33
 140 84 140 84 95 161 c 128,-1,34
 50 238 50 238 50 329 c 256,35,36
 50 420 50 420 95 497 c 128,-1,37
 140 574 140 574 216.5 619 c 128,-1,38
 293 664 293 664 383 664 c 256,39,24
 473 664 473 664 549.5 619 c 128,-1,25
241 598.5 m 128,-1,41
 177 553 177 553 141 480 c 128,-1,42
 105 407 105 407 105 329 c 0,43,44
 105 250 105 250 141.5 177 c 128,-1,45
 178 104 178 104 241.5 59 c 128,-1,46
 305 14 305 14 383 14 c 256,47,48
 461 14 461 14 524.5 59 c 128,-1,49
 588 104 588 104 624.5 177 c 128,-1,50
 661 250 661 250 661 329 c 0,51,52
 661 407 661 407 625 480 c 128,-1,53
 589 553 589 553 525 598.5 c 128,-1,54
 461 644 461 644 383 644 c 256,55,40
 305 644 305 644 241 598.5 c 128,-1,41
EndSplineSet
Validated: 9
EndChar

StartChar: multiply
Encoding: 215 215 134
Width: 541
GlyphClass: 1
Flags: W
LayerCount: 2
Fore
SplineSet
439 531 m 1,0,-1
 466 531 l 1,1,-1
 102 130 l 1,2,-1
 75 130 l 1,3,-1
 439 531 l 1,0,-1
140 531 m 1,4,-1
 466 130 l 1,5,-1
 401 130 l 1,6,-1
 75 531 l 1,7,-1
 140 531 l 1,4,-1
EndSplineSet
Validated: 5
EndChar

StartChar: Oslash
Encoding: 216 216 135
Width: 765
GlyphClass: 1
Flags: W
LayerCount: 2
Fore
SplineSet
240 598.5 m 128,-1,1
 176 553 176 553 140 480 c 128,-1,2
 104 407 104 407 104 329 c 0,3,4
 104 250 104 250 140.5 177 c 128,-1,5
 177 104 177 104 240.5 59 c 128,-1,6
 304 14 304 14 382 14 c 256,7,8
 460 14 460 14 523.5 59 c 128,-1,9
 587 104 587 104 623.5 177 c 128,-1,10
 660 250 660 250 660 329 c 0,11,12
 660 407 660 407 624 480 c 128,-1,13
 588 553 588 553 524 598.5 c 128,-1,14
 460 644 460 644 382 644 c 256,15,0
 304 644 304 644 240 598.5 c 128,-1,1
548.5 619 m 128,-1,17
 625 574 625 574 670 497 c 128,-1,18
 715 420 715 420 715 329 c 256,19,20
 715 238 715 238 670 161 c 128,-1,21
 625 84 625 84 548.5 39 c 128,-1,22
 472 -6 472 -6 382 -6 c 256,23,24
 292 -6 292 -6 215.5 39 c 128,-1,25
 139 84 139 84 94 161 c 128,-1,26
 49 238 49 238 49 329 c 256,27,28
 49 420 49 420 94 497 c 128,-1,29
 139 574 139 574 215.5 619 c 128,-1,30
 292 664 292 664 382 664 c 256,31,16
 472 664 472 664 548.5 619 c 128,-1,17
48 -6 m 1,32,-1
 650 664 l 1,33,-1
 717 664 l 1,34,-1
 115 -6 l 1,35,-1
 48 -6 l 1,32,-1
EndSplineSet
Validated: 5
EndChar

StartChar: Ugrave
Encoding: 217 217 136
Width: 663
GlyphClass: 1
Flags: W
LayerCount: 2
Fore
SplineSet
250 833 m 1,0,-1
 346 703 l 1,1,-1
 322 703 l 1,2,-1
 188 833 l 1,3,-1
 250 833 l 1,0,-1
566 658 m 1,4,-1
 585 658 l 1,5,-1
 585 269 l 2,6,7
 585 197 585 197 560.5 135 c 128,-1,8
 536 73 536 73 479.5 33.5 c 128,-1,9
 423 -6 423 -6 333 -6 c 0,10,11
 291 -6 291 -6 248 5 c 128,-1,12
 205 16 205 16 164 52 c 0,13,14
 82 124 82 124 82 274 c 2,15,-1
 82 658 l 1,16,-1
 131 658 l 1,17,-1
 131 254 l 2,18,19
 131 132 131 132 191.5 73 c 128,-1,20
 252 14 252 14 348 14 c 0,21,22
 420 14 420 14 469 49 c 128,-1,23
 518 84 518 84 542 142 c 128,-1,24
 566 200 566 200 566 269 c 2,25,-1
 566 658 l 1,4,-1
EndSplineSet
Validated: 1
EndChar

StartChar: Uacute
Encoding: 218 218 137
Width: 663
GlyphClass: 1
Flags: W
LayerCount: 2
Fore
SplineSet
566 658 m 1,0,-1
 585 658 l 1,1,-1
 585 269 l 2,2,3
 585 197 585 197 560.5 135 c 128,-1,4
 536 73 536 73 479.5 33.5 c 128,-1,5
 423 -6 423 -6 333 -6 c 0,6,7
 291 -6 291 -6 248 5 c 128,-1,8
 205 16 205 16 164 52 c 0,9,10
 82 124 82 124 82 274 c 2,11,-1
 82 658 l 1,12,-1
 131 658 l 1,13,-1
 131 254 l 2,14,15
 131 132 131 132 191.5 73 c 128,-1,16
 252 14 252 14 348 14 c 0,17,18
 420 14 420 14 469 49 c 128,-1,19
 518 84 518 84 542 142 c 128,-1,20
 566 200 566 200 566 269 c 2,21,-1
 566 658 l 1,0,-1
418 833 m 1,22,-1
 480 833 l 1,23,-1
 346 703 l 1,24,-1
 322 703 l 1,25,-1
 418 833 l 1,22,-1
EndSplineSet
Validated: 1
EndChar

StartChar: Ucircumflex
Encoding: 219 219 138
Width: 663
GlyphClass: 1
Flags: W
LayerCount: 2
Fore
SplineSet
566 658 m 1,0,-1
 585 658 l 1,1,-1
 585 269 l 2,2,3
 585 197 585 197 560.5 135 c 128,-1,4
 536 73 536 73 479.5 33.5 c 128,-1,5
 423 -6 423 -6 333 -6 c 0,6,7
 291 -6 291 -6 248 5 c 128,-1,8
 205 16 205 16 164 52 c 0,9,10
 82 124 82 124 82 274 c 2,11,-1
 82 658 l 1,12,-1
 131 658 l 1,13,-1
 131 254 l 2,14,15
 131 132 131 132 191.5 73 c 128,-1,16
 252 14 252 14 348 14 c 0,17,18
 420 14 420 14 469 49 c 128,-1,19
 518 84 518 84 542 142 c 128,-1,20
 566 200 566 200 566 269 c 2,21,-1
 566 658 l 1,0,-1
351 814 m 1,22,-1
 434 703 l 1,23,-1
 459 703 l 1,24,-1
 333 872 l 1,25,-1
 207 703 l 1,26,-1
 269 703 l 1,27,-1
 351 814 l 1,22,-1
EndSplineSet
Validated: 9
EndChar

StartChar: Udieresis
Encoding: 220 220 139
Width: 663
GlyphClass: 1
Flags: W
LayerCount: 2
Fore
SplineSet
243 749 m 128,-1,1
 235 757 235 757 223 757 c 0,2,3
 212 757 212 757 204 749 c 128,-1,4
 196 741 196 741 196 730 c 256,5,6
 196 719 196 719 204 711 c 128,-1,7
 212 703 212 703 223 703 c 256,8,9
 234 703 234 703 242.5 711 c 128,-1,10
 251 719 251 719 251 730 c 256,11,0
 251 741 251 741 243 749 c 128,-1,1
462 749 m 128,-1,13
 454 757 454 757 442 757 c 0,14,15
 431 757 431 757 423 749 c 128,-1,16
 415 741 415 741 415 730 c 256,17,18
 415 719 415 719 423 711 c 128,-1,19
 431 703 431 703 442 703 c 256,20,21
 453 703 453 703 461.5 711 c 128,-1,22
 470 719 470 719 470 730 c 256,23,12
 470 741 470 741 462 749 c 128,-1,13
566 658 m 1,24,-1
 585 658 l 1,25,-1
 585 269 l 2,26,27
 585 197 585 197 560.5 135 c 128,-1,28
 536 73 536 73 479.5 33.5 c 128,-1,29
 423 -6 423 -6 333 -6 c 0,30,31
 291 -6 291 -6 248 5 c 128,-1,32
 205 16 205 16 164 52 c 0,33,34
 82 124 82 124 82 274 c 2,35,-1
 82 658 l 1,36,-1
 131 658 l 1,37,-1
 131 254 l 2,38,39
 131 132 131 132 191.5 73 c 128,-1,40
 252 14 252 14 348 14 c 0,41,42
 420 14 420 14 469 49 c 128,-1,43
 518 84 518 84 542 142 c 128,-1,44
 566 200 566 200 566 269 c 2,45,-1
 566 658 l 1,24,-1
EndSplineSet
Validated: 9
EndChar

StartChar: Yacute
Encoding: 221 221 140
Width: 676
GlyphClass: 1
Flags: W
LayerCount: 2
Fore
SplineSet
353 248 m 1,0,-1
 611 658 l 1,1,-1
 635 658 l 1,2,-1
 360 222 l 1,3,-1
 360 0 l 1,4,-1
 311 0 l 1,5,-1
 311 223 l 1,6,-1
 40 658 l 1,7,-1
 98 658 l 1,8,-1
 353 248 l 1,0,-1
419 833 m 1,9,-1
 481 833 l 1,10,-1
 347 703 l 1,11,-1
 323 703 l 1,12,-1
 419 833 l 1,9,-1
EndSplineSet
Validated: 1
EndChar

StartChar: Thorn
Encoding: 222 222 141
Width: 640
GlyphClass: 1
Flags: W
LayerCount: 2
Fore
SplineSet
487 228 m 0,0,1
 530 265 530 265 530 337 c 0,2,3
 530 342 530 342 530 347 c 0,4,5
 527 429 527 429 483 468.5 c 128,-1,6
 439 508 439 508 362 508 c 2,7,-1
 130 508 l 1,8,-1
 130 189 l 1,9,-1
 362 189 l 2,10,11
 441 189 441 189 487 228 c 0,0,1
561.5 263.5 m 128,-1,13
 538 222 538 222 489 195.5 c 128,-1,14
 440 169 440 169 369 169 c 2,15,-1
 130 169 l 1,16,-1
 130 0 l 1,17,-1
 81 0 l 1,18,-1
 81 658 l 1,19,-1
 130 658 l 1,20,-1
 130 528 l 1,21,-1
 369 528 l 2,22,23
 441 528 441 528 489.5 501 c 128,-1,24
 538 474 538 474 561.5 432.5 c 128,-1,25
 585 391 585 391 585 348 c 256,26,12
 585 305 585 305 561.5 263.5 c 128,-1,13
EndSplineSet
Validated: 1
EndChar

StartChar: germandbls
Encoding: 223 223 142
Width: 635
GlyphClass: 1
Flags: W
LayerCount: 2
Fore
SplineSet
569 245 m 128,-1,1
 585 214 585 214 585 182 c 0,2,3
 585 152 585 152 569 118.5 c 128,-1,4
 553 85 553 85 522 58 c 0,5,6
 489 28 489 28 443.5 14 c 128,-1,7
 398 0 398 0 334 0 c 2,8,-1
 230 0 l 1,9,-1
 230 20 l 1,10,-1
 323 20 l 2,11,12
 412 20 412 20 471 61 c 128,-1,13
 530 102 530 102 530 187 c 0,14,15
 530 228 530 228 506 263 c 128,-1,16
 482 298 482 298 436 319 c 128,-1,17
 390 340 390 340 329 340 c 2,18,-1
 230 340 l 1,19,-1
 230 360 l 1,20,-1
 298 360 l 2,21,22
 365 360 365 360 415.5 390.5 c 128,-1,23
 466 421 466 421 466 499 c 0,24,25
 466 576 466 576 416.5 607 c 128,-1,26
 367 638 367 638 301 638 c 0,27,28
 234 638 234 638 182.5 607 c 128,-1,29
 131 576 131 576 131 499 c 2,30,-1
 131 0 l 1,31,-1
 81 0 l 1,32,-1
 81 499 l 2,33,34
 81 534 81 534 97.5 564.5 c 128,-1,35
 114 595 114 595 140 616 c 0,36,37
 165 635 165 635 206 646.5 c 128,-1,38
 247 658 247 658 294 658 c 2,39,-1
 308 658 l 2,40,41
 355 658 355 658 396 646.5 c 128,-1,42
 437 635 437 635 462 616 c 0,43,44
 488 595 488 595 504.5 564.5 c 128,-1,45
 521 534 521 534 521 499 c 256,46,47
 521 464 521 464 504.5 433.5 c 128,-1,48
 488 403 488 403 462 382 c 0,49,50
 435 361 435 361 416 355 c 1,51,52
 440 351 440 351 471.5 336 c 128,-1,53
 503 321 503 321 524 302 c 0,54,0
 553 276 553 276 569 245 c 128,-1,1
EndSplineSet
Validated: 1
EndChar

StartChar: agrave
Encoding: 224 224 143
Width: 623
GlyphClass: 1
Flags: W
LayerCount: 2
Fore
SplineSet
212 676 m 1,0,-1
 308 546 l 1,1,-1
 284 546 l 1,2,-1
 150 676 l 1,3,-1
 212 676 l 1,0,-1
542 0 m 1,4,-1
 492 0 l 1,5,-1
 492 92 l 1,6,7
 458 46 458 46 406.5 20 c 128,-1,8
 355 -6 355 -6 296 -6 c 0,9,10
 229 -6 229 -6 172.5 27 c 128,-1,11
 116 60 116 60 83 116.5 c 128,-1,12
 50 173 50 173 50 240 c 256,13,14
 50 307 50 307 83 363.5 c 128,-1,15
 116 420 116 420 172.5 453 c 128,-1,16
 229 486 229 486 296 486 c 0,17,18
 355 486 355 486 406.5 460 c 128,-1,19
 458 434 458 434 492 388 c 1,20,-1
 492 480 l 1,21,-1
 542 480 l 1,22,-1
 542 0 l 1,4,-1
412 46 m 128,-1,24
 463 77 463 77 492 129 c 1,25,-1
 492 350 l 1,26,27
 463 402 463 402 412 433.5 c 128,-1,28
 361 465 361 465 296 465 c 0,29,30
 233 465 233 465 189.5 432.5 c 128,-1,31
 146 400 146 400 125.5 348.5 c 128,-1,32
 105 297 105 297 105 240 c 256,33,34
 105 183 105 183 126 131.5 c 128,-1,35
 147 80 147 80 190 47.5 c 128,-1,36
 233 15 233 15 296 15 c 0,37,23
 361 15 361 15 412 46 c 128,-1,24
EndSplineSet
Validated: 1
EndChar

StartChar: aacute
Encoding: 225 225 144
Width: 623
GlyphClass: 1
Flags: W
LayerCount: 2
Fore
SplineSet
380 676 m 1,0,-1
 442 676 l 1,1,-1
 308 546 l 1,2,-1
 284 546 l 1,3,-1
 380 676 l 1,0,-1
542 0 m 1,4,-1
 492 0 l 1,5,-1
 492 92 l 1,6,7
 458 46 458 46 406.5 20 c 128,-1,8
 355 -6 355 -6 296 -6 c 0,9,10
 229 -6 229 -6 172.5 27 c 128,-1,11
 116 60 116 60 83 116.5 c 128,-1,12
 50 173 50 173 50 240 c 256,13,14
 50 307 50 307 83 363.5 c 128,-1,15
 116 420 116 420 172.5 453 c 128,-1,16
 229 486 229 486 296 486 c 0,17,18
 355 486 355 486 406.5 460 c 128,-1,19
 458 434 458 434 492 388 c 1,20,-1
 492 480 l 1,21,-1
 542 480 l 1,22,-1
 542 0 l 1,4,-1
412 46 m 128,-1,24
 463 77 463 77 492 129 c 1,25,-1
 492 350 l 1,26,27
 463 402 463 402 412 433.5 c 128,-1,28
 361 465 361 465 296 465 c 0,29,30
 233 465 233 465 189.5 432.5 c 128,-1,31
 146 400 146 400 125.5 348.5 c 128,-1,32
 105 297 105 297 105 240 c 256,33,34
 105 183 105 183 126 131.5 c 128,-1,35
 147 80 147 80 190 47.5 c 128,-1,36
 233 15 233 15 296 15 c 0,37,23
 361 15 361 15 412 46 c 128,-1,24
EndSplineSet
Validated: 1
EndChar

StartChar: acircumflex
Encoding: 226 226 145
Width: 623
GlyphClass: 1
Flags: W
LayerCount: 2
Fore
SplineSet
314 657 m 1,0,-1
 232 546 l 1,1,-1
 170 546 l 1,2,-1
 296 715 l 1,3,-1
 422 546 l 1,4,-1
 397 546 l 1,5,-1
 314 657 l 1,0,-1
542 0 m 1,6,-1
 492 0 l 1,7,-1
 492 92 l 1,8,9
 458 46 458 46 406.5 20 c 128,-1,10
 355 -6 355 -6 296 -6 c 0,11,12
 229 -6 229 -6 172.5 27 c 128,-1,13
 116 60 116 60 83 116.5 c 128,-1,14
 50 173 50 173 50 240 c 256,15,16
 50 307 50 307 83 363.5 c 128,-1,17
 116 420 116 420 172.5 453 c 128,-1,18
 229 486 229 486 296 486 c 0,19,20
 355 486 355 486 406.5 460 c 128,-1,21
 458 434 458 434 492 388 c 1,22,-1
 492 480 l 1,23,-1
 542 480 l 1,24,-1
 542 0 l 1,6,-1
412 46 m 128,-1,26
 463 77 463 77 492 129 c 1,27,-1
 492 350 l 1,28,29
 463 402 463 402 412 433.5 c 128,-1,30
 361 465 361 465 296 465 c 0,31,32
 233 465 233 465 189.5 432.5 c 128,-1,33
 146 400 146 400 125.5 348.5 c 128,-1,34
 105 297 105 297 105 240 c 256,35,36
 105 183 105 183 126 131.5 c 128,-1,37
 147 80 147 80 190 47.5 c 128,-1,38
 233 15 233 15 296 15 c 0,39,25
 361 15 361 15 412 46 c 128,-1,26
EndSplineSet
Validated: 1
EndChar

StartChar: atilde
Encoding: 227 227 146
Width: 623
GlyphClass: 1
Flags: W
LayerCount: 2
Fore
SplineSet
392 561 m 128,-1,1
 373 546 373 546 348 546 c 0,2,3
 311 546 311 546 278 576 c 0,4,5
 262 590 262 590 249 596.5 c 128,-1,6
 236 603 236 603 222 601 c 0,7,8
 209 600 209 600 199.5 594 c 128,-1,9
 190 588 190 588 178 576 c 1,10,11
 178 576 178 576 163 590 c 1,12,13
 179 607 179 607 198 620 c 128,-1,14
 217 633 217 633 235 637 c 0,15,16
 247 639 247 639 252 639 c 0,17,18
 286 639 286 639 317 610 c 0,19,20
 346 583 346 583 367 583 c 0,21,22
 368 583 368 583 369 583 c 128,-1,23
 370 583 370 583 371 583 c 0,24,25
 382 583 382 583 392 589 c 128,-1,26
 402 595 402 595 415 609 c 1,27,28
 415 609 415 609 429 595 c 1,29,0
 411 576 411 576 392 561 c 128,-1,1
542 0 m 1,30,-1
 492 0 l 1,31,-1
 492 92 l 1,32,33
 458 46 458 46 406.5 20 c 128,-1,34
 355 -6 355 -6 296 -6 c 0,35,36
 229 -6 229 -6 172.5 27 c 128,-1,37
 116 60 116 60 83 116.5 c 128,-1,38
 50 173 50 173 50 240 c 256,39,40
 50 307 50 307 83 363.5 c 128,-1,41
 116 420 116 420 172.5 453 c 128,-1,42
 229 486 229 486 296 486 c 0,43,44
 355 486 355 486 406.5 460 c 128,-1,45
 458 434 458 434 492 388 c 1,46,-1
 492 480 l 1,47,-1
 542 480 l 1,48,-1
 542 0 l 1,30,-1
412 46 m 128,-1,50
 463 77 463 77 492 129 c 1,51,-1
 492 350 l 1,52,53
 463 402 463 402 412 433.5 c 128,-1,54
 361 465 361 465 296 465 c 0,55,56
 233 465 233 465 189.5 432.5 c 128,-1,57
 146 400 146 400 125.5 348.5 c 128,-1,58
 105 297 105 297 105 240 c 256,59,60
 105 183 105 183 126 131.5 c 128,-1,61
 147 80 147 80 190 47.5 c 128,-1,62
 233 15 233 15 296 15 c 0,63,49
 361 15 361 15 412 46 c 128,-1,50
EndSplineSet
Validated: 1
EndChar

StartChar: adieresis
Encoding: 228 228 147
Width: 623
GlyphClass: 1
Flags: W
LayerCount: 2
Fore
SplineSet
206 592 m 128,-1,1
 198 600 198 600 186 600 c 0,2,3
 175 600 175 600 167 592 c 128,-1,4
 159 584 159 584 159 573 c 256,5,6
 159 562 159 562 167 554 c 128,-1,7
 175 546 175 546 186 546 c 256,8,9
 197 546 197 546 205.5 554 c 128,-1,10
 214 562 214 562 214 573 c 256,11,0
 214 584 214 584 206 592 c 128,-1,1
425 592 m 128,-1,13
 417 600 417 600 405 600 c 0,14,15
 394 600 394 600 386 592 c 128,-1,16
 378 584 378 584 378 573 c 256,17,18
 378 562 378 562 386 554 c 128,-1,19
 394 546 394 546 405 546 c 256,20,21
 416 546 416 546 424.5 554 c 128,-1,22
 433 562 433 562 433 573 c 256,23,12
 433 584 433 584 425 592 c 128,-1,13
542 0 m 1,24,-1
 492 0 l 1,25,-1
 492 92 l 1,26,27
 458 46 458 46 406.5 20 c 128,-1,28
 355 -6 355 -6 296 -6 c 0,29,30
 229 -6 229 -6 172.5 27 c 128,-1,31
 116 60 116 60 83 116.5 c 128,-1,32
 50 173 50 173 50 240 c 256,33,34
 50 307 50 307 83 363.5 c 128,-1,35
 116 420 116 420 172.5 453 c 128,-1,36
 229 486 229 486 296 486 c 0,37,38
 355 486 355 486 406.5 460 c 128,-1,39
 458 434 458 434 492 388 c 1,40,-1
 492 480 l 1,41,-1
 542 480 l 1,42,-1
 542 0 l 1,24,-1
412 46 m 128,-1,44
 463 77 463 77 492 129 c 1,45,-1
 492 350 l 1,46,47
 463 402 463 402 412 433.5 c 128,-1,48
 361 465 361 465 296 465 c 0,49,50
 233 465 233 465 189.5 432.5 c 128,-1,51
 146 400 146 400 125.5 348.5 c 128,-1,52
 105 297 105 297 105 240 c 256,53,54
 105 183 105 183 126 131.5 c 128,-1,55
 147 80 147 80 190 47.5 c 128,-1,56
 233 15 233 15 296 15 c 0,57,43
 361 15 361 15 412 46 c 128,-1,44
EndSplineSet
Validated: 9
EndChar

StartChar: aring
Encoding: 229 229 148
Width: 623
GlyphClass: 1
Flags: W
LayerCount: 2
Fore
SplineSet
355.5 570.5 m 128,-1,1
 380 595 380 595 380 630 c 256,2,3
 380 665 380 665 355.5 689.5 c 128,-1,4
 331 714 331 714 296 714 c 0,5,6
 262 714 262 714 237 689.5 c 128,-1,7
 212 665 212 665 212 630 c 256,8,9
 212 595 212 595 236.5 570.5 c 128,-1,10
 261 546 261 546 296 546 c 256,11,0
 331 546 331 546 355.5 570.5 c 128,-1,1
330 674 m 128,-1,13
 340 654 340 654 340 630 c 256,14,15
 340 606 340 606 330 586 c 128,-1,16
 320 566 320 566 296 566 c 256,17,18
 272 566 272 566 262 586 c 128,-1,19
 252 606 252 606 252 630 c 256,20,21
 252 654 252 654 262 674 c 128,-1,22
 272 694 272 694 296 694 c 256,23,12
 320 694 320 694 330 674 c 128,-1,13
542 0 m 1,24,-1
 492 0 l 1,25,-1
 492 92 l 1,26,27
 458 46 458 46 406.5 20 c 128,-1,28
 355 -6 355 -6 296 -6 c 0,29,30
 229 -6 229 -6 172.5 27 c 128,-1,31
 116 60 116 60 83 116.5 c 128,-1,32
 50 173 50 173 50 240 c 256,33,34
 50 307 50 307 83 363.5 c 128,-1,35
 116 420 116 420 172.5 453 c 128,-1,36
 229 486 229 486 296 486 c 0,37,38
 355 486 355 486 406.5 460 c 128,-1,39
 458 434 458 434 492 388 c 1,40,-1
 492 480 l 1,41,-1
 542 480 l 1,42,-1
 542 0 l 1,24,-1
412 46 m 128,-1,44
 463 77 463 77 492 129 c 1,45,-1
 492 350 l 1,46,47
 463 402 463 402 412 433.5 c 128,-1,48
 361 465 361 465 296 465 c 0,49,50
 233 465 233 465 189.5 432.5 c 128,-1,51
 146 400 146 400 125.5 348.5 c 128,-1,52
 105 297 105 297 105 240 c 256,53,54
 105 183 105 183 126 131.5 c 128,-1,55
 147 80 147 80 190 47.5 c 128,-1,56
 233 15 233 15 296 15 c 0,57,43
 361 15 361 15 412 46 c 128,-1,44
EndSplineSet
Validated: 9
EndChar

StartChar: ae
Encoding: 230 230 149
Width: 1014
GlyphClass: 1
Flags: W
LayerCount: 2
Fore
SplineSet
964 236 m 128,-1,1
 964 233 964 233 963 230 c 2,2,-1
 542 230 l 1,3,4
 542 175 542 175 563.5 126 c 128,-1,5
 585 77 585 77 628.5 46 c 128,-1,6
 672 15 672 15 733 15 c 0,7,8
 793 15 793 15 842.5 42.5 c 128,-1,9
 892 70 892 70 922 117 c 1,10,-1
 938 105 l 1,11,12
 904 54 904 54 850 24 c 128,-1,13
 796 -6 796 -6 733 -6 c 0,14,15
 676 -6 676 -6 626 18 c 128,-1,16
 576 42 576 42 542 85 c 1,17,-1
 542 0 l 1,18,-1
 492 0 l 1,19,-1
 492 92 l 1,20,21
 458 46 458 46 406.5 20 c 128,-1,22
 355 -6 355 -6 296 -6 c 0,23,24
 229 -6 229 -6 172.5 27 c 128,-1,25
 116 60 116 60 83 116.5 c 128,-1,26
 50 173 50 173 50 240 c 256,27,28
 50 307 50 307 83 363.5 c 128,-1,29
 116 420 116 420 172.5 453 c 128,-1,30
 229 486 229 486 296 486 c 0,31,32
 355 486 355 486 406.5 460 c 128,-1,33
 458 434 458 434 492 388 c 1,34,-1
 492 480 l 1,35,-1
 542 480 l 1,36,-1
 542 395 l 1,37,38
 576 438 576 438 626 462 c 128,-1,39
 676 486 676 486 733 486 c 0,40,41
 800 486 800 486 852.5 453 c 128,-1,42
 905 420 905 420 934.5 364 c 128,-1,43
 964 308 964 308 964 240 c 0,44,0
 964 239 964 239 964 236 c 128,-1,1
492 350 m 1,45,46
 463 402 463 402 412 433.5 c 128,-1,47
 361 465 361 465 296 465 c 0,48,49
 233 465 233 465 189.5 432.5 c 128,-1,50
 146 400 146 400 125.5 348.5 c 128,-1,51
 105 297 105 297 105 240 c 256,52,53
 105 183 105 183 126 131.5 c 128,-1,54
 147 80 147 80 190 47.5 c 128,-1,55
 233 15 233 15 296 15 c 0,56,57
 361 15 361 15 412 46 c 128,-1,58
 463 77 463 77 492 129 c 1,59,-1
 492 350 l 1,45,46
909 251 m 1,60,61
 906 341 906 341 864 403 c 128,-1,62
 822 465 822 465 733 465 c 0,63,64
 672 465 672 465 628.5 434 c 128,-1,65
 585 403 585 403 563.5 354 c 128,-1,66
 542 305 542 305 542 251 c 1,67,-1
 909 251 l 1,60,61
EndSplineSet
Validated: 1
EndChar

StartChar: ccedilla
Encoding: 231 231 150
Width: 544
GlyphClass: 1
Flags: W
LayerCount: 2
Fore
SplineSet
400 39.5 m 128,-1,1
 447 64 447 64 477 106 c 1,2,-1
 493 93 l 1,3,4
 460 49 460 49 411 22.5 c 128,-1,5
 362 -4 362 -4 306 -6 c 1,6,-1
 306 -44 l 1,7,8
 336 -47 336 -47 358 -63 c 128,-1,9
 380 -79 380 -79 380 -108 c 0,10,11
 380 -140 380 -140 354 -156.5 c 128,-1,12
 328 -173 328 -173 296 -173 c 256,13,14
 264 -173 264 -173 238 -156.5 c 128,-1,15
 212 -140 212 -140 212 -108 c 1,16,-1
 252 -108 l 1,17,18
 252 -127 252 -127 263.5 -140 c 128,-1,19
 275 -153 275 -153 296 -153 c 256,20,21
 317 -153 317 -153 328.5 -140 c 128,-1,22
 340 -127 340 -127 340 -108 c 256,23,24
 340 -89 340 -89 329 -76.5 c 128,-1,25
 318 -64 318 -64 296 -64 c 2,26,-1
 286 -64 l 1,27,-1
 286 -6 l 1,28,29
 221 -4 221 -4 167 30 c 128,-1,30
 113 64 113 64 81.5 119.5 c 128,-1,31
 50 175 50 175 50 240 c 0,32,33
 50 307 50 307 83 363.5 c 128,-1,34
 116 420 116 420 172.5 453 c 128,-1,35
 229 486 229 486 296 486 c 0,36,37
 356 486 356 486 408 459.5 c 128,-1,38
 460 433 460 433 494 386 c 1,39,-1
 478 373 l 1,40,41
 447 416 447 416 400 440.5 c 128,-1,42
 353 465 353 465 296 465 c 0,43,44
 233 465 233 465 189.5 432.5 c 128,-1,45
 146 400 146 400 125.5 348.5 c 128,-1,46
 105 297 105 297 105 240 c 256,47,48
 105 183 105 183 126 131.5 c 128,-1,49
 147 80 147 80 190 47.5 c 128,-1,50
 233 15 233 15 296 15 c 0,51,0
 353 15 353 15 400 39.5 c 128,-1,1
EndSplineSet
Validated: 1
EndChar

StartChar: egrave
Encoding: 232 232 151
Width: 576
GlyphClass: 1
Flags: W
LayerCount: 2
Fore
SplineSet
204 676 m 1,0,-1
 300 546 l 1,1,-1
 276 546 l 1,2,-1
 142 676 l 1,3,-1
 204 676 l 1,0,-1
526 230 m 1,4,-1
 105 230 l 1,5,6
 105 175 105 175 126.5 126 c 128,-1,7
 148 77 148 77 191.5 46 c 128,-1,8
 235 15 235 15 296 15 c 0,9,10
 356 15 356 15 405 42.5 c 128,-1,11
 454 70 454 70 484 117 c 1,12,-1
 501 105 l 1,13,14
 467 54 467 54 413 24 c 128,-1,15
 359 -6 359 -6 296 -6 c 0,16,17
 229 -6 229 -6 172.5 27 c 128,-1,18
 116 60 116 60 83 116.5 c 128,-1,19
 50 173 50 173 50 240 c 256,20,21
 50 307 50 307 83 363.5 c 128,-1,22
 116 420 116 420 172.5 453 c 128,-1,23
 229 486 229 486 296 486 c 256,24,25
 363 486 363 486 415.5 453 c 128,-1,26
 468 420 468 420 497 364 c 128,-1,27
 526 308 526 308 526 240 c 2,28,-1
 526 230 l 1,4,-1
191 434.5 m 128,-1,30
 148 404 148 404 126.5 354.5 c 128,-1,31
 105 305 105 305 105 251 c 1,32,-1
 471 251 l 1,33,34
 469 341 469 341 427 403 c 128,-1,35
 385 465 385 465 295 465 c 0,36,29
 234 465 234 465 191 434.5 c 128,-1,30
EndSplineSet
Validated: 1
EndChar

StartChar: eacute
Encoding: 233 233 152
Width: 576
GlyphClass: 1
Flags: W
LayerCount: 2
Fore
SplineSet
372 676 m 1,0,-1
 434 676 l 1,1,-1
 300 546 l 1,2,-1
 276 546 l 1,3,-1
 372 676 l 1,0,-1
526 230 m 1,4,-1
 105 230 l 1,5,6
 105 175 105 175 126.5 126 c 128,-1,7
 148 77 148 77 191.5 46 c 128,-1,8
 235 15 235 15 296 15 c 0,9,10
 356 15 356 15 405 42.5 c 128,-1,11
 454 70 454 70 484 117 c 1,12,-1
 501 105 l 1,13,14
 467 54 467 54 413 24 c 128,-1,15
 359 -6 359 -6 296 -6 c 0,16,17
 229 -6 229 -6 172.5 27 c 128,-1,18
 116 60 116 60 83 116.5 c 128,-1,19
 50 173 50 173 50 240 c 256,20,21
 50 307 50 307 83 363.5 c 128,-1,22
 116 420 116 420 172.5 453 c 128,-1,23
 229 486 229 486 296 486 c 256,24,25
 363 486 363 486 415.5 453 c 128,-1,26
 468 420 468 420 497 364 c 128,-1,27
 526 308 526 308 526 240 c 2,28,-1
 526 230 l 1,4,-1
191 434.5 m 128,-1,30
 148 404 148 404 126.5 354.5 c 128,-1,31
 105 305 105 305 105 251 c 1,32,-1
 471 251 l 1,33,34
 469 341 469 341 427 403 c 128,-1,35
 385 465 385 465 295 465 c 0,36,29
 234 465 234 465 191 434.5 c 128,-1,30
EndSplineSet
Validated: 1
EndChar

StartChar: ecircumflex
Encoding: 234 234 153
Width: 576
GlyphClass: 1
Flags: W
LayerCount: 2
Fore
SplineSet
306 657 m 1,0,-1
 224 546 l 1,1,-1
 162 546 l 1,2,-1
 288 715 l 1,3,-1
 414 546 l 1,4,-1
 389 546 l 1,5,-1
 306 657 l 1,0,-1
526 230 m 1,6,-1
 105 230 l 1,7,8
 105 175 105 175 126.5 126 c 128,-1,9
 148 77 148 77 191.5 46 c 128,-1,10
 235 15 235 15 296 15 c 0,11,12
 356 15 356 15 405 42.5 c 128,-1,13
 454 70 454 70 484 117 c 1,14,-1
 501 105 l 1,15,16
 467 54 467 54 413 24 c 128,-1,17
 359 -6 359 -6 296 -6 c 0,18,19
 229 -6 229 -6 172.5 27 c 128,-1,20
 116 60 116 60 83 116.5 c 128,-1,21
 50 173 50 173 50 240 c 256,22,23
 50 307 50 307 83 363.5 c 128,-1,24
 116 420 116 420 172.5 453 c 128,-1,25
 229 486 229 486 296 486 c 256,26,27
 363 486 363 486 415.5 453 c 128,-1,28
 468 420 468 420 497 364 c 128,-1,29
 526 308 526 308 526 240 c 2,30,-1
 526 230 l 1,6,-1
191 434.5 m 128,-1,32
 148 404 148 404 126.5 354.5 c 128,-1,33
 105 305 105 305 105 251 c 1,34,-1
 471 251 l 1,35,36
 469 341 469 341 427 403 c 128,-1,37
 385 465 385 465 295 465 c 0,38,31
 234 465 234 465 191 434.5 c 128,-1,32
EndSplineSet
Validated: 1
EndChar

StartChar: edieresis
Encoding: 235 235 154
Width: 576
GlyphClass: 1
Flags: W
LayerCount: 2
Fore
SplineSet
198 592 m 128,-1,1
 190 600 190 600 178 600 c 0,2,3
 167 600 167 600 159 592 c 128,-1,4
 151 584 151 584 151 573 c 256,5,6
 151 562 151 562 159 554 c 128,-1,7
 167 546 167 546 178 546 c 256,8,9
 189 546 189 546 197.5 554 c 128,-1,10
 206 562 206 562 206 573 c 256,11,0
 206 584 206 584 198 592 c 128,-1,1
416 592 m 128,-1,13
 408 600 408 600 396 600 c 0,14,15
 385 600 385 600 377 592 c 128,-1,16
 369 584 369 584 369 573 c 256,17,18
 369 562 369 562 377 554 c 128,-1,19
 385 546 385 546 396 546 c 256,20,21
 407 546 407 546 415.5 554 c 128,-1,22
 424 562 424 562 424 573 c 256,23,12
 424 584 424 584 416 592 c 128,-1,13
526 230 m 1,24,-1
 105 230 l 1,25,26
 105 175 105 175 126.5 126 c 128,-1,27
 148 77 148 77 191.5 46 c 128,-1,28
 235 15 235 15 296 15 c 0,29,30
 356 15 356 15 405 42.5 c 128,-1,31
 454 70 454 70 484 117 c 1,32,-1
 501 105 l 1,33,34
 467 54 467 54 413 24 c 128,-1,35
 359 -6 359 -6 296 -6 c 0,36,37
 229 -6 229 -6 172.5 27 c 128,-1,38
 116 60 116 60 83 116.5 c 128,-1,39
 50 173 50 173 50 240 c 256,40,41
 50 307 50 307 83 363.5 c 128,-1,42
 116 420 116 420 172.5 453 c 128,-1,43
 229 486 229 486 296 486 c 256,44,45
 363 486 363 486 415.5 453 c 128,-1,46
 468 420 468 420 497 364 c 128,-1,47
 526 308 526 308 526 240 c 2,48,-1
 526 230 l 1,24,-1
191 434.5 m 128,-1,50
 148 404 148 404 126.5 354.5 c 128,-1,51
 105 305 105 305 105 251 c 1,52,-1
 471 251 l 1,53,54
 469 341 469 341 427 403 c 128,-1,55
 385 465 385 465 295 465 c 0,56,49
 234 465 234 465 191 434.5 c 128,-1,50
EndSplineSet
Validated: 9
EndChar

StartChar: igrave
Encoding: 236 236 155
Width: 232
GlyphClass: 1
Flags: W
LayerCount: 2
Fore
SplineSet
142 480 m 1,0,-1
 142 0 l 1,1,-1
 92 0 l 1,2,-1
 92 480 l 1,3,-1
 142 480 l 1,0,-1
31 676 m 1,4,-1
 127 546 l 1,5,-1
 103 546 l 1,6,-1
 -31 676 l 1,7,-1
 31 676 l 1,4,-1
EndSplineSet
Validated: 1
EndChar

StartChar: iacute
Encoding: 237 237 156
Width: 232
GlyphClass: 1
Flags: W
LayerCount: 2
Fore
SplineSet
201 676 m 1,0,-1
 263 676 l 1,1,-1
 129 546 l 1,2,-1
 105 546 l 1,3,-1
 201 676 l 1,0,-1
90 480 m 1,4,-1
 140 480 l 1,5,-1
 140 0 l 1,6,-1
 90 0 l 1,7,-1
 90 480 l 1,4,-1
EndSplineSet
Validated: 1
EndChar

StartChar: icircumflex
Encoding: 238 238 157
Width: 226
GlyphClass: 1
Flags: W
LayerCount: 2
Fore
SplineSet
131 657 m 1,0,-1
 49 546 l 1,1,-1
 -13 546 l 1,2,-1
 113 715 l 1,3,-1
 239 546 l 1,4,-1
 214 546 l 1,5,-1
 131 657 l 1,0,-1
86 480 m 1,6,-1
 136 480 l 1,7,-1
 136 0 l 1,8,-1
 86 0 l 1,9,-1
 86 480 l 1,6,-1
EndSplineSet
Validated: 1
EndChar

StartChar: idieresis
Encoding: 239 239 158
Width: 230
GlyphClass: 1
Flags: W
LayerCount: 2
Fore
SplineSet
25 592 m 128,-1,1
 17 600 17 600 5 600 c 0,2,3
 -6 600 -6 600 -14 592 c 128,-1,4
 -22 584 -22 584 -22 573 c 256,5,6
 -22 562 -22 562 -14 554 c 128,-1,7
 -6 546 -6 546 5 546 c 256,8,9
 16 546 16 546 24.5 554 c 128,-1,10
 33 562 33 562 33 573 c 256,11,0
 33 584 33 584 25 592 c 128,-1,1
244 592 m 128,-1,13
 236 600 236 600 224 600 c 0,14,15
 213 600 213 600 205 592 c 128,-1,16
 197 584 197 584 197 573 c 256,17,18
 197 562 197 562 205 554 c 128,-1,19
 213 546 213 546 224 546 c 256,20,21
 235 546 235 546 243.5 554 c 128,-1,22
 252 562 252 562 252 573 c 256,23,12
 252 584 252 584 244 592 c 128,-1,13
88 480 m 1,24,-1
 138 480 l 1,25,-1
 138 0 l 1,26,-1
 88 0 l 1,27,-1
 88 480 l 1,24,-1
EndSplineSet
Validated: 9
EndChar

StartChar: eth
Encoding: 240 240 159
Width: 511
GlyphClass: 1
Flags: W
LayerCount: 2
Fore
SplineSet
310.5 329 m 128,-1,1
 280 338 280 338 256 338 c 0,2,3
 225 338 225 338 193 323.5 c 128,-1,4
 161 309 161 309 138 273 c 128,-1,5
 115 237 115 237 115 176 c 256,6,7
 115 115 115 115 137.5 78.5 c 128,-1,8
 160 42 160 42 192 28 c 128,-1,9
 224 14 224 14 255 14 c 256,10,11
 286 14 286 14 318 29.5 c 128,-1,12
 350 45 350 45 372.5 82 c 128,-1,13
 395 119 395 119 395 180 c 0,14,15
 395 207 395 207 388.5 229 c 128,-1,16
 382 251 382 251 372 275 c 2,17,-1
 360 302 l 1,18,0
 341 320 341 320 310.5 329 c 128,-1,1
449 180 m 0,20,21
 449 129 449 129 423.5 86 c 128,-1,22
 398 43 398 43 354 18.5 c 128,-1,23
 310 -6 310 -6 255 -6 c 0,24,25
 201 -6 201 -6 156 18 c 128,-1,26
 111 42 111 42 85.5 83.5 c 128,-1,27
 60 125 60 125 60 176 c 256,28,29
 60 227 60 227 86 268.5 c 128,-1,30
 112 310 112 310 156.5 334 c 128,-1,31
 201 358 201 358 256 358 c 0,32,33
 302 358 302 358 345 339 c 1,34,-1
 214 658 l 1,35,-1
 268 658 l 1,36,37
 291 603 291 603 343.5 476 c 128,-1,38
 396 349 396 349 426 274 c 0,39,19
 449 219 449 219 449 180 c 0,20,21
160 470 m 1,40,-1
 413 549 l 1,41,-1
 419 529 l 1,42,-1
 166 451 l 1,43,-1
 160 470 l 1,40,-1
EndSplineSet
Validated: 5
EndChar

StartChar: ntilde
Encoding: 241 241 160
Width: 599
GlyphClass: 1
Flags: W
LayerCount: 2
Fore
SplineSet
507 364.5 m 128,-1,1
 518 330 518 330 518 277 c 2,2,-1
 518 0 l 1,3,-1
 468 0 l 1,4,-1
 468 277 l 2,5,6
 468 382 468 382 422 421 c 128,-1,7
 376 460 376 460 317 460 c 0,8,9
 261 460 261 460 214.5 424 c 128,-1,10
 168 388 168 388 147 339 c 0,11,12
 137 318 137 318 134 293.5 c 128,-1,13
 131 269 131 269 131 226 c 2,14,-1
 131 0 l 1,15,-1
 81 0 l 1,16,-1
 81 480 l 1,17,-1
 131 480 l 1,18,-1
 131 359 l 1,19,20
 155 409 155 409 208 445 c 128,-1,21
 261 481 261 481 323 481 c 0,22,23
 417 481 417 481 469 428 c 0,24,0
 496 399 496 399 507 364.5 c 128,-1,1
396 556 m 128,-1,26
 415 571 415 571 433 590 c 1,27,-1
 419 604 l 1,28,29
 406 590 406 590 396 584 c 128,-1,30
 386 578 386 578 375 578 c 0,31,32
 374 578 374 578 373 578 c 0,33,34
 350 578 350 578 321 605 c 0,35,36
 287 634 287 634 256 634 c 0,37,38
 251 634 251 634 239 632 c 0,39,40
 221 628 221 628 202 615 c 128,-1,41
 183 602 183 602 167 585 c 1,42,-1
 182 571 l 1,43,44
 194 583 194 583 203.5 589 c 128,-1,45
 213 595 213 595 226 596 c 0,46,47
 240 598 240 598 253 591.5 c 128,-1,48
 266 585 266 585 282 571 c 0,49,50
 315 541 315 541 352 541 c 0,51,25
 377 541 377 541 396 556 c 128,-1,26
EndSplineSet
Validated: 9
EndChar

StartChar: ograve
Encoding: 242 242 161
Width: 592
GlyphClass: 1
Flags: W
LayerCount: 2
Fore
SplineSet
172.5 27 m 128,-1,1
 116 60 116 60 83 116.5 c 128,-1,2
 50 173 50 173 50 240 c 256,3,4
 50 307 50 307 83 363.5 c 128,-1,5
 116 420 116 420 172.5 453 c 128,-1,6
 229 486 229 486 296 486 c 256,7,8
 363 486 363 486 419.5 453 c 128,-1,9
 476 420 476 420 509 363.5 c 128,-1,10
 542 307 542 307 542 240 c 256,11,12
 542 173 542 173 509 116.5 c 128,-1,13
 476 60 476 60 419.5 27 c 128,-1,14
 363 -6 363 -6 296 -6 c 256,15,0
 229 -6 229 -6 172.5 27 c 128,-1,1
189 432.5 m 128,-1,17
 146 400 146 400 125.5 348.5 c 128,-1,18
 105 297 105 297 105 240 c 256,19,20
 105 183 105 183 126 131.5 c 128,-1,21
 147 80 147 80 190 47.5 c 128,-1,22
 233 15 233 15 296 15 c 256,23,24
 359 15 359 15 402.5 47.5 c 128,-1,25
 446 80 446 80 466.5 131.5 c 128,-1,26
 487 183 487 183 487 240 c 256,27,28
 487 297 487 297 466 348.5 c 128,-1,29
 445 400 445 400 402 432.5 c 128,-1,30
 359 465 359 465 296 465 c 0,31,16
 232 465 232 465 189 432.5 c 128,-1,17
212 676 m 1,32,-1
 308 546 l 1,33,-1
 284 546 l 1,34,-1
 150 676 l 1,35,-1
 212 676 l 1,32,-1
EndSplineSet
Validated: 1
EndChar

StartChar: oacute
Encoding: 243 243 162
Width: 592
GlyphClass: 1
Flags: W
LayerCount: 2
Fore
SplineSet
172.5 27 m 128,-1,1
 116 60 116 60 83 116.5 c 128,-1,2
 50 173 50 173 50 240 c 256,3,4
 50 307 50 307 83 363.5 c 128,-1,5
 116 420 116 420 172.5 453 c 128,-1,6
 229 486 229 486 296 486 c 256,7,8
 363 486 363 486 419.5 453 c 128,-1,9
 476 420 476 420 509 363.5 c 128,-1,10
 542 307 542 307 542 240 c 256,11,12
 542 173 542 173 509 116.5 c 128,-1,13
 476 60 476 60 419.5 27 c 128,-1,14
 363 -6 363 -6 296 -6 c 256,15,0
 229 -6 229 -6 172.5 27 c 128,-1,1
189 432.5 m 128,-1,17
 146 400 146 400 125.5 348.5 c 128,-1,18
 105 297 105 297 105 240 c 256,19,20
 105 183 105 183 126 131.5 c 128,-1,21
 147 80 147 80 190 47.5 c 128,-1,22
 233 15 233 15 296 15 c 256,23,24
 359 15 359 15 402.5 47.5 c 128,-1,25
 446 80 446 80 466.5 131.5 c 128,-1,26
 487 183 487 183 487 240 c 256,27,28
 487 297 487 297 466 348.5 c 128,-1,29
 445 400 445 400 402 432.5 c 128,-1,30
 359 465 359 465 296 465 c 0,31,16
 232 465 232 465 189 432.5 c 128,-1,17
380 676 m 1,32,-1
 442 676 l 1,33,-1
 308 546 l 1,34,-1
 284 546 l 1,35,-1
 380 676 l 1,32,-1
EndSplineSet
Validated: 1
EndChar

StartChar: ocircumflex
Encoding: 244 244 163
Width: 592
GlyphClass: 1
Flags: W
LayerCount: 2
Fore
SplineSet
172.5 27 m 128,-1,1
 116 60 116 60 83 116.5 c 128,-1,2
 50 173 50 173 50 240 c 256,3,4
 50 307 50 307 83 363.5 c 128,-1,5
 116 420 116 420 172.5 453 c 128,-1,6
 229 486 229 486 296 486 c 256,7,8
 363 486 363 486 419.5 453 c 128,-1,9
 476 420 476 420 509 363.5 c 128,-1,10
 542 307 542 307 542 240 c 256,11,12
 542 173 542 173 509 116.5 c 128,-1,13
 476 60 476 60 419.5 27 c 128,-1,14
 363 -6 363 -6 296 -6 c 256,15,0
 229 -6 229 -6 172.5 27 c 128,-1,1
189 432.5 m 128,-1,17
 146 400 146 400 125.5 348.5 c 128,-1,18
 105 297 105 297 105 240 c 256,19,20
 105 183 105 183 126 131.5 c 128,-1,21
 147 80 147 80 190 47.5 c 128,-1,22
 233 15 233 15 296 15 c 256,23,24
 359 15 359 15 402.5 47.5 c 128,-1,25
 446 80 446 80 466.5 131.5 c 128,-1,26
 487 183 487 183 487 240 c 256,27,28
 487 297 487 297 466 348.5 c 128,-1,29
 445 400 445 400 402 432.5 c 128,-1,30
 359 465 359 465 296 465 c 0,31,16
 232 465 232 465 189 432.5 c 128,-1,17
314 657 m 1,32,-1
 232 546 l 1,33,-1
 170 546 l 1,34,-1
 296 715 l 1,35,-1
 422 546 l 1,36,-1
 397 546 l 1,37,-1
 314 657 l 1,32,-1
EndSplineSet
Validated: 1
EndChar

StartChar: otilde
Encoding: 245 245 164
Width: 592
GlyphClass: 1
Flags: W
LayerCount: 2
Fore
SplineSet
172.5 27 m 128,-1,1
 116 60 116 60 83 116.5 c 128,-1,2
 50 173 50 173 50 240 c 256,3,4
 50 307 50 307 83 363.5 c 128,-1,5
 116 420 116 420 172.5 453 c 128,-1,6
 229 486 229 486 296 486 c 256,7,8
 363 486 363 486 419.5 453 c 128,-1,9
 476 420 476 420 509 363.5 c 128,-1,10
 542 307 542 307 542 240 c 256,11,12
 542 173 542 173 509 116.5 c 128,-1,13
 476 60 476 60 419.5 27 c 128,-1,14
 363 -6 363 -6 296 -6 c 256,15,0
 229 -6 229 -6 172.5 27 c 128,-1,1
189 432.5 m 128,-1,17
 146 400 146 400 125.5 348.5 c 128,-1,18
 105 297 105 297 105 240 c 256,19,20
 105 183 105 183 126 131.5 c 128,-1,21
 147 80 147 80 190 47.5 c 128,-1,22
 233 15 233 15 296 15 c 256,23,24
 359 15 359 15 402.5 47.5 c 128,-1,25
 446 80 446 80 466.5 131.5 c 128,-1,26
 487 183 487 183 487 240 c 256,27,28
 487 297 487 297 466 348.5 c 128,-1,29
 445 400 445 400 402 432.5 c 128,-1,30
 359 465 359 465 296 465 c 0,31,16
 232 465 232 465 189 432.5 c 128,-1,17
392 561 m 128,-1,33
 411 576 411 576 429 595 c 1,34,-1
 415 609 l 1,35,36
 402 595 402 595 392 589 c 128,-1,37
 382 583 382 583 371 583 c 0,38,39
 370 583 370 583 369 583 c 0,40,41
 346 583 346 583 317 610 c 0,42,43
 283 639 283 639 252 639 c 0,44,45
 247 639 247 639 235 637 c 0,46,47
 217 633 217 633 198 620 c 128,-1,48
 179 607 179 607 163 590 c 1,49,-1
 178 576 l 1,50,51
 190 588 190 588 199.5 594 c 128,-1,52
 209 600 209 600 222 601 c 0,53,54
 236 603 236 603 249 596.5 c 128,-1,55
 262 590 262 590 278 576 c 0,56,57
 311 546 311 546 348 546 c 0,58,32
 373 546 373 546 392 561 c 128,-1,33
EndSplineSet
Validated: 9
EndChar

StartChar: odieresis
Encoding: 246 246 165
Width: 592
GlyphClass: 1
Flags: W
LayerCount: 2
Fore
SplineSet
172.5 27 m 128,-1,1
 116 60 116 60 83 116.5 c 128,-1,2
 50 173 50 173 50 240 c 256,3,4
 50 307 50 307 83 363.5 c 128,-1,5
 116 420 116 420 172.5 453 c 128,-1,6
 229 486 229 486 296 486 c 256,7,8
 363 486 363 486 419.5 453 c 128,-1,9
 476 420 476 420 509 363.5 c 128,-1,10
 542 307 542 307 542 240 c 256,11,12
 542 173 542 173 509 116.5 c 128,-1,13
 476 60 476 60 419.5 27 c 128,-1,14
 363 -6 363 -6 296 -6 c 256,15,0
 229 -6 229 -6 172.5 27 c 128,-1,1
189 432.5 m 128,-1,17
 146 400 146 400 125.5 348.5 c 128,-1,18
 105 297 105 297 105 240 c 256,19,20
 105 183 105 183 126 131.5 c 128,-1,21
 147 80 147 80 190 47.5 c 128,-1,22
 233 15 233 15 296 15 c 256,23,24
 359 15 359 15 402.5 47.5 c 128,-1,25
 446 80 446 80 466.5 131.5 c 128,-1,26
 487 183 487 183 487 240 c 256,27,28
 487 297 487 297 466 348.5 c 128,-1,29
 445 400 445 400 402 432.5 c 128,-1,30
 359 465 359 465 296 465 c 0,31,16
 232 465 232 465 189 432.5 c 128,-1,17
206 592 m 128,-1,33
 198 600 198 600 186 600 c 0,34,35
 175 600 175 600 167 592 c 128,-1,36
 159 584 159 584 159 573 c 256,37,38
 159 562 159 562 167 554 c 128,-1,39
 175 546 175 546 186 546 c 256,40,41
 197 546 197 546 205.5 554 c 128,-1,42
 214 562 214 562 214 573 c 256,43,32
 214 584 214 584 206 592 c 128,-1,33
424 592 m 128,-1,45
 416 600 416 600 404 600 c 0,46,47
 393 600 393 600 385 592 c 128,-1,48
 377 584 377 584 377 573 c 256,49,50
 377 562 377 562 385 554 c 128,-1,51
 393 546 393 546 404 546 c 256,52,53
 415 546 415 546 423.5 554 c 128,-1,54
 432 562 432 562 432 573 c 256,55,44
 432 584 432 584 424 592 c 128,-1,45
EndSplineSet
Validated: 9
EndChar

StartChar: divide
Encoding: 247 247 166
Width: 615
GlyphClass: 1
Flags: W
LayerCount: 2
Fore
SplineSet
545 340 m 1,0,-1
 545 320 l 1,1,-1
 70 320 l 1,2,-1
 70 340 l 1,3,-1
 545 340 l 1,0,-1
327 509 m 128,-1,5
 319 517 319 517 307 517 c 0,6,7
 296 517 296 517 288 509 c 128,-1,8
 280 501 280 501 280 490 c 256,9,10
 280 479 280 479 288 471 c 128,-1,11
 296 463 296 463 307 463 c 256,12,13
 318 463 318 463 326.5 471 c 128,-1,14
 335 479 335 479 335 490 c 256,15,4
 335 501 335 501 327 509 c 128,-1,5
327 189 m 128,-1,17
 319 197 319 197 307 197 c 0,18,19
 296 197 296 197 288 189 c 128,-1,20
 280 181 280 181 280 170 c 256,21,22
 280 159 280 159 288 151 c 128,-1,23
 296 143 296 143 307 143 c 256,24,25
 318 143 318 143 326.5 151 c 128,-1,26
 335 159 335 159 335 170 c 256,27,16
 335 181 335 181 327 189 c 128,-1,17
EndSplineSet
Validated: 9
EndChar

StartChar: oslash
Encoding: 248 248 167
Width: 592
GlyphClass: 1
Flags: W
LayerCount: 2
Fore
SplineSet
189 432.5 m 128,-1,1
 146 400 146 400 125.5 348.5 c 128,-1,2
 105 297 105 297 105 240 c 256,3,4
 105 183 105 183 126 131.5 c 128,-1,5
 147 80 147 80 190 47.5 c 128,-1,6
 233 15 233 15 296 15 c 256,7,8
 359 15 359 15 402.5 47.5 c 128,-1,9
 446 80 446 80 466.5 131.5 c 128,-1,10
 487 183 487 183 487 240 c 256,11,12
 487 297 487 297 466 348.5 c 128,-1,13
 445 400 445 400 402 432.5 c 128,-1,14
 359 465 359 465 296 465 c 0,15,0
 232 465 232 465 189 432.5 c 128,-1,1
172.5 27 m 128,-1,17
 116 60 116 60 83 116.5 c 128,-1,18
 50 173 50 173 50 240 c 256,19,20
 50 307 50 307 83 363.5 c 128,-1,21
 116 420 116 420 172.5 453 c 128,-1,22
 229 486 229 486 296 486 c 256,23,24
 363 486 363 486 419.5 453 c 128,-1,25
 476 420 476 420 509 363.5 c 128,-1,26
 542 307 542 307 542 240 c 256,27,28
 542 173 542 173 509 116.5 c 128,-1,29
 476 60 476 60 419.5 27 c 128,-1,30
 363 -6 363 -6 296 -6 c 256,31,16
 229 -6 229 -6 172.5 27 c 128,-1,17
55 0 m 1,32,-1
 471 480 l 1,33,-1
 537 480 l 1,34,-1
 120 0 l 1,35,-1
 55 0 l 1,32,-1
EndSplineSet
Validated: 5
EndChar

StartChar: ugrave
Encoding: 249 249 168
Width: 597
GlyphClass: 1
Flags: W
LayerCount: 2
Fore
SplineSet
89 110 m 128,-1,1
 78 145 78 145 78 198 c 2,2,-1
 78 480 l 1,3,-1
 128 480 l 1,4,-1
 128 198 l 2,5,6
 128 93 128 93 174 54 c 128,-1,7
 220 15 220 15 279 15 c 0,8,9
 335 15 335 15 382 51 c 128,-1,10
 429 87 429 87 450 136 c 0,11,12
 459 157 459 157 462 181.5 c 128,-1,13
 465 206 465 206 465 249 c 2,14,-1
 465 480 l 1,15,-1
 515 480 l 1,16,-1
 515 0 l 1,17,-1
 465 0 l 1,18,-1
 465 116 l 1,19,20
 441 66 441 66 388.5 30 c 128,-1,21
 336 -6 336 -6 273 -6 c 0,22,23
 232 -6 232 -6 193.5 6.5 c 128,-1,24
 155 19 155 19 127 47 c 0,25,0
 100 75 100 75 89 110 c 128,-1,1
212 676 m 1,26,-1
 308 546 l 1,27,-1
 284 546 l 1,28,-1
 150 676 l 1,29,-1
 212 676 l 1,26,-1
EndSplineSet
Validated: 1
EndChar

StartChar: uacute
Encoding: 250 250 169
Width: 597
GlyphClass: 1
Flags: W
LayerCount: 2
Fore
SplineSet
380 676 m 1,0,-1
 442 676 l 1,1,-1
 308 546 l 1,2,-1
 284 546 l 1,3,-1
 380 676 l 1,0,-1
89 110 m 128,-1,5
 78 145 78 145 78 198 c 2,6,-1
 78 480 l 1,7,-1
 128 480 l 1,8,-1
 128 198 l 2,9,10
 128 93 128 93 174 54 c 128,-1,11
 220 15 220 15 279 15 c 0,12,13
 335 15 335 15 382 51 c 128,-1,14
 429 87 429 87 450 136 c 0,15,16
 459 157 459 157 462 181.5 c 128,-1,17
 465 206 465 206 465 249 c 2,18,-1
 465 480 l 1,19,-1
 515 480 l 1,20,-1
 515 0 l 1,21,-1
 465 0 l 1,22,-1
 465 116 l 1,23,24
 441 66 441 66 388.5 30 c 128,-1,25
 336 -6 336 -6 273 -6 c 0,26,27
 232 -6 232 -6 193.5 6.5 c 128,-1,28
 155 19 155 19 127 47 c 0,29,4
 100 75 100 75 89 110 c 128,-1,5
EndSplineSet
Validated: 1
EndChar

StartChar: ucircumflex
Encoding: 251 251 170
Width: 597
GlyphClass: 1
Flags: W
LayerCount: 2
Fore
SplineSet
314 657 m 1,0,-1
 397 546 l 1,1,-1
 422 546 l 1,2,-1
 296 715 l 1,3,-1
 170 546 l 1,4,-1
 232 546 l 1,5,-1
 314 657 l 1,0,-1
89 110 m 128,-1,7
 78 145 78 145 78 198 c 2,8,-1
 78 480 l 1,9,-1
 128 480 l 1,10,-1
 128 198 l 2,11,12
 128 93 128 93 174 54 c 128,-1,13
 220 15 220 15 279 15 c 0,14,15
 335 15 335 15 382 51 c 128,-1,16
 429 87 429 87 450 136 c 0,17,18
 459 157 459 157 462 181.5 c 128,-1,19
 465 206 465 206 465 249 c 2,20,-1
 465 480 l 1,21,-1
 515 480 l 1,22,-1
 515 0 l 1,23,-1
 465 0 l 1,24,-1
 465 116 l 1,25,26
 441 66 441 66 388.5 30 c 128,-1,27
 336 -6 336 -6 273 -6 c 0,28,29
 232 -6 232 -6 193.5 6.5 c 128,-1,30
 155 19 155 19 127 47 c 0,31,6
 100 75 100 75 89 110 c 128,-1,7
EndSplineSet
Validated: 9
EndChar

StartChar: udieresis
Encoding: 252 252 171
Width: 597
GlyphClass: 1
Flags: W
LayerCount: 2
Fore
SplineSet
89 110 m 128,-1,1
 78 145 78 145 78 198 c 2,2,-1
 78 480 l 1,3,-1
 128 480 l 1,4,-1
 128 198 l 2,5,6
 128 93 128 93 174 54 c 128,-1,7
 220 15 220 15 279 15 c 0,8,9
 335 15 335 15 382 51 c 128,-1,10
 429 87 429 87 450 136 c 0,11,12
 459 157 459 157 462 181.5 c 128,-1,13
 465 206 465 206 465 249 c 2,14,-1
 465 480 l 1,15,-1
 515 480 l 1,16,-1
 515 0 l 1,17,-1
 465 0 l 1,18,-1
 465 116 l 1,19,20
 441 66 441 66 388.5 30 c 128,-1,21
 336 -6 336 -6 273 -6 c 0,22,23
 232 -6 232 -6 193.5 6.5 c 128,-1,24
 155 19 155 19 127 47 c 0,25,0
 100 75 100 75 89 110 c 128,-1,1
206 592 m 128,-1,27
 198 600 198 600 186 600 c 0,28,29
 175 600 175 600 167 592 c 128,-1,30
 159 584 159 584 159 573 c 256,31,32
 159 562 159 562 167 554 c 128,-1,33
 175 546 175 546 186 546 c 256,34,35
 197 546 197 546 205.5 554 c 128,-1,36
 214 562 214 562 214 573 c 256,37,26
 214 584 214 584 206 592 c 128,-1,27
425 592 m 128,-1,39
 417 600 417 600 405 600 c 0,40,41
 394 600 394 600 386 592 c 128,-1,42
 378 584 378 584 378 573 c 256,43,44
 378 562 378 562 386 554 c 128,-1,45
 394 546 394 546 405 546 c 256,46,47
 416 546 416 546 424.5 554 c 128,-1,48
 433 562 433 562 433 573 c 256,49,38
 433 584 433 584 425 592 c 128,-1,39
EndSplineSet
Validated: 9
EndChar

StartChar: yacute
Encoding: 253 253 172
Width: 505
GlyphClass: 1
Flags: W
LayerCount: 2
Fore
SplineSet
342 665 m 1,0,-1
 404 665 l 1,1,-1
 270 535 l 1,2,-1
 246 535 l 1,3,-1
 342 665 l 1,0,-1
255 -11 m 2,4,5
 206 -112 206 -112 142 -159 c 0,6,7
 104 -185 104 -185 63 -190 c 2,8,-1
 50 -191 l 1,9,-1
 50 -170 l 1,10,11
 92 -168 92 -168 129 -142 c 0,12,13
 190 -99 190 -99 236 -2 c 1,14,-1
 246 22 l 1,15,-1
 25 480 l 1,16,-1
 80 480 l 1,17,-1
 273 80 l 1,18,-1
 458 480 l 1,19,-1
 481 480 l 1,20,-1
 255 -11 l 2,4,5
EndSplineSet
Validated: 1
EndChar

StartChar: thorn
Encoding: 254 254 173
Width: 623
GlyphClass: 1
Flags: W
LayerCount: 2
Fore
SplineSet
211 434 m 128,-1,1
 160 403 160 403 131 351 c 1,2,-1
 131 130 l 1,3,4
 160 78 160 78 211 46.5 c 128,-1,5
 262 15 262 15 327 15 c 0,6,7
 390 15 390 15 433.5 47.5 c 128,-1,8
 477 80 477 80 497.5 131.5 c 128,-1,9
 518 183 518 183 518 240 c 256,10,11
 518 297 518 297 497 348.5 c 128,-1,12
 476 400 476 400 433 432.5 c 128,-1,13
 390 465 390 465 327 465 c 0,14,0
 262 465 262 465 211 434 c 128,-1,1
81 566 m 1,15,-1
 131 566 l 1,16,-1
 131 388 l 1,17,18
 165 434 165 434 216.5 460 c 128,-1,19
 268 486 268 486 327 486 c 0,20,21
 394 486 394 486 450.5 453 c 128,-1,22
 507 420 507 420 540 363.5 c 128,-1,23
 573 307 573 307 573 240 c 256,24,25
 573 173 573 173 540 116.5 c 128,-1,26
 507 60 507 60 450.5 27 c 128,-1,27
 394 -6 394 -6 327 -6 c 0,28,29
 268 -6 268 -6 216.5 20 c 128,-1,30
 165 46 165 46 131 92 c 1,31,-1
 131 -192 l 1,32,-1
 81 -192 l 1,33,-1
 81 566 l 1,15,-1
EndSplineSet
Validated: 1
EndChar

StartChar: ydieresis
Encoding: 255 255 174
Width: 505
GlyphClass: 1
Flags: W
LayerCount: 2
Fore
SplineSet
168 592 m 128,-1,1
 160 600 160 600 148 600 c 0,2,3
 137 600 137 600 129 592 c 128,-1,4
 121 584 121 584 121 573 c 256,5,6
 121 562 121 562 129 554 c 128,-1,7
 137 546 137 546 148 546 c 256,8,9
 159 546 159 546 167.5 554 c 128,-1,10
 176 562 176 562 176 573 c 256,11,0
 176 584 176 584 168 592 c 128,-1,1
387 592 m 128,-1,13
 379 600 379 600 367 600 c 0,14,15
 356 600 356 600 348 592 c 128,-1,16
 340 584 340 584 340 573 c 256,17,18
 340 562 340 562 348 554 c 128,-1,19
 356 546 356 546 367 546 c 256,20,21
 378 546 378 546 386.5 554 c 128,-1,22
 395 562 395 562 395 573 c 256,23,12
 395 584 395 584 387 592 c 128,-1,13
255 -11 m 2,24,25
 206 -112 206 -112 142 -159 c 0,26,27
 104 -185 104 -185 63 -190 c 2,28,-1
 50 -191 l 1,29,-1
 50 -170 l 1,30,31
 92 -168 92 -168 129 -142 c 0,32,33
 190 -99 190 -99 236 -2 c 1,34,-1
 246 22 l 1,35,-1
 25 480 l 1,36,-1
 80 480 l 1,37,-1
 273 80 l 1,38,-1
 458 480 l 1,39,-1
 481 480 l 1,40,-1
 255 -11 l 2,24,25
EndSplineSet
Validated: 9
EndChar

StartChar: Amacron
Encoding: 256 256 175
Width: 685
GlyphClass: 1
Flags: W
LayerCount: 2
Fore
SplineSet
350 664 m 1,0,-1
 640 0 l 1,1,-1
 586 0 l 1,2,-1
 502 191 l 1,3,-1
 155 191 l 1,4,-1
 67 0 l 1,5,-1
 45 0 l 1,6,-1
 350 664 l 1,0,-1
164 211 m 1,7,-1
 494 211 l 1,8,-1
 333 579 l 1,9,-1
 164 211 l 1,7,-1
224 704 m 1,10,-1
 224 724 l 1,11,-1
 475 724 l 1,12,-1
 475 704 l 1,13,-1
 224 704 l 1,10,-1
EndSplineSet
Validated: 1
EndChar

StartChar: amacron
Encoding: 257 257 176
Width: 623
GlyphClass: 1
Flags: W
LayerCount: 2
Fore
SplineSet
171 546 m 1,0,-1
 171 566 l 1,1,-1
 421 566 l 1,2,-1
 421 546 l 1,3,-1
 171 546 l 1,0,-1
542 0 m 1,4,-1
 492 0 l 1,5,-1
 492 92 l 1,6,7
 458 46 458 46 406.5 20 c 128,-1,8
 355 -6 355 -6 296 -6 c 0,9,10
 229 -6 229 -6 172.5 27 c 128,-1,11
 116 60 116 60 83 116.5 c 128,-1,12
 50 173 50 173 50 240 c 256,13,14
 50 307 50 307 83 363.5 c 128,-1,15
 116 420 116 420 172.5 453 c 128,-1,16
 229 486 229 486 296 486 c 0,17,18
 355 486 355 486 406.5 460 c 128,-1,19
 458 434 458 434 492 388 c 1,20,-1
 492 480 l 1,21,-1
 542 480 l 1,22,-1
 542 0 l 1,4,-1
412 46 m 128,-1,24
 463 77 463 77 492 129 c 1,25,-1
 492 350 l 1,26,27
 463 402 463 402 412 433.5 c 128,-1,28
 361 465 361 465 296 465 c 0,29,30
 233 465 233 465 189.5 432.5 c 128,-1,31
 146 400 146 400 125.5 348.5 c 128,-1,32
 105 297 105 297 105 240 c 256,33,34
 105 183 105 183 126 131.5 c 128,-1,35
 147 80 147 80 190 47.5 c 128,-1,36
 233 15 233 15 296 15 c 0,37,23
 361 15 361 15 412 46 c 128,-1,24
EndSplineSet
Validated: 1
EndChar

StartChar: Abreve
Encoding: 258 258 177
Width: 685
GlyphClass: 1
Flags: W
LayerCount: 2
Fore
SplineSet
350 664 m 1,0,-1
 640 0 l 1,1,-1
 586 0 l 1,2,-1
 502 191 l 1,3,-1
 155 191 l 1,4,-1
 67 0 l 1,5,-1
 45 0 l 1,6,-1
 350 664 l 1,0,-1
164 211 m 1,7,-1
 494 211 l 1,8,-1
 333 579 l 1,9,-1
 164 211 l 1,7,-1
448 801 m 1,10,11
 448 761 448 761 419 732.5 c 128,-1,12
 390 704 390 704 350 704 c 256,13,14
 310 704 310 704 281.5 732.5 c 128,-1,15
 253 761 253 761 253 801 c 1,16,-1
 293 801 l 1,17,18
 293 768 293 768 308 746 c 128,-1,19
 323 724 323 724 350 724 c 256,20,21
 377 724 377 724 392.5 746 c 128,-1,22
 408 768 408 768 408 801 c 1,23,-1
 448 801 l 1,10,11
EndSplineSet
Validated: 1
EndChar

StartChar: abreve
Encoding: 259 259 178
Width: 623
GlyphClass: 1
Flags: W
LayerCount: 2
Fore
SplineSet
394 643 m 1,0,1
 394 603 394 603 365 574.5 c 128,-1,2
 336 546 336 546 296 546 c 256,3,4
 256 546 256 546 227.5 574.5 c 128,-1,5
 199 603 199 603 199 643 c 1,6,-1
 239 643 l 1,7,8
 239 610 239 610 254 588 c 128,-1,9
 269 566 269 566 296 566 c 256,10,11
 323 566 323 566 338.5 588 c 128,-1,12
 354 610 354 610 354 643 c 1,13,-1
 394 643 l 1,0,1
542 0 m 1,14,-1
 492 0 l 1,15,-1
 492 92 l 1,16,17
 458 46 458 46 406.5 20 c 128,-1,18
 355 -6 355 -6 296 -6 c 0,19,20
 229 -6 229 -6 172.5 27 c 128,-1,21
 116 60 116 60 83 116.5 c 128,-1,22
 50 173 50 173 50 240 c 256,23,24
 50 307 50 307 83 363.5 c 128,-1,25
 116 420 116 420 172.5 453 c 128,-1,26
 229 486 229 486 296 486 c 0,27,28
 355 486 355 486 406.5 460 c 128,-1,29
 458 434 458 434 492 388 c 1,30,-1
 492 480 l 1,31,-1
 542 480 l 1,32,-1
 542 0 l 1,14,-1
412 46 m 128,-1,34
 463 77 463 77 492 129 c 1,35,-1
 492 350 l 1,36,37
 463 402 463 402 412 433.5 c 128,-1,38
 361 465 361 465 296 465 c 0,39,40
 233 465 233 465 189.5 432.5 c 128,-1,41
 146 400 146 400 125.5 348.5 c 128,-1,42
 105 297 105 297 105 240 c 256,43,44
 105 183 105 183 126 131.5 c 128,-1,45
 147 80 147 80 190 47.5 c 128,-1,46
 233 15 233 15 296 15 c 0,47,33
 361 15 361 15 412 46 c 128,-1,34
EndSplineSet
Validated: 1
EndChar

StartChar: Aogonek
Encoding: 260 260 179
Width: 685
GlyphClass: 1
Flags: W
LayerCount: 2
Fore
SplineSet
350 664 m 1,0,-1
 640 0 l 1,1,-1
 586 0 l 1,2,-1
 502 191 l 1,3,-1
 155 191 l 1,4,-1
 67 0 l 1,5,-1
 45 0 l 1,6,-1
 350 664 l 1,0,-1
164 211 m 1,7,-1
 494 211 l 1,8,-1
 333 579 l 1,9,-1
 164 211 l 1,7,-1
530 -105 m 0,11,12
 530 -114 530 -114 532 -119 c 0,13,14
 537 -133 537 -133 550.5 -140.5 c 128,-1,15
 564 -148 564 -148 581 -148 c 0,16,17
 593 -148 593 -148 605.5 -143.5 c 128,-1,18
 618 -139 618 -139 626 -131 c 1,19,-1
 640 -145 l 1,20,21
 626 -159 626 -159 605.5 -166.5 c 128,-1,22
 585 -174 585 -174 564 -174 c 0,23,24
 544 -174 544 -174 527.5 -167 c 128,-1,25
 511 -160 511 -160 503 -146 c 0,26,27
 495 -134 495 -134 495 -118 c 0,28,29
 495 -96 495 -96 510.5 -74.5 c 128,-1,30
 526 -53 526 -53 550 -35 c 0,31,32
 568 -21 568 -21 604 0 c 1,33,-1
 640 0 l 1,34,35
 635 -2 635 -2 618 -10.5 c 128,-1,36
 601 -19 601 -19 577 -37 c 0,37,10
 530 -73 530 -73 530 -105 c 0,11,12
EndSplineSet
Validated: 5
EndChar

StartChar: aogonek
Encoding: 261 261 180
Width: 623
GlyphClass: 1
Flags: W
LayerCount: 2
Fore
SplineSet
542 0 m 1,0,-1
 492 0 l 1,1,-1
 492 92 l 1,2,3
 458 46 458 46 406.5 20 c 128,-1,4
 355 -6 355 -6 296 -6 c 0,5,6
 229 -6 229 -6 172.5 27 c 128,-1,7
 116 60 116 60 83 116.5 c 128,-1,8
 50 173 50 173 50 240 c 256,9,10
 50 307 50 307 83 363.5 c 128,-1,11
 116 420 116 420 172.5 453 c 128,-1,12
 229 486 229 486 296 486 c 0,13,14
 355 486 355 486 406.5 460 c 128,-1,15
 458 434 458 434 492 388 c 1,16,-1
 492 480 l 1,17,-1
 542 480 l 1,18,-1
 542 0 l 1,0,-1
412 46 m 128,-1,20
 463 77 463 77 492 129 c 1,21,-1
 492 350 l 1,22,23
 463 402 463 402 412 433.5 c 128,-1,24
 361 465 361 465 296 465 c 0,25,26
 233 465 233 465 189.5 432.5 c 128,-1,27
 146 400 146 400 125.5 348.5 c 128,-1,28
 105 297 105 297 105 240 c 256,29,30
 105 183 105 183 126 131.5 c 128,-1,31
 147 80 147 80 190 47.5 c 128,-1,32
 233 15 233 15 296 15 c 0,33,19
 361 15 361 15 412 46 c 128,-1,20
432 -105 m 0,35,36
 432 -114 432 -114 434 -119 c 0,37,38
 439 -133 439 -133 452.5 -140.5 c 128,-1,39
 466 -148 466 -148 483 -148 c 0,40,41
 495 -148 495 -148 507.5 -143.5 c 128,-1,42
 520 -139 520 -139 528 -131 c 1,43,-1
 542 -145 l 1,44,45
 528 -159 528 -159 507.5 -166.5 c 128,-1,46
 487 -174 487 -174 466 -174 c 0,47,48
 446 -174 446 -174 429.5 -167 c 128,-1,49
 413 -160 413 -160 405 -146 c 0,50,51
 397 -134 397 -134 397 -118 c 0,52,53
 397 -96 397 -96 412.5 -74.5 c 128,-1,54
 428 -53 428 -53 452 -35 c 0,55,56
 470 -21 470 -21 506 0 c 1,57,-1
 542 0 l 1,58,59
 537 -2 537 -2 520 -11 c 128,-1,60
 503 -20 503 -20 479 -37 c 0,61,34
 432 -73 432 -73 432 -105 c 0,35,36
EndSplineSet
Validated: 5
EndChar

StartChar: Cacute
Encoding: 262 262 181
Width: 677
GlyphClass: 1
Flags: W
LayerCount: 2
Fore
SplineSet
632 111 m 1,0,1
 584 55 584 55 518.5 24.5 c 128,-1,2
 453 -6 453 -6 378 -6 c 0,3,4
 288 -6 288 -6 211.5 39 c 128,-1,5
 135 84 135 84 90 161 c 128,-1,6
 45 238 45 238 45 329 c 256,7,8
 45 420 45 420 90 497 c 128,-1,9
 135 574 135 574 211.5 619 c 128,-1,10
 288 664 288 664 378 664 c 0,11,12
 448 664 448 664 510.5 636.5 c 128,-1,13
 573 609 573 609 621 558 c 1,14,-1
 607 544 l 1,15,16
 510 644 510 644 378 644 c 0,17,18
 300 644 300 644 236 598.5 c 128,-1,19
 172 553 172 553 136 480 c 128,-1,20
 100 407 100 407 100 329 c 0,21,22
 100 250 100 250 136.5 177 c 128,-1,23
 173 104 173 104 236.5 59 c 128,-1,24
 300 14 300 14 378 14 c 0,25,26
 521 14 521 14 618 126 c 1,27,-1
 632 111 l 1,0,1
467 874 m 1,28,-1
 529 874 l 1,29,-1
 395 744 l 1,30,-1
 371 744 l 1,31,-1
 467 874 l 1,28,-1
508 704 m 1,32,-1
 257 704 l 1,33,-1
 257 724 l 1,34,-1
 508 724 l 1,35,-1
 508 704 l 1,32,-1
EndSplineSet
Validated: 1
EndChar

StartChar: cacute
Encoding: 263 263 182
Width: 544
GlyphClass: 1
Flags: W
LayerCount: 2
Fore
SplineSet
400 39.5 m 128,-1,1
 447 64 447 64 477 106 c 1,2,-1
 493 93 l 1,3,4
 459 47 459 47 407.5 20.5 c 128,-1,5
 356 -6 356 -6 296 -6 c 0,6,7
 229 -6 229 -6 172.5 27 c 128,-1,8
 116 60 116 60 83 116.5 c 128,-1,9
 50 173 50 173 50 240 c 256,10,11
 50 307 50 307 83 363.5 c 128,-1,12
 116 420 116 420 172.5 453 c 128,-1,13
 229 486 229 486 296 486 c 0,14,15
 356 486 356 486 408 459.5 c 128,-1,16
 460 433 460 433 494 386 c 1,17,-1
 478 373 l 1,18,19
 447 416 447 416 400 440.5 c 128,-1,20
 353 465 353 465 296 465 c 0,21,22
 233 465 233 465 189.5 432.5 c 128,-1,23
 146 400 146 400 125.5 348.5 c 128,-1,24
 105 297 105 297 105 240 c 256,25,26
 105 183 105 183 126 131.5 c 128,-1,27
 147 80 147 80 190 47.5 c 128,-1,28
 233 15 233 15 296 15 c 0,29,0
 353 15 353 15 400 39.5 c 128,-1,1
356 676 m 1,30,-1
 418 676 l 1,31,-1
 284 546 l 1,32,-1
 260 546 l 1,33,-1
 356 676 l 1,30,-1
EndSplineSet
Validated: 1
EndChar

StartChar: Cdotaccent
Encoding: 266 266 183
Width: 677
GlyphClass: 1
Flags: W
LayerCount: 2
Fore
SplineSet
632 111 m 1,0,1
 584 55 584 55 518.5 24.5 c 128,-1,2
 453 -6 453 -6 378 -6 c 0,3,4
 288 -6 288 -6 211.5 39 c 128,-1,5
 135 84 135 84 90 161 c 128,-1,6
 45 238 45 238 45 329 c 256,7,8
 45 420 45 420 90 497 c 128,-1,9
 135 574 135 574 211.5 619 c 128,-1,10
 288 664 288 664 378 664 c 0,11,12
 448 664 448 664 510.5 636.5 c 128,-1,13
 573 609 573 609 621 558 c 1,14,-1
 607 544 l 1,15,16
 510 644 510 644 378 644 c 0,17,18
 300 644 300 644 236 598.5 c 128,-1,19
 172 553 172 553 136 480 c 128,-1,20
 100 407 100 407 100 329 c 0,21,22
 100 250 100 250 136.5 177 c 128,-1,23
 173 104 173 104 236.5 59 c 128,-1,24
 300 14 300 14 378 14 c 0,25,26
 521 14 521 14 618 126 c 1,27,-1
 632 111 l 1,0,1
398 750 m 128,-1,29
 390 758 390 758 378 758 c 0,30,31
 367 758 367 758 359 750 c 128,-1,32
 351 742 351 742 351 731 c 256,33,34
 351 720 351 720 359 712 c 128,-1,35
 367 704 367 704 378 704 c 256,36,37
 389 704 389 704 397.5 712 c 128,-1,38
 406 720 406 720 406 731 c 256,39,28
 406 742 406 742 398 750 c 128,-1,29
EndSplineSet
Validated: 9
EndChar

StartChar: cdotaccent
Encoding: 267 267 184
Width: 544
GlyphClass: 1
Flags: W
LayerCount: 2
Fore
SplineSet
400 39.5 m 128,-1,1
 447 64 447 64 477 106 c 1,2,-1
 493 93 l 1,3,4
 459 47 459 47 407.5 20.5 c 128,-1,5
 356 -6 356 -6 296 -6 c 0,6,7
 229 -6 229 -6 172.5 27 c 128,-1,8
 116 60 116 60 83 116.5 c 128,-1,9
 50 173 50 173 50 240 c 256,10,11
 50 307 50 307 83 363.5 c 128,-1,12
 116 420 116 420 172.5 453 c 128,-1,13
 229 486 229 486 296 486 c 0,14,15
 356 486 356 486 408 459.5 c 128,-1,16
 460 433 460 433 494 386 c 1,17,-1
 478 373 l 1,18,19
 447 416 447 416 400 440.5 c 128,-1,20
 353 465 353 465 296 465 c 0,21,22
 233 465 233 465 189.5 432.5 c 128,-1,23
 146 400 146 400 125.5 348.5 c 128,-1,24
 105 297 105 297 105 240 c 256,25,26
 105 183 105 183 126 131.5 c 128,-1,27
 147 80 147 80 190 47.5 c 128,-1,28
 233 15 233 15 296 15 c 0,29,0
 353 15 353 15 400 39.5 c 128,-1,1
292 592 m 128,-1,31
 284 600 284 600 272 600 c 0,32,33
 261 600 261 600 253 592 c 128,-1,34
 245 584 245 584 245 573 c 256,35,36
 245 562 245 562 253 554 c 128,-1,37
 261 546 261 546 272 546 c 256,38,39
 283 546 283 546 291.5 554 c 128,-1,40
 300 562 300 562 300 573 c 256,41,30
 300 584 300 584 292 592 c 128,-1,31
EndSplineSet
Validated: 9
EndChar

StartChar: Ccaron
Encoding: 268 268 185
Width: 677
GlyphClass: 1
Flags: W
LayerCount: 2
Fore
SplineSet
632 111 m 1,0,1
 584 55 584 55 518.5 24.5 c 128,-1,2
 453 -6 453 -6 378 -6 c 0,3,4
 288 -6 288 -6 211.5 39 c 128,-1,5
 135 84 135 84 90 161 c 128,-1,6
 45 238 45 238 45 329 c 256,7,8
 45 420 45 420 90 497 c 128,-1,9
 135 574 135 574 211.5 619 c 128,-1,10
 288 664 288 664 378 664 c 0,11,12
 448 664 448 664 510.5 636.5 c 128,-1,13
 573 609 573 609 621 558 c 1,14,-1
 607 544 l 1,15,16
 510 644 510 644 378 644 c 0,17,18
 300 644 300 644 236 598.5 c 128,-1,19
 172 553 172 553 136 480 c 128,-1,20
 100 407 100 407 100 329 c 0,21,22
 100 250 100 250 136.5 177 c 128,-1,23
 173 104 173 104 236.5 59 c 128,-1,24
 300 14 300 14 378 14 c 0,25,26
 521 14 521 14 618 126 c 1,27,-1
 632 111 l 1,0,1
396 762 m 1,28,-1
 314 873 l 1,29,-1
 252 873 l 1,30,-1
 378 704 l 1,31,-1
 504 873 l 1,32,-1
 479 873 l 1,33,-1
 396 762 l 1,28,-1
EndSplineSet
Validated: 9
EndChar

StartChar: ccaron
Encoding: 269 269 186
Width: 544
GlyphClass: 1
Flags: W
LayerCount: 2
Fore
SplineSet
400 39.5 m 128,-1,1
 447 64 447 64 477 106 c 1,2,-1
 493 93 l 1,3,4
 459 47 459 47 407.5 20.5 c 128,-1,5
 356 -6 356 -6 296 -6 c 0,6,7
 229 -6 229 -6 172.5 27 c 128,-1,8
 116 60 116 60 83 116.5 c 128,-1,9
 50 173 50 173 50 240 c 256,10,11
 50 307 50 307 83 363.5 c 128,-1,12
 116 420 116 420 172.5 453 c 128,-1,13
 229 486 229 486 296 486 c 0,14,15
 356 486 356 486 408 459.5 c 128,-1,16
 460 433 460 433 494 386 c 1,17,-1
 478 373 l 1,18,19
 447 416 447 416 400 440.5 c 128,-1,20
 353 465 353 465 296 465 c 0,21,22
 233 465 233 465 189.5 432.5 c 128,-1,23
 146 400 146 400 125.5 348.5 c 128,-1,24
 105 297 105 297 105 240 c 256,25,26
 105 183 105 183 126 131.5 c 128,-1,27
 147 80 147 80 190 47.5 c 128,-1,28
 233 15 233 15 296 15 c 0,29,0
 353 15 353 15 400 39.5 c 128,-1,1
290 604 m 1,30,-1
 208 715 l 1,31,-1
 146 715 l 1,32,-1
 272 546 l 1,33,-1
 398 715 l 1,34,-1
 373 715 l 1,35,-1
 290 604 l 1,30,-1
EndSplineSet
Validated: 9
EndChar

StartChar: Dcaron
Encoding: 270 270 187
Width: 661
GlyphClass: 1
Flags: W
LayerCount: 2
Fore
SplineSet
440.5 614.5 m 128,-1,1
 517 571 517 571 561.5 495.5 c 128,-1,2
 606 420 606 420 606 329 c 256,3,4
 606 238 606 238 561.5 162.5 c 128,-1,5
 517 87 517 87 440.5 43.5 c 128,-1,6
 364 0 364 0 273 0 c 2,7,-1
 83 0 l 1,8,-1
 83 658 l 1,9,-1
 273 658 l 2,10,0
 364 658 364 658 440.5 614.5 c 128,-1,1
414.5 64 m 128,-1,12
 478 108 478 108 514.5 179 c 128,-1,13
 551 250 551 250 551 329 c 0,14,15
 551 406 551 406 515 477.5 c 128,-1,16
 479 549 479 549 415.5 593.5 c 128,-1,17
 352 638 352 638 273 638 c 2,18,-1
 132 638 l 1,19,-1
 132 20 l 1,20,-1
 273 20 l 2,21,11
 351 20 351 20 414.5 64 c 128,-1,12
353 762 m 1,22,-1
 271 873 l 1,23,-1
 209 873 l 1,24,-1
 335 704 l 1,25,-1
 461 873 l 1,26,-1
 436 873 l 1,27,-1
 353 762 l 1,22,-1
EndSplineSet
Validated: 9
EndChar

StartChar: dcaron
Encoding: 271 271 188
Width: 698
GlyphClass: 1
Flags: W
LayerCount: 2
Fore
SplineSet
542 0 m 1,0,-1
 492 0 l 1,1,-1
 492 92 l 1,2,3
 458 46 458 46 406.5 20 c 128,-1,4
 355 -6 355 -6 296 -6 c 0,5,6
 229 -6 229 -6 172.5 27 c 128,-1,7
 116 60 116 60 83 116.5 c 128,-1,8
 50 173 50 173 50 240 c 256,9,10
 50 307 50 307 83 363.5 c 128,-1,11
 116 420 116 420 172.5 453 c 128,-1,12
 229 486 229 486 296 486 c 0,13,14
 355 486 355 486 406.5 460 c 128,-1,15
 458 434 458 434 492 388 c 1,16,-1
 492 658 l 1,17,-1
 542 658 l 1,18,-1
 542 0 l 1,0,-1
412 46 m 128,-1,20
 463 77 463 77 492 129 c 1,21,-1
 492 350 l 1,22,23
 463 402 463 402 412 433.5 c 128,-1,24
 361 465 361 465 296 465 c 0,25,26
 233 465 233 465 189.5 432.5 c 128,-1,27
 146 400 146 400 125.5 348.5 c 128,-1,28
 105 297 105 297 105 240 c 256,29,30
 105 183 105 183 126 131.5 c 128,-1,31
 147 80 147 80 190 47.5 c 128,-1,32
 233 15 233 15 296 15 c 0,33,19
 361 15 361 15 412 46 c 128,-1,20
669.5 645 m 128,-1,35
 683 632 683 632 683 613 c 0,36,37
 683 607 683 607 682 602 c 0,38,39
 677 576 677 576 661 552 c 128,-1,40
 645 528 645 528 621 500 c 1,41,-1
 601 500 l 1,42,43
 609 513 609 513 617 532.5 c 128,-1,44
 625 552 625 552 627 570 c 1,45,46
 612 573 612 573 602 585 c 128,-1,47
 592 597 592 597 592 613 c 0,48,49
 592 632 592 632 605 645 c 128,-1,50
 618 658 618 658 636 658 c 0,51,34
 656 658 656 658 669.5 645 c 128,-1,35
EndSplineSet
Validated: 1
EndChar

StartChar: Dcroat
Encoding: 272 272 189
Width: 671
GlyphClass: 1
Flags: W
LayerCount: 2
Fore
SplineSet
450.5 614.5 m 128,-1,1
 527 571 527 571 571.5 495.5 c 128,-1,2
 616 420 616 420 616 329 c 256,3,4
 616 238 616 238 571.5 162.5 c 128,-1,5
 527 87 527 87 450.5 43.5 c 128,-1,6
 374 0 374 0 283 0 c 2,7,-1
 93 0 l 1,8,-1
 93 658 l 1,9,-1
 283 658 l 2,10,0
 374 658 374 658 450.5 614.5 c 128,-1,1
424.5 64 m 128,-1,12
 488 108 488 108 524.5 179 c 128,-1,13
 561 250 561 250 561 329 c 0,14,15
 561 406 561 406 525 477.5 c 128,-1,16
 489 549 489 549 425.5 593.5 c 128,-1,17
 362 638 362 638 283 638 c 2,18,-1
 142 638 l 1,19,-1
 142 20 l 1,20,-1
 283 20 l 2,21,11
 361 20 361 20 424.5 64 c 128,-1,12
33 339 m 1,22,-1
 298 339 l 1,23,-1
 298 319 l 1,24,-1
 33 319 l 1,25,-1
 33 339 l 1,22,-1
EndSplineSet
Validated: 5
EndChar

StartChar: dcroat
Encoding: 273 273 190
Width: 632
GlyphClass: 1
Flags: W
LayerCount: 2
Fore
SplineSet
542 0 m 1,0,-1
 492 0 l 1,1,-1
 492 92 l 1,2,3
 458 46 458 46 406.5 20 c 128,-1,4
 355 -6 355 -6 296 -6 c 0,5,6
 229 -6 229 -6 172.5 27 c 128,-1,7
 116 60 116 60 83 116.5 c 128,-1,8
 50 173 50 173 50 240 c 256,9,10
 50 307 50 307 83 363.5 c 128,-1,11
 116 420 116 420 172.5 453 c 128,-1,12
 229 486 229 486 296 486 c 0,13,14
 355 486 355 486 406.5 460 c 128,-1,15
 458 434 458 434 492 388 c 1,16,-1
 492 658 l 1,17,-1
 542 658 l 1,18,-1
 542 0 l 1,0,-1
412 46 m 128,-1,20
 463 77 463 77 492 129 c 1,21,-1
 492 350 l 1,22,23
 463 402 463 402 412 433.5 c 128,-1,24
 361 465 361 465 296 465 c 0,25,26
 233 465 233 465 189.5 432.5 c 128,-1,27
 146 400 146 400 125.5 348.5 c 128,-1,28
 105 297 105 297 105 240 c 256,29,30
 105 183 105 183 126 131.5 c 128,-1,31
 147 80 147 80 190 47.5 c 128,-1,32
 233 15 233 15 296 15 c 0,33,19
 361 15 361 15 412 46 c 128,-1,20
432 533 m 1,34,-1
 602 533 l 1,35,-1
 602 513 l 1,36,-1
 432 513 l 1,37,-1
 432 533 l 1,34,-1
EndSplineSet
Validated: 5
EndChar

StartChar: Emacron
Encoding: 274 274 191
Width: 558
GlyphClass: 1
Flags: W
LayerCount: 2
Fore
SplineSet
498 638 m 1,0,-1
 131 638 l 1,1,-1
 131 339 l 1,2,-1
 423 339 l 1,3,-1
 423 319 l 1,4,-1
 131 319 l 1,5,-1
 131 20 l 1,6,-1
 498 20 l 1,7,-1
 498 0 l 1,8,-1
 82 0 l 1,9,-1
 82 658 l 1,10,-1
 498 658 l 1,11,-1
 498 638 l 1,0,-1
153 704 m 1,12,-1
 153 724 l 1,13,-1
 404 724 l 1,14,-1
 404 704 l 1,15,-1
 153 704 l 1,12,-1
EndSplineSet
Validated: 1
EndChar

StartChar: emacron
Encoding: 275 275 192
Width: 576
GlyphClass: 1
Flags: W
LayerCount: 2
Fore
SplineSet
162 546 m 1,0,-1
 162 566 l 1,1,-1
 414 566 l 1,2,-1
 414 546 l 1,3,-1
 162 546 l 1,0,-1
526 230 m 1,4,-1
 105 230 l 1,5,6
 105 175 105 175 126.5 126 c 128,-1,7
 148 77 148 77 191.5 46 c 128,-1,8
 235 15 235 15 296 15 c 0,9,10
 356 15 356 15 405 42.5 c 128,-1,11
 454 70 454 70 484 117 c 1,12,-1
 501 105 l 1,13,14
 467 54 467 54 413 24 c 128,-1,15
 359 -6 359 -6 296 -6 c 0,16,17
 229 -6 229 -6 172.5 27 c 128,-1,18
 116 60 116 60 83 116.5 c 128,-1,19
 50 173 50 173 50 240 c 256,20,21
 50 307 50 307 83 363.5 c 128,-1,22
 116 420 116 420 172.5 453 c 128,-1,23
 229 486 229 486 296 486 c 256,24,25
 363 486 363 486 415.5 453 c 128,-1,26
 468 420 468 420 497 364 c 128,-1,27
 526 308 526 308 526 240 c 2,28,-1
 526 230 l 1,4,-1
191 434.5 m 128,-1,30
 148 404 148 404 126.5 354.5 c 128,-1,31
 105 305 105 305 105 251 c 1,32,-1
 471 251 l 1,33,34
 469 341 469 341 427 403 c 128,-1,35
 385 465 385 465 295 465 c 0,36,29
 234 465 234 465 191 434.5 c 128,-1,30
EndSplineSet
Validated: 1
EndChar

StartChar: Edotaccent
Encoding: 278 278 193
Width: 558
GlyphClass: 1
Flags: W
LayerCount: 2
Fore
SplineSet
498 638 m 1,0,-1
 131 638 l 1,1,-1
 131 339 l 1,2,-1
 423 339 l 1,3,-1
 423 319 l 1,4,-1
 131 319 l 1,5,-1
 131 20 l 1,6,-1
 498 20 l 1,7,-1
 498 0 l 1,8,-1
 82 0 l 1,9,-1
 82 658 l 1,10,-1
 498 658 l 1,11,-1
 498 638 l 1,0,-1
298 749 m 128,-1,13
 290 757 290 757 278 757 c 0,14,15
 267 757 267 757 259 749 c 128,-1,16
 251 741 251 741 251 730 c 256,17,18
 251 719 251 719 259 711 c 128,-1,19
 267 703 267 703 278 703 c 256,20,21
 289 703 289 703 297.5 711 c 128,-1,22
 306 719 306 719 306 730 c 256,23,12
 306 741 306 741 298 749 c 128,-1,13
EndSplineSet
Validated: 9
EndChar

StartChar: edotaccent
Encoding: 279 279 194
Width: 576
GlyphClass: 1
Flags: W
LayerCount: 2
Fore
SplineSet
308 592 m 128,-1,1
 300 600 300 600 288 600 c 0,2,3
 277 600 277 600 269 592 c 128,-1,4
 261 584 261 584 261 573 c 256,5,6
 261 562 261 562 269 554 c 128,-1,7
 277 546 277 546 288 546 c 256,8,9
 299 546 299 546 307.5 554 c 128,-1,10
 316 562 316 562 316 573 c 256,11,0
 316 584 316 584 308 592 c 128,-1,1
526 230 m 1,12,-1
 105 230 l 1,13,14
 105 175 105 175 126.5 126 c 128,-1,15
 148 77 148 77 191.5 46 c 128,-1,16
 235 15 235 15 296 15 c 0,17,18
 356 15 356 15 405 42.5 c 128,-1,19
 454 70 454 70 484 117 c 1,20,-1
 501 105 l 1,21,22
 467 54 467 54 413 24 c 128,-1,23
 359 -6 359 -6 296 -6 c 0,24,25
 229 -6 229 -6 172.5 27 c 128,-1,26
 116 60 116 60 83 116.5 c 128,-1,27
 50 173 50 173 50 240 c 256,28,29
 50 307 50 307 83 363.5 c 128,-1,30
 116 420 116 420 172.5 453 c 128,-1,31
 229 486 229 486 296 486 c 256,32,33
 363 486 363 486 415.5 453 c 128,-1,34
 468 420 468 420 497 364 c 128,-1,35
 526 308 526 308 526 240 c 2,36,-1
 526 230 l 1,12,-1
191 434.5 m 128,-1,38
 148 404 148 404 126.5 354.5 c 128,-1,39
 105 305 105 305 105 251 c 1,40,-1
 471 251 l 1,41,42
 469 341 469 341 427 403 c 128,-1,43
 385 465 385 465 295 465 c 0,44,37
 234 465 234 465 191 434.5 c 128,-1,38
EndSplineSet
Validated: 9
EndChar

StartChar: Eogonek
Encoding: 280 280 195
Width: 558
GlyphClass: 1
Flags: W
LayerCount: 2
Fore
SplineSet
498 638 m 1,0,-1
 131 638 l 1,1,-1
 131 339 l 1,2,-1
 423 339 l 1,3,-1
 423 319 l 1,4,-1
 131 319 l 1,5,-1
 131 20 l 1,6,-1
 498 20 l 1,7,-1
 498 0 l 1,8,-1
 82 0 l 1,9,-1
 82 658 l 1,10,-1
 498 658 l 1,11,-1
 498 638 l 1,0,-1
388 -105 m 0,13,14
 388 -114 388 -114 390 -119 c 0,15,16
 395 -133 395 -133 408.5 -140.5 c 128,-1,17
 422 -148 422 -148 439 -148 c 0,18,19
 451 -148 451 -148 463.5 -143.5 c 128,-1,20
 476 -139 476 -139 484 -131 c 1,21,-1
 498 -145 l 1,22,23
 484 -159 484 -159 463.5 -166.5 c 128,-1,24
 443 -174 443 -174 422 -174 c 0,25,26
 402 -174 402 -174 385.5 -167 c 128,-1,27
 369 -160 369 -160 361 -146 c 0,28,29
 353 -134 353 -134 353 -118 c 0,30,31
 353 -96 353 -96 368.5 -74.5 c 128,-1,32
 384 -53 384 -53 408 -35 c 0,33,34
 426 -21 426 -21 462 0 c 1,35,-1
 498 0 l 1,36,37
 493 -2 493 -2 476 -11 c 128,-1,38
 459 -20 459 -20 435 -37 c 0,39,12
 388 -73 388 -73 388 -105 c 0,13,14
EndSplineSet
Validated: 5
EndChar

StartChar: eogonek
Encoding: 281 281 196
Width: 576
GlyphClass: 1
Flags: W
LayerCount: 2
Fore
SplineSet
526 230 m 1,0,-1
 105 230 l 1,1,2
 105 175 105 175 126.5 126 c 128,-1,3
 148 77 148 77 191.5 46 c 128,-1,4
 235 15 235 15 296 15 c 0,5,6
 356 15 356 15 405 42.5 c 128,-1,7
 454 70 454 70 484 117 c 1,8,-1
 501 105 l 1,9,10
 486 82 486 82 468 65 c 0,11,12
 438 35 438 35 371 -7 c 0,13,14
 337 -27 337 -27 324 -37 c 0,15,16
 277 -73 277 -73 277 -105 c 0,17,18
 277 -114 277 -114 279 -119 c 0,19,20
 284 -133 284 -133 297.5 -140.5 c 128,-1,21
 311 -148 311 -148 328 -148 c 0,22,23
 340 -148 340 -148 352.5 -143.5 c 128,-1,24
 365 -139 365 -139 373 -131 c 1,25,-1
 387 -145 l 1,26,27
 373 -159 373 -159 352.5 -166.5 c 128,-1,28
 332 -174 332 -174 311 -174 c 0,29,30
 291 -174 291 -174 274.5 -167 c 128,-1,31
 258 -160 258 -160 250 -146 c 0,32,33
 242 -134 242 -134 242 -118 c 0,34,35
 242 -96 242 -96 257.5 -74.5 c 128,-1,36
 273 -53 273 -53 297 -35 c 0,37,38
 313 -23 313 -23 352 1 c 1,39,40
 321 -6 321 -6 296 -6 c 0,41,42
 229 -6 229 -6 172.5 27 c 128,-1,43
 116 60 116 60 83 116.5 c 128,-1,44
 50 173 50 173 50 240 c 256,45,46
 50 307 50 307 83 363.5 c 128,-1,47
 116 420 116 420 172.5 453 c 128,-1,48
 229 486 229 486 296 486 c 256,49,50
 363 486 363 486 415.5 453 c 128,-1,51
 468 420 468 420 497 364 c 128,-1,52
 526 308 526 308 526 240 c 2,53,-1
 526 230 l 1,0,-1
471 251 m 1,54,55
 469 341 469 341 427 403 c 128,-1,56
 385 465 385 465 295 465 c 0,57,58
 234 465 234 465 191 434.5 c 128,-1,59
 148 404 148 404 126.5 354.5 c 128,-1,60
 105 305 105 305 105 251 c 1,61,-1
 471 251 l 1,54,55
EndSplineSet
Validated: 1
EndChar

StartChar: Ecaron
Encoding: 282 282 197
Width: 558
GlyphClass: 1
Flags: W
LayerCount: 2
Fore
SplineSet
498 638 m 1,0,-1
 131 638 l 1,1,-1
 131 339 l 1,2,-1
 423 339 l 1,3,-1
 423 319 l 1,4,-1
 131 319 l 1,5,-1
 131 20 l 1,6,-1
 498 20 l 1,7,-1
 498 0 l 1,8,-1
 82 0 l 1,9,-1
 82 658 l 1,10,-1
 498 658 l 1,11,-1
 498 638 l 1,0,-1
308 761 m 1,12,-1
 226 872 l 1,13,-1
 164 872 l 1,14,-1
 290 703 l 1,15,-1
 416 872 l 1,16,-1
 391 872 l 1,17,-1
 308 761 l 1,12,-1
EndSplineSet
Validated: 9
EndChar

StartChar: ecaron
Encoding: 283 283 198
Width: 576
GlyphClass: 1
Flags: W
LayerCount: 2
Fore
SplineSet
306 604 m 1,0,-1
 224 715 l 1,1,-1
 162 715 l 1,2,-1
 288 546 l 1,3,-1
 414 715 l 1,4,-1
 389 715 l 1,5,-1
 306 604 l 1,0,-1
526 230 m 1,6,-1
 105 230 l 1,7,8
 105 175 105 175 126.5 126 c 128,-1,9
 148 77 148 77 191.5 46 c 128,-1,10
 235 15 235 15 296 15 c 0,11,12
 356 15 356 15 405 42.5 c 128,-1,13
 454 70 454 70 484 117 c 1,14,-1
 501 105 l 1,15,16
 467 54 467 54 413 24 c 128,-1,17
 359 -6 359 -6 296 -6 c 0,18,19
 229 -6 229 -6 172.5 27 c 128,-1,20
 116 60 116 60 83 116.5 c 128,-1,21
 50 173 50 173 50 240 c 256,22,23
 50 307 50 307 83 363.5 c 128,-1,24
 116 420 116 420 172.5 453 c 128,-1,25
 229 486 229 486 296 486 c 256,26,27
 363 486 363 486 415.5 453 c 128,-1,28
 468 420 468 420 497 364 c 128,-1,29
 526 308 526 308 526 240 c 2,30,-1
 526 230 l 1,6,-1
191 434.5 m 128,-1,32
 148 404 148 404 126.5 354.5 c 128,-1,33
 105 305 105 305 105 251 c 1,34,-1
 471 251 l 1,35,36
 469 341 469 341 427 403 c 128,-1,37
 385 465 385 465 295 465 c 0,38,31
 234 465 234 465 191 434.5 c 128,-1,32
EndSplineSet
Validated: 9
EndChar

StartChar: Gbreve
Encoding: 286 286 199
Width: 709
GlyphClass: 1
Flags: W
LayerCount: 2
Fore
SplineSet
481 801 m 1,0,1
 481 761 481 761 452 732.5 c 128,-1,2
 423 704 423 704 383 704 c 256,3,4
 343 704 343 704 314.5 732.5 c 128,-1,5
 286 761 286 761 286 801 c 1,6,-1
 326 801 l 1,7,8
 326 768 326 768 341 746 c 128,-1,9
 356 724 356 724 383 724 c 256,10,11
 410 724 410 724 425.5 746 c 128,-1,12
 441 768 441 768 441 801 c 1,13,-1
 481 801 l 1,0,1
627 318 m 1,14,-1
 627 0 l 1,15,-1
 383 0 l 2,16,17
 292 0 292 0 215.5 43.5 c 128,-1,18
 139 87 139 87 94.5 162.5 c 128,-1,19
 50 238 50 238 50 329 c 256,20,21
 50 420 50 420 95 497 c 128,-1,22
 140 574 140 574 216.5 619 c 128,-1,23
 293 664 293 664 383 664 c 0,24,25
 453 664 453 664 515.5 636.5 c 128,-1,26
 578 609 578 609 626 558 c 1,27,-1
 612 544 l 1,28,29
 515 644 515 644 383 644 c 0,30,31
 305 644 305 644 241 598.5 c 128,-1,32
 177 553 177 553 141 480 c 128,-1,33
 105 407 105 407 105 329 c 0,34,35
 105 250 105 250 141.5 179 c 128,-1,36
 178 108 178 108 241.5 64 c 128,-1,37
 305 20 305 20 383 20 c 2,38,-1
 577 20 l 1,39,-1
 577 298 l 1,40,-1
 358 298 l 1,41,-1
 358 318 l 1,42,-1
 627 318 l 1,14,-1
EndSplineSet
Validated: 1
EndChar

StartChar: gbreve
Encoding: 287 287 200
Width: 623
GlyphClass: 1
Flags: W
LayerCount: 2
Fore
SplineSet
542 480 m 1,0,-1
 542 43 l 2,1,2
 542 -19 542 -19 517 -72.5 c 128,-1,3
 492 -126 492 -126 438 -159 c 128,-1,4
 384 -192 384 -192 301 -192 c 0,5,6
 226 -192 226 -192 170.5 -162 c 128,-1,7
 115 -132 115 -132 87 -77 c 1,8,-1
 106 -67 l 1,9,10
 131 -117 131 -117 182 -144 c 128,-1,11
 233 -171 233 -171 301 -171 c 0,12,13
 402 -171 402 -171 447 -112.5 c 128,-1,14
 492 -54 492 -54 492 33 c 2,15,-1
 492 91 l 1,16,17
 458 46 458 46 406.5 20 c 128,-1,18
 355 -6 355 -6 296 -6 c 0,19,20
 229 -6 229 -6 172.5 27 c 128,-1,21
 116 60 116 60 83 116.5 c 128,-1,22
 50 173 50 173 50 240 c 256,23,24
 50 307 50 307 83 363.5 c 128,-1,25
 116 420 116 420 172.5 453 c 128,-1,26
 229 486 229 486 296 486 c 0,27,28
 355 486 355 486 406.5 460 c 128,-1,29
 458 434 458 434 492 388 c 1,30,-1
 492 480 l 1,31,-1
 542 480 l 1,0,-1
412 46 m 128,-1,33
 463 77 463 77 492 129 c 1,34,-1
 492 350 l 1,35,36
 463 402 463 402 412 433.5 c 128,-1,37
 361 465 361 465 296 465 c 0,38,39
 233 465 233 465 189.5 432.5 c 128,-1,40
 146 400 146 400 125.5 348.5 c 128,-1,41
 105 297 105 297 105 240 c 256,42,43
 105 183 105 183 126 131.5 c 128,-1,44
 147 80 147 80 190 47.5 c 128,-1,45
 233 15 233 15 296 15 c 0,46,32
 361 15 361 15 412 46 c 128,-1,33
394 643 m 1,47,48
 394 603 394 603 365 574.5 c 128,-1,49
 336 546 336 546 296 546 c 256,50,51
 256 546 256 546 227.5 574.5 c 128,-1,52
 199 603 199 603 199 643 c 1,53,-1
 239 643 l 1,54,55
 239 610 239 610 254 588 c 128,-1,56
 269 566 269 566 296 566 c 256,57,58
 323 566 323 566 338.5 588 c 128,-1,59
 354 610 354 610 354 643 c 1,60,-1
 394 643 l 1,47,48
EndSplineSet
Validated: 1
EndChar

StartChar: Gdotaccent
Encoding: 288 288 201
Width: 709
GlyphClass: 1
Flags: W
LayerCount: 2
Fore
SplineSet
403 750 m 128,-1,1
 395 758 395 758 383 758 c 0,2,3
 372 758 372 758 364 750 c 128,-1,4
 356 742 356 742 356 731 c 256,5,6
 356 720 356 720 364 712 c 128,-1,7
 372 704 372 704 383 704 c 256,8,9
 394 704 394 704 402.5 712 c 128,-1,10
 411 720 411 720 411 731 c 256,11,0
 411 742 411 742 403 750 c 128,-1,1
627 318 m 1,12,-1
 627 0 l 1,13,-1
 383 0 l 2,14,15
 292 0 292 0 215.5 43.5 c 128,-1,16
 139 87 139 87 94.5 162.5 c 128,-1,17
 50 238 50 238 50 329 c 256,18,19
 50 420 50 420 95 497 c 128,-1,20
 140 574 140 574 216.5 619 c 128,-1,21
 293 664 293 664 383 664 c 0,22,23
 453 664 453 664 515.5 636.5 c 128,-1,24
 578 609 578 609 626 558 c 1,25,-1
 612 544 l 1,26,27
 515 644 515 644 383 644 c 0,28,29
 305 644 305 644 241 598.5 c 128,-1,30
 177 553 177 553 141 480 c 128,-1,31
 105 407 105 407 105 329 c 0,32,33
 105 250 105 250 141.5 179 c 128,-1,34
 178 108 178 108 241.5 64 c 128,-1,35
 305 20 305 20 383 20 c 2,36,-1
 577 20 l 1,37,-1
 577 298 l 1,38,-1
 358 298 l 1,39,-1
 358 318 l 1,40,-1
 627 318 l 1,12,-1
EndSplineSet
Validated: 9
EndChar

StartChar: gdotaccent
Encoding: 289 289 202
Width: 623
GlyphClass: 1
Flags: W
LayerCount: 2
Fore
SplineSet
542 480 m 1,0,-1
 542 43 l 2,1,2
 542 -19 542 -19 517 -72.5 c 128,-1,3
 492 -126 492 -126 438 -159 c 128,-1,4
 384 -192 384 -192 301 -192 c 0,5,6
 226 -192 226 -192 170.5 -162 c 128,-1,7
 115 -132 115 -132 87 -77 c 1,8,-1
 106 -67 l 1,9,10
 131 -117 131 -117 182 -144 c 128,-1,11
 233 -171 233 -171 301 -171 c 0,12,13
 402 -171 402 -171 447 -112.5 c 128,-1,14
 492 -54 492 -54 492 33 c 2,15,-1
 492 91 l 1,16,17
 458 46 458 46 406.5 20 c 128,-1,18
 355 -6 355 -6 296 -6 c 0,19,20
 229 -6 229 -6 172.5 27 c 128,-1,21
 116 60 116 60 83 116.5 c 128,-1,22
 50 173 50 173 50 240 c 256,23,24
 50 307 50 307 83 363.5 c 128,-1,25
 116 420 116 420 172.5 453 c 128,-1,26
 229 486 229 486 296 486 c 0,27,28
 355 486 355 486 406.5 460 c 128,-1,29
 458 434 458 434 492 388 c 1,30,-1
 492 480 l 1,31,-1
 542 480 l 1,0,-1
412 46 m 128,-1,33
 463 77 463 77 492 129 c 1,34,-1
 492 350 l 1,35,36
 463 402 463 402 412 433.5 c 128,-1,37
 361 465 361 465 296 465 c 0,38,39
 233 465 233 465 189.5 432.5 c 128,-1,40
 146 400 146 400 125.5 348.5 c 128,-1,41
 105 297 105 297 105 240 c 256,42,43
 105 183 105 183 126 131.5 c 128,-1,44
 147 80 147 80 190 47.5 c 128,-1,45
 233 15 233 15 296 15 c 0,46,32
 361 15 361 15 412 46 c 128,-1,33
316 592 m 128,-1,48
 308 600 308 600 296 600 c 0,49,50
 285 600 285 600 277 592 c 128,-1,51
 269 584 269 584 269 573 c 256,52,53
 269 562 269 562 277 554 c 128,-1,54
 285 546 285 546 296 546 c 256,55,56
 307 546 307 546 315.5 554 c 128,-1,57
 324 562 324 562 324 573 c 256,58,47
 324 584 324 584 316 592 c 128,-1,48
EndSplineSet
Validated: 9
EndChar

StartChar: Gcommaaccent
Encoding: 290 290 203
Width: 709
GlyphClass: 1
Flags: W
LayerCount: 2
Fore
SplineSet
353 -72 m 1,0,-1
 415 -72 l 1,1,-1
 281 -202 l 1,2,-1
 257 -202 l 1,3,-1
 353 -72 l 1,0,-1
627 318 m 1,4,-1
 627 0 l 1,5,-1
 383 0 l 2,6,7
 292 0 292 0 215.5 43.5 c 128,-1,8
 139 87 139 87 94.5 162.5 c 128,-1,9
 50 238 50 238 50 329 c 256,10,11
 50 420 50 420 95 497 c 128,-1,12
 140 574 140 574 216.5 619 c 128,-1,13
 293 664 293 664 383 664 c 0,14,15
 453 664 453 664 515.5 636.5 c 128,-1,16
 578 609 578 609 626 558 c 1,17,-1
 612 544 l 1,18,19
 515 644 515 644 383 644 c 0,20,21
 305 644 305 644 241 598.5 c 128,-1,22
 177 553 177 553 141 480 c 128,-1,23
 105 407 105 407 105 329 c 0,24,25
 105 250 105 250 141.5 179 c 128,-1,26
 178 108 178 108 241.5 64 c 128,-1,27
 305 20 305 20 383 20 c 2,28,-1
 577 20 l 1,29,-1
 577 298 l 1,30,-1
 358 298 l 1,31,-1
 358 318 l 1,32,-1
 627 318 l 1,4,-1
EndSplineSet
Validated: 1
EndChar

StartChar: gcommaaccent
Encoding: 291 291 204
Width: 623
GlyphClass: 1
Flags: W
LayerCount: 2
Fore
SplineSet
542 480 m 1,0,-1
 542 43 l 2,1,2
 542 -19 542 -19 517 -72.5 c 128,-1,3
 492 -126 492 -126 438 -159 c 128,-1,4
 384 -192 384 -192 301 -192 c 0,5,6
 226 -192 226 -192 170.5 -162 c 128,-1,7
 115 -132 115 -132 87 -77 c 1,8,-1
 106 -67 l 1,9,10
 131 -117 131 -117 182 -144 c 128,-1,11
 233 -171 233 -171 301 -171 c 0,12,13
 402 -171 402 -171 447 -112.5 c 128,-1,14
 492 -54 492 -54 492 33 c 2,15,-1
 492 91 l 1,16,17
 458 46 458 46 406.5 20 c 128,-1,18
 355 -6 355 -6 296 -6 c 0,19,20
 229 -6 229 -6 172.5 27 c 128,-1,21
 116 60 116 60 83 116.5 c 128,-1,22
 50 173 50 173 50 240 c 256,23,24
 50 307 50 307 83 363.5 c 128,-1,25
 116 420 116 420 172.5 453 c 128,-1,26
 229 486 229 486 296 486 c 0,27,28
 355 486 355 486 406.5 460 c 128,-1,29
 458 434 458 434 492 388 c 1,30,-1
 492 480 l 1,31,-1
 542 480 l 1,0,-1
412 46 m 128,-1,33
 463 77 463 77 492 129 c 1,34,-1
 492 350 l 1,35,36
 463 402 463 402 412 433.5 c 128,-1,37
 361 465 361 465 296 465 c 0,38,39
 233 465 233 465 189.5 432.5 c 128,-1,40
 146 400 146 400 125.5 348.5 c 128,-1,41
 105 297 105 297 105 240 c 256,42,43
 105 183 105 183 126 131.5 c 128,-1,44
 147 80 147 80 190 47.5 c 128,-1,45
 233 15 233 15 296 15 c 0,46,32
 361 15 361 15 412 46 c 128,-1,33
380 676 m 1,47,-1
 442 676 l 1,48,-1
 308 546 l 1,49,-1
 284 546 l 1,50,-1
 380 676 l 1,47,-1
EndSplineSet
Validated: 1
EndChar

StartChar: Hbar
Encoding: 294 294 205
Width: 669
GlyphClass: 1
Flags: W
LayerCount: 2
Fore
SplineSet
537 658 m 1,0,-1
 587 658 l 1,1,-1
 587 0 l 1,2,-1
 537 0 l 1,3,-1
 537 318 l 1,4,-1
 132 318 l 1,5,-1
 132 0 l 1,6,-1
 82 0 l 1,7,-1
 82 658 l 1,8,-1
 132 658 l 1,9,-1
 132 338 l 1,10,-1
 537 338 l 1,11,-1
 537 658 l 1,0,-1
22 508 m 1,12,-1
 647 508 l 1,13,-1
 647 488 l 1,14,-1
 22 488 l 1,15,-1
 22 508 l 1,12,-1
EndSplineSet
Validated: 5
EndChar

StartChar: hbar
Encoding: 295 295 206
Width: 610
GlyphClass: 1
Flags: W
LayerCount: 2
Fore
SplineSet
516.5 364 m 128,-1,1
 528 329 528 329 528 277 c 2,2,-1
 528 0 l 1,3,-1
 478 0 l 1,4,-1
 478 277 l 2,5,6
 478 382 478 382 432 421 c 128,-1,7
 386 460 386 460 327 460 c 0,8,9
 270 460 270 460 223.5 424.5 c 128,-1,10
 177 389 177 389 156 339 c 0,11,12
 147 317 147 317 143.5 292 c 128,-1,13
 140 267 140 267 140 226 c 2,14,-1
 140 0 l 1,15,-1
 91 0 l 1,16,-1
 91 658 l 1,17,-1
 140 658 l 1,18,-1
 140 359 l 1,19,20
 165 409 165 409 218 445 c 128,-1,21
 271 481 271 481 333 481 c 0,22,23
 374 481 374 481 412.5 468.5 c 128,-1,24
 451 456 451 456 478 428 c 0,25,0
 505 399 505 399 516.5 364 c 128,-1,1
31 533 m 1,26,-1
 200 533 l 1,27,-1
 200 513 l 1,28,-1
 31 513 l 1,29,-1
 31 533 l 1,26,-1
EndSplineSet
Validated: 5
EndChar

StartChar: Itilde
Encoding: 296 296 207
Width: 230
GlyphClass: 1
Flags: W
LayerCount: 2
Fore
SplineSet
140 658 m 1,0,-1
 140 0 l 1,1,-1
 90 0 l 1,2,-1
 90 658 l 1,3,-1
 140 658 l 1,0,-1
211 744 m 128,-1,5
 230 759 230 759 248 778 c 1,6,-1
 234 792 l 1,7,8
 221 778 221 778 211 772 c 128,-1,9
 201 766 201 766 190 766 c 0,10,11
 189 766 189 766 188 766 c 0,12,13
 165 766 165 766 136 793 c 0,14,15
 102 822 102 822 71 822 c 0,16,17
 66 822 66 822 54 820 c 0,18,19
 36 816 36 816 17 803 c 128,-1,20
 -2 790 -2 790 -18 773 c 1,21,-1
 -3 759 l 1,22,23
 9 771 9 771 18.5 777 c 128,-1,24
 28 783 28 783 41 784 c 0,25,26
 55 786 55 786 68 779.5 c 128,-1,27
 81 773 81 773 97 759 c 0,28,29
 130 729 130 729 167 729 c 0,30,4
 192 729 192 729 211 744 c 128,-1,5
EndSplineSet
Validated: 9
EndChar

StartChar: itilde
Encoding: 297 297 208
Width: 250
GlyphClass: 1
Flags: W
LayerCount: 2
Fore
SplineSet
100 480 m 1,0,-1
 150 480 l 1,1,-1
 150 0 l 1,2,-1
 100 0 l 1,3,-1
 100 480 l 1,0,-1
221 561 m 128,-1,5
 240 576 240 576 258 595 c 1,6,-1
 244 609 l 1,7,8
 231 595 231 595 221 589 c 128,-1,9
 211 583 211 583 200 583 c 0,10,11
 199 583 199 583 198 583 c 0,12,13
 175 583 175 583 146 610 c 0,14,15
 112 639 112 639 81 639 c 0,16,17
 76 639 76 639 64 637 c 0,18,19
 46 633 46 633 27 620 c 128,-1,20
 8 607 8 607 -8 590 c 1,21,-1
 7 576 l 1,22,23
 19 588 19 588 28.5 594 c 128,-1,24
 38 600 38 600 51 601 c 0,25,26
 65 603 65 603 78 596.5 c 128,-1,27
 91 590 91 590 107 576 c 0,28,29
 139 546 139 546 177 546 c 0,30,4
 202 546 202 546 221 561 c 128,-1,5
EndSplineSet
Validated: 9
EndChar

StartChar: Imacron
Encoding: 298 298 209
Width: 230
GlyphClass: 1
Flags: W
LayerCount: 2
Fore
SplineSet
-10 729 m 1,0,-1
 -10 749 l 1,1,-1
 240 749 l 1,2,-1
 240 729 l 1,3,-1
 -10 729 l 1,0,-1
140 658 m 1,4,-1
 140 0 l 1,5,-1
 90 0 l 1,6,-1
 90 658 l 1,7,-1
 140 658 l 1,4,-1
EndSplineSet
Validated: 1
EndChar

StartChar: imacron
Encoding: 299 299 210
Width: 230
GlyphClass: 1
Flags: W
LayerCount: 2
Fore
SplineSet
90 480 m 1,0,-1
 140 480 l 1,1,-1
 140 0 l 1,2,-1
 90 0 l 1,3,-1
 90 480 l 1,0,-1
-10 546 m 1,4,-1
 -10 566 l 1,5,-1
 240 566 l 1,6,-1
 240 546 l 1,7,-1
 -10 546 l 1,4,-1
EndSplineSet
Validated: 1
EndChar

StartChar: Iogonek
Encoding: 302 302 211
Width: 228
GlyphClass: 1
Flags: W
LayerCount: 2
Fore
SplineSet
140 658 m 1,0,-1
 140 0 l 1,1,-1
 90 0 l 1,2,-1
 90 658 l 1,3,-1
 140 658 l 1,0,-1
30 -105 m 0,5,6
 30 -114 30 -114 32 -119 c 0,7,8
 37 -133 37 -133 50.5 -140.5 c 128,-1,9
 64 -148 64 -148 81 -148 c 0,10,11
 93 -148 93 -148 105.5 -143.5 c 128,-1,12
 118 -139 118 -139 126 -131 c 1,13,-1
 140 -145 l 1,14,15
 126 -159 126 -159 105.5 -166.5 c 128,-1,16
 85 -174 85 -174 64 -174 c 0,17,18
 44 -174 44 -174 27.5 -167 c 128,-1,19
 11 -160 11 -160 3 -146 c 0,20,21
 -5 -134 -5 -134 -5 -118 c 0,22,23
 -5 -96 -5 -96 10.5 -74.5 c 128,-1,24
 26 -53 26 -53 50 -35 c 0,25,26
 68 -21 68 -21 104 0 c 1,27,-1
 140 0 l 1,28,29
 135 -2 135 -2 118 -11 c 128,-1,30
 101 -20 101 -20 77 -37 c 0,31,4
 30 -73 30 -73 30 -105 c 0,5,6
EndSplineSet
Validated: 5
EndChar

StartChar: iogonek
Encoding: 303 303 212
Width: 230
GlyphClass: 1
Flags: W
LayerCount: 2
Fore
SplineSet
30 -105 m 0,1,2
 30 -114 30 -114 32 -119 c 0,3,4
 37 -133 37 -133 50.5 -140.5 c 128,-1,5
 64 -148 64 -148 81 -148 c 0,6,7
 93 -148 93 -148 105.5 -143.5 c 128,-1,8
 118 -139 118 -139 126 -131 c 1,9,-1
 140 -145 l 1,10,11
 126 -159 126 -159 105.5 -166.5 c 128,-1,12
 85 -174 85 -174 64 -174 c 0,13,14
 44 -174 44 -174 27.5 -167 c 128,-1,15
 11 -160 11 -160 3 -146 c 0,16,17
 -5 -134 -5 -134 -5 -118 c 0,18,19
 -5 -96 -5 -96 10.5 -74.5 c 128,-1,20
 26 -53 26 -53 50 -35 c 0,21,22
 68 -21 68 -21 104 0 c 1,23,-1
 140 0 l 1,24,25
 135 -2 135 -2 118 -11 c 128,-1,26
 101 -20 101 -20 77 -37 c 0,27,0
 30 -73 30 -73 30 -105 c 0,1,2
90 480 m 1,28,-1
 140 480 l 1,29,-1
 140 0 l 1,30,-1
 90 0 l 1,31,-1
 90 480 l 1,28,-1
95 612 m 128,-1,33
 103 604 103 604 114 604 c 256,34,35
 125 604 125 604 133 612 c 128,-1,36
 141 620 141 620 141 631 c 256,37,38
 141 642 141 642 133 650 c 128,-1,39
 125 658 125 658 114 658 c 256,40,41
 103 658 103 658 95 650 c 128,-1,42
 87 642 87 642 87 631 c 256,43,32
 87 620 87 620 95 612 c 128,-1,33
145 646 m 128,-1,45
 133 658 133 658 114 658 c 0,46,47
 97 658 97 658 85 646 c 128,-1,48
 73 634 73 634 73 616 c 0,49,50
 73 599 73 599 85 587 c 128,-1,51
 97 575 97 575 114 575 c 256,52,53
 131 575 131 575 144 587 c 128,-1,54
 157 599 157 599 157 616 c 0,55,44
 157 634 157 634 145 646 c 128,-1,45
EndSplineSet
Validated: 5
EndChar

StartChar: Idotaccent
Encoding: 304 304 213
Width: 231
GlyphClass: 1
Flags: W
LayerCount: 2
Fore
SplineSet
141 658 m 1,0,-1
 141 0 l 1,1,-1
 91 0 l 1,2,-1
 91 658 l 1,3,-1
 141 658 l 1,0,-1
135 775 m 128,-1,5
 127 783 127 783 115 783 c 0,6,7
 104 783 104 783 96 775 c 128,-1,8
 88 767 88 767 88 756 c 256,9,10
 88 745 88 745 96 737 c 128,-1,11
 104 729 104 729 115 729 c 256,12,13
 126 729 126 729 134.5 737 c 128,-1,14
 143 745 143 745 143 756 c 256,15,4
 143 767 143 767 135 775 c 128,-1,5
EndSplineSet
Validated: 9
EndChar

StartChar: dotlessi
Encoding: 305 305 214
Width: 230
GlyphClass: 1
Flags: W
LayerCount: 2
Fore
SplineSet
90 480 m 1,0,-1
 140 480 l 1,1,-1
 140 0 l 1,2,-1
 90 0 l 1,3,-1
 90 480 l 1,0,-1
EndSplineSet
Validated: 1
EndChar

StartChar: Kcommaaccent
Encoding: 310 310 215
Width: 635
GlyphClass: 1
Flags: W
LayerCount: 2
Fore
SplineSet
338 337 m 1,0,-1
 585 0 l 1,1,-1
 524 0 l 1,2,-1
 308 294 l 1,3,-1
 101 0 l 1,4,-1
 81 0 l 1,5,-1
 81 658 l 1,6,-1
 131 658 l 1,7,-1
 131 77 l 1,8,-1
 539 658 l 1,9,-1
 564 658 l 1,10,-1
 338 337 l 1,0,-1
297 -72 m 1,11,-1
 359 -72 l 1,12,-1
 225 -202 l 1,13,-1
 201 -202 l 1,14,-1
 297 -72 l 1,11,-1
EndSplineSet
Validated: 1
EndChar

StartChar: kcommaaccent
Encoding: 311 311 216
Width: 509
GlyphClass: 1
Flags: W
LayerCount: 2
Fore
SplineSet
273 245 m 1,0,-1
 469 0 l 1,1,-1
 405 0 l 1,2,-1
 243 202 l 1,3,-1
 101 0 l 1,4,-1
 81 0 l 1,5,-1
 81 658 l 1,6,-1
 131 658 l 1,7,-1
 131 77 l 1,8,-1
 413 480 l 1,9,-1
 437 480 l 1,10,-1
 273 245 l 1,0,-1
244 -72 m 1,11,-1
 306 -72 l 1,12,-1
 172 -202 l 1,13,-1
 148 -202 l 1,14,-1
 244 -72 l 1,11,-1
EndSplineSet
Validated: 1
EndChar

StartChar: Lacute
Encoding: 313 313 217
Width: 568
GlyphClass: 1
Flags: W
LayerCount: 2
Fore
SplineSet
132 20 m 1,0,-1
 498 20 l 1,1,-1
 498 0 l 1,2,-1
 82 0 l 1,3,-1
 82 658 l 1,4,-1
 132 658 l 1,5,-1
 132 20 l 1,0,-1
374 834 m 1,6,-1
 436 834 l 1,7,-1
 302 704 l 1,8,-1
 278 704 l 1,9,-1
 374 834 l 1,6,-1
EndSplineSet
Validated: 1
EndChar

StartChar: lacute
Encoding: 314 314 218
Width: 230
GlyphClass: 1
Flags: W
LayerCount: 2
Fore
SplineSet
90 658 m 1,0,-1
 140 658 l 1,1,-1
 140 0 l 1,2,-1
 90 0 l 1,3,-1
 90 658 l 1,0,-1
199 859 m 1,4,-1
 261 859 l 1,5,-1
 127 729 l 1,6,-1
 103 729 l 1,7,-1
 199 859 l 1,4,-1
EndSplineSet
Validated: 1
EndChar

StartChar: Lcommaaccent
Encoding: 315 315 219
Width: 568
GlyphClass: 1
Flags: W
LayerCount: 2
Fore
SplineSet
132 20 m 1,0,-1
 498 20 l 1,1,-1
 498 0 l 1,2,-1
 82 0 l 1,3,-1
 82 658 l 1,4,-1
 132 658 l 1,5,-1
 132 20 l 1,0,-1
260 -72 m 1,6,-1
 322 -72 l 1,7,-1
 188 -202 l 1,8,-1
 164 -202 l 1,9,-1
 260 -72 l 1,6,-1
EndSplineSet
Validated: 1
EndChar

StartChar: lcommaaccent
Encoding: 316 316 220
Width: 230
GlyphClass: 1
Flags: W
LayerCount: 2
Fore
SplineSet
90 658 m 1,0,-1
 140 658 l 1,1,-1
 140 0 l 1,2,-1
 90 0 l 1,3,-1
 90 658 l 1,0,-1
85 -72 m 1,4,-1
 147 -72 l 1,5,-1
 13 -202 l 1,6,-1
 -11 -202 l 1,7,-1
 85 -72 l 1,4,-1
EndSplineSet
Validated: 1
EndChar

StartChar: Lcaron
Encoding: 317 317 221
Width: 568
GlyphClass: 1
Flags: W
LayerCount: 2
Fore
SplineSet
132 20 m 1,0,-1
 498 20 l 1,1,-1
 498 0 l 1,2,-1
 82 0 l 1,3,-1
 82 658 l 1,4,-1
 132 658 l 1,5,-1
 132 20 l 1,0,-1
308 762 m 1,6,-1
 226 873 l 1,7,-1
 164 873 l 1,8,-1
 290 704 l 1,9,-1
 416 873 l 1,10,-1
 391 873 l 1,11,-1
 308 762 l 1,6,-1
EndSplineSet
Validated: 9
EndChar

StartChar: lcaron
Encoding: 318 318 222
Width: 316
GlyphClass: 1
Flags: W
LayerCount: 2
Fore
SplineSet
267.5 645 m 128,-1,1
 281 632 281 632 281 613 c 0,2,3
 281 607 281 607 280 602 c 0,4,5
 275 576 275 576 259 552 c 128,-1,6
 243 528 243 528 219 500 c 1,7,-1
 199 500 l 1,8,9
 207 513 207 513 215 532.5 c 128,-1,10
 223 552 223 552 225 570 c 1,11,12
 210 573 210 573 200 585 c 128,-1,13
 190 597 190 597 190 613 c 0,14,15
 190 632 190 632 203 645 c 128,-1,16
 216 658 216 658 234 658 c 0,17,0
 254 658 254 658 267.5 645 c 128,-1,1
90 658 m 1,18,-1
 140 658 l 1,19,-1
 140 0 l 1,20,-1
 90 0 l 1,21,-1
 90 658 l 1,18,-1
EndSplineSet
Validated: 1
EndChar

StartChar: Lslash
Encoding: 321 321 223
Width: 568
GlyphClass: 1
Flags: W
LayerCount: 2
Fore
SplineSet
132 20 m 1,0,-1
 498 20 l 1,1,-1
 498 0 l 1,2,-1
 82 0 l 1,3,-1
 82 658 l 1,4,-1
 132 658 l 1,5,-1
 132 20 l 1,0,-1
287 449 m 1,6,-1
 287 422 l 1,7,-1
 22 184 l 1,8,-1
 22 211 l 1,9,-1
 287 449 l 1,6,-1
EndSplineSet
Validated: 5
EndChar

StartChar: lslash
Encoding: 322 322 224
Width: 230
GlyphClass: 1
Flags: W
LayerCount: 2
Fore
SplineSet
200 421 m 1,0,-1
 200 394 l 1,1,-1
 30 241 l 1,2,-1
 30 268 l 1,3,-1
 200 421 l 1,0,-1
90 658 m 1,4,-1
 140 658 l 1,5,-1
 140 0 l 1,6,-1
 90 0 l 1,7,-1
 90 658 l 1,4,-1
EndSplineSet
Validated: 5
EndChar

StartChar: Nacute
Encoding: 323 323 225
Width: 666
GlyphClass: 1
Flags: W
LayerCount: 2
Fore
SplineSet
585 658 m 1,0,-1
 585 0 l 1,1,-1
 565 0 l 1,2,-1
 101 579 l 1,3,-1
 101 0 l 1,4,-1
 81 0 l 1,5,-1
 81 658 l 1,6,-1
 101 658 l 1,7,-1
 565 79 l 1,8,-1
 565 658 l 1,9,-1
 585 658 l 1,0,-1
417 834 m 1,10,-1
 479 834 l 1,11,-1
 345 704 l 1,12,-1
 321 704 l 1,13,-1
 417 834 l 1,10,-1
EndSplineSet
Validated: 1
EndChar

StartChar: nacute
Encoding: 324 324 226
Width: 599
GlyphClass: 1
Flags: W
LayerCount: 2
Fore
SplineSet
507 369.5 m 128,-1,1
 518 335 518 335 518 282 c 2,2,-1
 518 0 l 1,3,-1
 468 0 l 1,4,-1
 468 282 l 2,5,6
 468 387 468 387 422 426 c 128,-1,7
 376 465 376 465 317 465 c 0,8,9
 261 465 261 465 214.5 429 c 128,-1,10
 168 393 168 393 147 344 c 0,11,12
 137 323 137 323 134 298.5 c 128,-1,13
 131 274 131 274 131 231 c 2,14,-1
 131 0 l 1,15,-1
 81 0 l 1,16,-1
 81 480 l 1,17,-1
 131 480 l 1,18,-1
 131 364 l 1,19,20
 155 414 155 414 208 450 c 128,-1,21
 261 486 261 486 323 486 c 0,22,23
 417 486 417 486 469 433 c 0,24,0
 496 404 496 404 507 369.5 c 128,-1,1
372 676 m 1,25,-1
 434 676 l 1,26,-1
 300 546 l 1,27,-1
 276 546 l 1,28,-1
 372 676 l 1,25,-1
EndSplineSet
Validated: 1
EndChar

StartChar: Ncommaaccent
Encoding: 325 325 227
Width: 666
GlyphClass: 1
Flags: W
LayerCount: 2
Fore
SplineSet
585 658 m 1,0,-1
 585 0 l 1,1,-1
 565 0 l 1,2,-1
 101 579 l 1,3,-1
 101 0 l 1,4,-1
 81 0 l 1,5,-1
 81 658 l 1,6,-1
 101 658 l 1,7,-1
 565 79 l 1,8,-1
 565 658 l 1,9,-1
 585 658 l 1,0,-1
302 -72 m 1,10,-1
 364 -72 l 1,11,-1
 230 -202 l 1,12,-1
 206 -202 l 1,13,-1
 302 -72 l 1,10,-1
EndSplineSet
Validated: 1
EndChar

StartChar: ncommaaccent
Encoding: 326 326 228
Width: 599
GlyphClass: 1
Flags: W
LayerCount: 2
Fore
SplineSet
507 369.5 m 128,-1,1
 518 335 518 335 518 282 c 2,2,-1
 518 0 l 1,3,-1
 468 0 l 1,4,-1
 468 282 l 2,5,6
 468 387 468 387 422 426 c 128,-1,7
 376 465 376 465 317 465 c 0,8,9
 261 465 261 465 214.5 429 c 128,-1,10
 168 393 168 393 147 344 c 0,11,12
 137 323 137 323 134 298.5 c 128,-1,13
 131 274 131 274 131 231 c 2,14,-1
 131 0 l 1,15,-1
 81 0 l 1,16,-1
 81 480 l 1,17,-1
 131 480 l 1,18,-1
 131 364 l 1,19,20
 155 414 155 414 208 450 c 128,-1,21
 261 486 261 486 323 486 c 0,22,23
 417 486 417 486 469 433 c 0,24,0
 496 404 496 404 507 369.5 c 128,-1,1
269 -72 m 1,25,-1
 331 -72 l 1,26,-1
 197 -202 l 1,27,-1
 173 -202 l 1,28,-1
 269 -72 l 1,25,-1
EndSplineSet
Validated: 1
EndChar

StartChar: Ncaron
Encoding: 327 327 229
Width: 666
GlyphClass: 1
Flags: W
LayerCount: 2
Fore
SplineSet
585 658 m 1,0,-1
 585 0 l 1,1,-1
 565 0 l 1,2,-1
 101 579 l 1,3,-1
 101 0 l 1,4,-1
 81 0 l 1,5,-1
 81 658 l 1,6,-1
 101 658 l 1,7,-1
 565 79 l 1,8,-1
 565 658 l 1,9,-1
 585 658 l 1,0,-1
350 762 m 1,10,-1
 268 873 l 1,11,-1
 206 873 l 1,12,-1
 332 704 l 1,13,-1
 458 873 l 1,14,-1
 433 873 l 1,15,-1
 350 762 l 1,10,-1
EndSplineSet
Validated: 9
EndChar

StartChar: ncaron
Encoding: 328 328 230
Width: 599
GlyphClass: 1
Flags: W
LayerCount: 2
Fore
SplineSet
306 604 m 1,0,-1
 224 715 l 1,1,-1
 162 715 l 1,2,-1
 288 546 l 1,3,-1
 414 715 l 1,4,-1
 389 715 l 1,5,-1
 306 604 l 1,0,-1
507 369.5 m 128,-1,7
 518 335 518 335 518 282 c 2,8,-1
 518 0 l 1,9,-1
 468 0 l 1,10,-1
 468 282 l 2,11,12
 468 387 468 387 422 426 c 128,-1,13
 376 465 376 465 317 465 c 0,14,15
 261 465 261 465 214.5 429 c 128,-1,16
 168 393 168 393 147 344 c 0,17,18
 137 323 137 323 134 298.5 c 128,-1,19
 131 274 131 274 131 231 c 2,20,-1
 131 0 l 1,21,-1
 81 0 l 1,22,-1
 81 480 l 1,23,-1
 131 480 l 1,24,-1
 131 364 l 1,25,26
 155 414 155 414 208 450 c 128,-1,27
 261 486 261 486 323 486 c 0,28,29
 417 486 417 486 469 433 c 0,30,6
 496 404 496 404 507 369.5 c 128,-1,7
EndSplineSet
Validated: 9
EndChar

StartChar: Eng
Encoding: 330 330 231
Width: 666
GlyphClass: 1
Flags: W
LayerCount: 2
Fore
SplineSet
585 658 m 1,0,-1
 585 0 l 2,1,2
 585 -55 585 -55 546 -90 c 128,-1,3
 507 -125 507 -125 450 -125 c 0,4,5
 403 -125 403 -125 368 -98 c 1,6,-1
 368 -71 l 1,7,8
 402 -105 402 -105 450 -105 c 0,9,10
 499 -105 499 -105 532 -75.5 c 128,-1,11
 565 -46 565 -46 565 0 c 1,12,-1
 101 579 l 1,13,-1
 101 0 l 1,14,-1
 81 0 l 1,15,-1
 81 658 l 1,16,-1
 101 658 l 1,17,-1
 565 79 l 1,18,-1
 565 658 l 1,19,-1
 585 658 l 1,0,-1
EndSplineSet
Validated: 1
EndChar

StartChar: eng
Encoding: 331 331 232
Width: 600
GlyphClass: 1
Flags: W
LayerCount: 2
Fore
SplineSet
519 -11 m 2,0,1
 519 -71 519 -71 480.5 -105 c 128,-1,2
 442 -139 442 -139 384 -139 c 0,3,4
 337 -139 337 -139 301 -112 c 1,5,-1
 301 -85 l 1,6,7
 317 -101 317 -101 339 -110 c 128,-1,8
 361 -119 361 -119 384 -119 c 0,9,10
 433 -119 433 -119 451 -89 c 128,-1,11
 469 -59 469 -59 469 8 c 2,12,-1
 469 282 l 2,13,14
 469 387 469 387 423 426 c 128,-1,15
 377 465 377 465 318 465 c 0,16,17
 261 465 261 465 214.5 429.5 c 128,-1,18
 168 394 168 394 147 344 c 0,19,20
 138 322 138 322 134.5 297 c 128,-1,21
 131 272 131 272 131 231 c 2,22,-1
 131 0 l 1,23,-1
 82 0 l 1,24,-1
 81 480 l 1,25,-1
 131 480 l 1,26,-1
 131 364 l 1,27,28
 156 414 156 414 209 450 c 128,-1,29
 262 486 262 486 324 486 c 0,30,31
 365 486 365 486 403.5 473.5 c 128,-1,32
 442 461 442 461 469 433 c 0,33,34
 496 404 496 404 507.5 369 c 128,-1,35
 519 334 519 334 519 282 c 2,36,-1
 519 -11 l 2,0,1
EndSplineSet
Validated: 1
EndChar

StartChar: Omacron
Encoding: 332 332 233
Width: 766
GlyphClass: 1
Flags: W
LayerCount: 2
Fore
SplineSet
549.5 619 m 128,-1,1
 626 574 626 574 671 497 c 128,-1,2
 716 420 716 420 716 329 c 256,3,4
 716 238 716 238 671 161 c 128,-1,5
 626 84 626 84 549.5 39 c 128,-1,6
 473 -6 473 -6 383 -6 c 256,7,8
 293 -6 293 -6 216.5 39 c 128,-1,9
 140 84 140 84 95 161 c 128,-1,10
 50 238 50 238 50 329 c 256,11,12
 50 420 50 420 95 497 c 128,-1,13
 140 574 140 574 216.5 619 c 128,-1,14
 293 664 293 664 383 664 c 256,15,0
 473 664 473 664 549.5 619 c 128,-1,1
241 598.5 m 128,-1,17
 177 553 177 553 141 480 c 128,-1,18
 105 407 105 407 105 329 c 0,19,20
 105 250 105 250 141.5 177 c 128,-1,21
 178 104 178 104 241.5 59 c 128,-1,22
 305 14 305 14 383 14 c 256,23,24
 461 14 461 14 524.5 59 c 128,-1,25
 588 104 588 104 624.5 177 c 128,-1,26
 661 250 661 250 661 329 c 0,27,28
 661 407 661 407 625 480 c 128,-1,29
 589 553 589 553 525 598.5 c 128,-1,30
 461 644 461 644 383 644 c 256,31,16
 305 644 305 644 241 598.5 c 128,-1,17
257 704 m 1,32,-1
 257 724 l 1,33,-1
 508 724 l 1,34,-1
 508 704 l 1,35,-1
 257 704 l 1,32,-1
EndSplineSet
Validated: 1
EndChar

StartChar: omacron
Encoding: 333 333 234
Width: 592
GlyphClass: 1
Flags: W
LayerCount: 2
Fore
SplineSet
172.5 27 m 128,-1,1
 116 60 116 60 83 116.5 c 128,-1,2
 50 173 50 173 50 240 c 256,3,4
 50 307 50 307 83 363.5 c 128,-1,5
 116 420 116 420 172.5 453 c 128,-1,6
 229 486 229 486 296 486 c 256,7,8
 363 486 363 486 419.5 453 c 128,-1,9
 476 420 476 420 509 363.5 c 128,-1,10
 542 307 542 307 542 240 c 256,11,12
 542 173 542 173 509 116.5 c 128,-1,13
 476 60 476 60 419.5 27 c 128,-1,14
 363 -6 363 -6 296 -6 c 256,15,0
 229 -6 229 -6 172.5 27 c 128,-1,1
189 432.5 m 128,-1,17
 146 400 146 400 125.5 348.5 c 128,-1,18
 105 297 105 297 105 240 c 256,19,20
 105 183 105 183 126 131.5 c 128,-1,21
 147 80 147 80 190 47.5 c 128,-1,22
 233 15 233 15 296 15 c 256,23,24
 359 15 359 15 402.5 47.5 c 128,-1,25
 446 80 446 80 466.5 131.5 c 128,-1,26
 487 183 487 183 487 240 c 256,27,28
 487 297 487 297 466 348.5 c 128,-1,29
 445 400 445 400 402 432.5 c 128,-1,30
 359 465 359 465 296 465 c 0,31,16
 232 465 232 465 189 432.5 c 128,-1,17
170 546 m 1,32,-1
 170 566 l 1,33,-1
 421 566 l 1,34,-1
 421 546 l 1,35,-1
 170 546 l 1,32,-1
EndSplineSet
Validated: 1
EndChar

StartChar: Ohungarumlaut
Encoding: 336 336 235
Width: 766
GlyphClass: 1
Flags: W
LayerCount: 2
Fore
SplineSet
549.5 619 m 128,-1,1
 626 574 626 574 671 497 c 128,-1,2
 716 420 716 420 716 329 c 256,3,4
 716 238 716 238 671 161 c 128,-1,5
 626 84 626 84 549.5 39 c 128,-1,6
 473 -6 473 -6 383 -6 c 256,7,8
 293 -6 293 -6 216.5 39 c 128,-1,9
 140 84 140 84 95 161 c 128,-1,10
 50 238 50 238 50 329 c 256,11,12
 50 420 50 420 95 497 c 128,-1,13
 140 574 140 574 216.5 619 c 128,-1,14
 293 664 293 664 383 664 c 256,15,0
 473 664 473 664 549.5 619 c 128,-1,1
241 598.5 m 128,-1,17
 177 553 177 553 141 480 c 128,-1,18
 105 407 105 407 105 329 c 0,19,20
 105 250 105 250 141.5 177 c 128,-1,21
 178 104 178 104 241.5 59 c 128,-1,22
 305 14 305 14 383 14 c 256,23,24
 461 14 461 14 524.5 59 c 128,-1,25
 588 104 588 104 624.5 177 c 128,-1,26
 661 250 661 250 661 329 c 0,27,28
 661 407 661 407 625 480 c 128,-1,29
 589 553 589 553 525 598.5 c 128,-1,30
 461 644 461 644 383 644 c 256,31,16
 305 644 305 644 241 598.5 c 128,-1,17
409 834 m 1,32,-1
 471 834 l 1,33,-1
 337 704 l 1,34,-1
 313 704 l 1,35,-1
 409 834 l 1,32,-1
526 834 m 1,36,-1
 588 834 l 1,37,-1
 454 704 l 1,38,-1
 430 704 l 1,39,-1
 526 834 l 1,36,-1
EndSplineSet
Validated: 1
EndChar

StartChar: ohungarumlaut
Encoding: 337 337 236
Width: 592
GlyphClass: 1
Flags: W
LayerCount: 2
Fore
SplineSet
172.5 27 m 128,-1,1
 116 60 116 60 83 116.5 c 128,-1,2
 50 173 50 173 50 240 c 256,3,4
 50 307 50 307 83 363.5 c 128,-1,5
 116 420 116 420 172.5 453 c 128,-1,6
 229 486 229 486 296 486 c 256,7,8
 363 486 363 486 419.5 453 c 128,-1,9
 476 420 476 420 509 363.5 c 128,-1,10
 542 307 542 307 542 240 c 256,11,12
 542 173 542 173 509 116.5 c 128,-1,13
 476 60 476 60 419.5 27 c 128,-1,14
 363 -6 363 -6 296 -6 c 256,15,0
 229 -6 229 -6 172.5 27 c 128,-1,1
189 432.5 m 128,-1,17
 146 400 146 400 125.5 348.5 c 128,-1,18
 105 297 105 297 105 240 c 256,19,20
 105 183 105 183 126 131.5 c 128,-1,21
 147 80 147 80 190 47.5 c 128,-1,22
 233 15 233 15 296 15 c 256,23,24
 359 15 359 15 402.5 47.5 c 128,-1,25
 446 80 446 80 466.5 131.5 c 128,-1,26
 487 183 487 183 487 240 c 256,27,28
 487 297 487 297 466 348.5 c 128,-1,29
 445 400 445 400 402 432.5 c 128,-1,30
 359 465 359 465 296 465 c 0,31,16
 232 465 232 465 189 432.5 c 128,-1,17
321 676 m 1,32,-1
 383 676 l 1,33,-1
 249 546 l 1,34,-1
 225 546 l 1,35,-1
 321 676 l 1,32,-1
438 676 m 1,36,-1
 500 676 l 1,37,-1
 366 546 l 1,38,-1
 342 546 l 1,39,-1
 438 676 l 1,36,-1
EndSplineSet
Validated: 1
EndChar

StartChar: OE
Encoding: 338 338 237
Width: 1137
GlyphClass: 1
Flags: W
LayerCount: 2
Fore
SplineSet
710 638 m 1,0,-1
 710 339 l 1,1,-1
 1002 339 l 1,2,-1
 1002 319 l 1,3,-1
 710 319 l 1,4,-1
 710 20 l 1,5,-1
 1077 20 l 1,6,-1
 1077 0 l 1,7,-1
 661 0 l 1,8,-1
 661 145 l 1,9,10
 615 75 615 75 541.5 34.5 c 128,-1,11
 468 -6 468 -6 383 -6 c 0,12,13
 293 -6 293 -6 216.5 39 c 128,-1,14
 140 84 140 84 95 161 c 128,-1,15
 50 238 50 238 50 329 c 256,16,17
 50 420 50 420 95 497 c 128,-1,18
 140 574 140 574 216.5 619 c 128,-1,19
 293 664 293 664 383 664 c 0,20,21
 468 664 468 664 541.5 623.5 c 128,-1,22
 615 583 615 583 661 513 c 1,23,-1
 661 658 l 1,24,-1
 1077 658 l 1,25,-1
 1077 638 l 1,26,-1
 710 638 l 1,0,-1
524.5 59 m 128,-1,28
 588 104 588 104 624.5 177 c 128,-1,29
 661 250 661 250 661 329 c 0,30,31
 661 407 661 407 625 480 c 128,-1,32
 589 553 589 553 525 598.5 c 128,-1,33
 461 644 461 644 383 644 c 256,34,35
 305 644 305 644 241 598.5 c 128,-1,36
 177 553 177 553 141 480 c 128,-1,37
 105 407 105 407 105 329 c 0,38,39
 105 250 105 250 141.5 177 c 128,-1,40
 178 104 178 104 241.5 59 c 128,-1,41
 305 14 305 14 383 14 c 256,42,27
 461 14 461 14 524.5 59 c 128,-1,28
EndSplineSet
Validated: 1
EndChar

